<svg width="32" height="32" viewBox="0 0 32 32" fill="none" xmlns="http://www.w3.org/2000/svg">
<g clip-path="url(#clip0_1_16)">
<mask id="mask0_1_16" style="mask-type:luminance" maskUnits="userSpaceOnUse" x="0" y="0" width="32" height="32">
<path d="M32 16C32 7.16344 24.8366 0 16 0C7.16344 0 0 7.16344 0 16C0 24.8366 7.16344 32 16 32C24.8366 32 32 24.8366 32 16Z" fill="white"/>
</mask>
<g mask="url(#mask0_1_16)">
<g opacity="0.7" filter="url(#filter0_f_1_16)">
<path opacity="0.6" d="M21.4583 14.3473L21.6139 14.5861C23.37 17.2801 22.9778 20.8081 20.671 23.0684C19.3139 24.3981 17.5353 25.063 15.7566 25.0632C15.7566 25.0632 15.7566 25.0632 21.4583 14.3473Z" fill="#00A3FF"/>
<path opacity="0.2" d="M15.7559 17.6042L21.4575 14.3473C15.7559 25.0632 15.7559 25.0632 15.7559 25.0632C15.7559 22.7293 15.7559 20.0551 15.7559 17.6042Z" fill="#00A3FF"/>
<path d="M10.0487 14.3473L9.89308 14.5861C8.13696 17.2801 8.52916 20.8081 10.836 23.0684C12.1931 24.3981 13.9717 25.063 15.7504 25.0632C15.7504 25.0632 15.7504 25.0632 10.0487 14.3473Z" fill="#00A3FF"/>
<path opacity="0.6" d="M15.7489 17.6042L10.0472 14.3473C15.7489 25.0632 15.7489 25.0632 15.7489 25.0632C15.7489 22.7293 15.7489 20.0551 15.7489 17.6042Z" fill="#00A3FF"/>
<path opacity="0.2" d="M15.7578 10.3286V15.9458L20.6692 13.139L15.7578 10.3286Z" fill="#00A3FF"/>
<path opacity="0.6" d="M15.7565 10.3286L10.8416 13.139L15.7565 15.9458V10.3286Z" fill="#00A3FF"/>
<path d="M15.7565 5.60413L10.8416 13.1403L15.7565 10.322V5.60413Z" fill="#00A3FF"/>
<path opacity="0.6" d="M15.7578 10.3215L20.6729 13.1398L15.7578 5.59985V10.3215Z" fill="#00A3FF"/>
</g>
<path opacity="0.6" d="M21.907 14.1888L22.0682 14.4343C23.8866 17.2024 23.4804 20.8278 21.0918 23.1504C19.6866 24.5168 17.845 25.2 16.0032 25.2002C16.0032 25.2002 16.0032 25.2002 21.907 14.1888Z" fill="#00A3FF"/>
<path opacity="0.2" d="M16.0024 17.5355L21.9062 14.1888C16.0024 25.2002 16.0024 25.2002 16.0024 25.2002C16.0024 22.8021 16.0024 20.054 16.0024 17.5355Z" fill="#00A3FF"/>
<path d="M10.093 14.1888L9.93183 14.4343C8.11346 17.2024 8.51956 20.8278 10.9082 23.1504C12.3133 24.5168 14.155 25.2 15.9968 25.2002C15.9968 25.2002 15.9968 25.2002 10.093 14.1888Z" fill="#00A3FF"/>
<path opacity="0.6" d="M15.9949 17.5355L10.0911 14.1888C15.9949 25.2002 15.9949 25.2002 15.9949 25.2002C15.9949 22.8021 15.9949 20.054 15.9949 17.5355Z" fill="#00A3FF"/>
<path opacity="0.2" d="M16.0048 10.059V15.831L21.0902 12.9469L16.0048 10.059Z" fill="#00A3FF"/>
<path opacity="0.6" d="M16.0032 10.059L10.9141 12.9468L16.0032 15.831V10.059Z" fill="#00A3FF"/>
<path d="M16.0032 5.20471L10.9141 12.9486L16.0032 10.0527V5.20471Z" fill="#00A3FF"/>
<path opacity="0.6" d="M16.0048 10.0519L21.0941 12.9479L16.0048 5.20007V10.0519Z" fill="#00A3FF"/>
</g>
<path d="M31.5556 16C31.5556 7.40892 24.5911 0.444458 16 0.444458C7.40892 0.444458 0.444458 7.40892 0.444458 16C0.444458 24.5911 7.40892 31.5556 16 31.5556C24.5911 31.5556 31.5556 24.5911 31.5556 16Z" stroke="black" stroke-opacity="0.1"/>
</g>
<defs>
<filter id="filter0_f_1_16" x="-9.20007" y="-12.4001" width="49.9071" height="55.4634" filterUnits="userSpaceOnUse" color-interpolation-filters="sRGB">
<feFlood flood-opacity="0" result="BackgroundImageFix"/>
<feBlend mode="normal" in="SourceGraphic" in2="BackgroundImageFix" result="shape"/>
<feGaussianBlur stdDeviation="9" result="effect1_foregroundBlur_1_16"/>
</filter>
<clipPath id="clip0_1_16">
<rect width="32" height="32" fill="white"/>
</clipPath>
</defs>
</svg>
