<svg width="32" height="32" viewBox="0 0 32 32" fill="none" xmlns="http://www.w3.org/2000/svg">
<g clip-path="url(#clip0_1978_64)">
<path d="M16 32C24.8366 32 32 24.8366 32 16C32 7.16344 24.8366 0 16 0C7.16344 0 0 7.16344 0 16C0 24.8366 7.16344 32 16 32Z" fill="url(#paint0_radial_1978_64)"/>
<path d="M9.88043 20.2055H7.60352C7.78935 23.7603 10.7633 26.8504 16.0374 26.8504C21.2883 26.8504 24.634 23.9694 24.634 20.2519C24.634 13.1889 13.9696 13.5838 13.9696 9.49466C13.9696 8.3562 14.8292 7.0086 16.8273 7.0086C19.0578 7.0086 21.6832 8.75119 21.8691 10.9816H24.1228C23.8905 7.38034 20.3821 4.87109 15.9212 4.87109C11.2977 4.87109 7.8126 7.56624 7.8126 11.3766C7.8126 18.6488 18.4769 17.6962 18.4769 22.1804C18.4769 23.5744 17.6173 24.7361 15.4566 24.7361C12.7614 24.7361 10.043 22.8542 9.88043 20.2055ZM11.7856 10.0291C11.7856 15.5587 22.357 14.4667 22.357 20.3682C22.357 22.1339 21.1953 23.6906 19.8013 24.0855C20.2892 23.6209 20.6609 22.5986 20.6609 21.6228C20.6609 16.1628 10.0663 16.9063 10.0663 11.3069C10.0663 9.42492 11.2745 7.91473 12.7847 7.45007C12.2038 8.14706 11.7856 9.05319 11.7856 10.0291Z" fill="white"/>
</g>
<defs>
<radialGradient id="paint0_radial_1978_64" cx="0" cy="0" r="1" gradientUnits="userSpaceOnUse" gradientTransform="translate(16 37.0902) rotate(-90) scale(51.2722)">
<stop stop-color="#FFD232"/>
<stop offset="1" stop-color="#FF6D6D"/>
</radialGradient>
<clipPath id="clip0_1978_64">
<rect width="32" height="32" fill="white"/>
</clipPath>
</defs>
</svg>
