<svg width="157" height="29" viewBox="0 0 157 29" fill="none" xmlns="http://www.w3.org/2000/svg">
<g clip-path="url(#clip0_1_125)">
<path d="M27.8437 11.9539H23.0938V16.7162H27.8437V11.9539Z" fill="#010101"/>
<path d="M4.7499 11.9539H0V16.7162H4.7499V11.9539Z" fill="#010101"/>
<path d="M11.5484 16.7162H16.2983V11.9539H11.5459V16.7162H11.5484Z" fill="#010101"/>
<path d="M10.5238 6.14478H5.77393V22.5229H10.5238V6.14478Z" fill="#010101"/>
<path d="M17.3198 11.9539V22.5229H22.0722V6.14478H17.3198V11.9539Z" fill="#010101"/>
<path d="M17.3198 11.9539V22.5229H22.0722V6.14478H17.3198V11.9539Z" fill="#010101"/>
<path d="M16.2982 17.7407H11.5483V28.3122H16.2982V17.7407Z" fill="#010101"/>
<path d="M56.0776 28.3122V6.14478H62.0735V14.5659H70.0269V6.14478H76.0228V28.3122H70.0269V19.3282H62.0735V28.3122H56.0776Z" fill="#010101"/>
<path d="M90.0308 28.3122V6.14478H96.5585L101.826 14.8473C102.281 15.6003 102.707 16.3558 103.101 17.1088C103.497 17.8618 103.879 18.6937 104.251 19.5998C104.623 20.5083 104.999 21.565 105.386 22.7772H104.867C104.817 21.9748 104.756 21.044 104.682 19.9874C104.608 18.9307 104.542 17.8889 104.482 16.8644C104.423 15.8373 104.394 14.9732 104.394 14.2672V6.14478H110.567V28.3122H104.039L99.1268 20.2195C98.5727 19.2961 98.0852 18.437 97.6641 17.6371C97.2431 16.8397 96.8392 15.9929 96.4477 15.1016C96.0562 14.2079 95.6105 13.1784 95.1057 12.0082H95.7287C95.8075 13.05 95.8838 14.0869 95.9577 15.1164C96.0316 16.1484 96.0907 17.1063 96.135 17.9877C96.1793 18.8715 96.2015 19.6146 96.2015 20.2195V28.3122H90.0283H90.0308Z" fill="#010101"/>
<path d="M86.0251 6.14478H80.0293V28.3122H86.0251V6.14478Z" fill="#010101"/>
<path d="M152.695 0V3.4514H140.009V0H152.695Z" fill="#010101"/>
<path d="M152.684 6.14478H136.383V28.3122H156.326V6.14478H152.684ZM142.376 23.5499V10.9071H150.33V23.5499H142.376Z" fill="#010101"/>
<path d="M52.0967 28.3123H34.0525V23.5499H40.3143C41.4519 23.5499 42.592 23.5598 43.7345 23.5796C44.8771 23.5993 46.0221 23.6684 47.1695 23.7869L46.7977 25.6311C45.9482 24.7276 45.1085 23.8264 44.2836 22.9229C43.4587 22.0193 42.7077 21.1182 42.0355 20.2146L34.0229 9.47279V6.13989H52.0672V10.9072H45.3006C44.2418 10.9072 43.1829 10.8973 42.1241 10.8775C41.0653 10.8578 40.0065 10.7887 38.9477 10.6702L39.3195 8.82102C40.1395 9.6851 40.9496 10.5492 41.7449 11.4182C42.5427 12.2872 43.2617 13.1513 43.9044 14.0154L52.0942 24.9794V28.3123H52.0967Z" fill="#010101"/>
<path d="M114.576 28.3123V24.9794L122.766 14.0154C123.409 13.1513 124.128 12.2872 124.926 11.4182C125.721 10.5492 126.531 9.6851 127.351 8.82102L127.723 10.6702C126.664 10.7887 125.605 10.8578 124.546 10.8775C123.487 10.8973 122.429 10.9072 121.37 10.9072H114.603V6.13989H132.647V9.47279L124.635 20.2146C123.963 21.1182 123.212 22.0193 122.387 22.9229C121.562 23.8264 120.722 24.7276 119.873 25.6311L119.501 23.7869C120.648 23.6684 121.793 23.5993 122.936 23.5796C124.078 23.5598 125.219 23.5499 126.356 23.5499H132.618V28.3123H114.574H114.576Z" fill="#010101"/>
</g>
<defs>
<clipPath id="clip0_1_125">
<rect width="156.326" height="28.3123" fill="white"/>
</clipPath>
</defs>
</svg>
