<svg width="85" height="29" viewBox="0 0 85 29" fill="none" xmlns="http://www.w3.org/2000/svg">
<g clip-path="url(#clip0_182_202)">
<path d="M84.3713 7.59863H78.1235V13.8281H84.3713V7.59863Z" fill="white"/>
<path d="M53.9943 7.59863H47.7466V13.8281H53.9943V7.59863Z" fill="white"/>
<path d="M62.9368 13.8281H69.1845V7.59863H62.9336V13.8281H62.9368Z" fill="white"/>
<path d="M61.5895 0H55.3418V21.4235H61.5895V0Z" fill="white"/>
<path d="M70.5288 7.5986V21.4235H76.7797V0H70.5288V7.5986Z" fill="white"/>
<path d="M70.5288 7.5986V21.4235H76.7797V0H70.5288V7.5986Z" fill="white"/>
<path d="M69.1842 15.1689H62.9365V28.9969H69.1842V15.1689Z" fill="white"/>
<path d="M36.125 8.09863V13.3281H30.877V8.09863H36.125Z" stroke="white"/>
<path d="M5.74805 8.09863V13.3281H0.5V8.09863H5.74805Z" stroke="white"/>
<path d="M20.938 8.09863V13.3281H15.687V8.09863H20.938Z" stroke="white"/>
<path d="M13.3433 0.5V20.9238H8.09521V0.5H13.3433Z" stroke="white"/>
<path d="M28.5332 0.5V20.9238H23.2822V0.5H28.5332Z" stroke="white"/>
<path d="M28.5332 0.5V20.9238H23.2822V0.5H28.5332Z" stroke="white"/>
<path d="M20.938 15.6689V28.497H15.6899V15.6689H20.938Z" stroke="white"/>
</g>
<defs>
<clipPath id="clip0_182_202">
<rect width="85" height="29" fill="white"/>
</clipPath>
</defs>
</svg>
