<svg xmlns="http://www.w3.org/2000/svg" width="705" height="304" fill="none" viewBox="0 0 705 304"><path fill="#010101" d="M126.978 304V176.377h34.519v48.482h45.79v-48.482h34.519V304h-34.519v-51.723h-45.79V304zM322.454 304V176.377h37.582l30.323 50.102a242 242 0 0 1 7.343 13.02c2.283 4.335 4.48 9.125 6.621 14.341 2.14 5.231 4.309 11.314 6.535 18.293h-2.991c-.284-4.619-.638-9.978-1.064-16.061a1483 1483 0 0 1-1.148-17.98c-.34-5.913-.51-10.888-.51-14.953v-46.762h35.54V304h-37.582l-28.281-46.592c-3.19-5.316-5.997-10.262-8.421-14.867-2.424-4.591-4.749-9.467-7.003-14.598a3527 3527 0 0 1-7.726-17.809h3.586c.454 5.998.893 11.968 1.319 17.895.425 5.941.765 11.456 1.02 16.53.255 5.088.383 9.367.383 12.849V304h-35.54zM299.39 176.377h-34.519V304h34.519zM683.229 141v19.87h-73.037V141zM683.158 176.377H589.31V304h114.814V176.377zm-59.343 100.205v-72.787h45.79v72.787zM104.054 303.999H.17v-27.418h36.05q9.825 0 19.691.171 9.867.171 19.777 1.194l-2.141 10.617c-4.89-5.202-9.725-10.39-14.474-15.592S50 262.581 46.13 257.379L0 195.536v-19.188h103.884v27.446H64.928q-9.144 0-18.288-.17a198 198 0 0 1-18.287-1.194l2.14-10.646c4.721 4.975 9.385 9.949 13.964 14.953 4.593 5.003 8.733 9.977 12.433 14.952l47.15 63.122v19.188zM463.767 303.999v-19.188l47.15-63.122c3.7-4.975 7.84-9.949 12.433-14.952 4.579-5.004 9.243-9.978 13.964-14.953l2.14 10.646a198 198 0 0 1-18.287 1.194 987 987 0 0 1-18.288.17h-38.956v-27.446h103.884v19.188l-46.13 61.843c-3.87 5.202-8.194 10.39-12.943 15.592a1450 1450 0 0 1-14.474 15.592l-2.141-10.617a232 232 0 0 1 19.776-1.194q9.867-.171 19.691-.171h36.051v27.418H463.752z"/><path fill="#d01f27" d="M82.969 218.379q.61.893 1.269 2.021.705 1.128 1.316 2.256.61 1.08 1.034 1.927l-3.948 1.645a45 45 0 0 0-1.081-2.021 37 37 0 0 0-1.222-2.162 30 30 0 0 0-1.222-2.068zm6.58-1.175a36 36 0 0 1 1.316 1.974q.705 1.128 1.363 2.256.659 1.128 1.08 1.974l-3.9 1.692a159 159 0 0 0-1.833-3.243 32 32 0 0 0-1.927-3.102zm-1.692 10.058q-.33.657-.611 1.598-.236.892-.423 1.645a111 111 0 0 1-1.034 3.901 43 43 0 0 1-1.457 4.418 39 39 0 0 1-2.021 4.559 29 29 0 0 1-2.585 4.23 34 34 0 0 1-4.935 5.264q-2.773 2.444-6.298 4.418-3.478 1.974-7.661 3.337l-5.123-5.64q4.7-1.129 8.084-2.773 3.43-1.645 5.922-3.76a33.3 33.3 0 0 0 4.418-4.512 24 24 0 0 0 2.679-4.277 31.4 31.4 0 0 0 1.833-4.606q.705-2.35.987-4.371H57.777q-1.645 0-3.15.047a37 37 0 0 0-2.443.141v-6.627q.705.093 1.692.188 1.035.093 2.068.141 1.08.047 1.833.047h21.761q.705 0 1.692-.047a8.2 8.2 0 0 0 1.974-.329zm21.761-2.585q1.457.046 2.726.094h30.221l2.538-.094q-.047 1.08-.094 2.303v27.072q.047 1.033.047 2.115V258q.047.751.047.799h-6.486v-1.128q.047-1.082.047-2.538.047-1.458.047-2.726V230.74H116.01v25.615q.047.987.047 1.645v.799h-6.486V258a27 27 0 0 0 .047-1.739q.047-1.035.047-2.115a45 45 0 0 0 .047-1.927V226.98q0-1.317-.094-2.303m31.443 25.568v6.016h-28.247v-6.016zm42.77-20.163q.328.752.846 2.162.564 1.362 1.175 2.961a59 59 0 0 1 1.081 2.961q.47 1.41.752 2.209l-5.64 1.974q-.188-.894-.658-2.256-.47-1.364-1.034-2.867a100 100 0 0 0-1.128-2.961 61 61 0 0 0-.987-2.35zm17.343 3.431q-.376 1.128-.658 1.927a45 45 0 0 1-.47 1.504 46 46 0 0 1-2.444 7.144 31.7 31.7 0 0 1-3.948 6.627q-3.29 4.23-7.473 7.191-4.136 2.914-8.272 4.465l-4.935-5.029q2.585-.706 5.452-2.068a36.5 36.5 0 0 0 5.546-3.384q2.679-1.974 4.606-4.371 1.597-2.022 2.82-4.606a32 32 0 0 0 2.068-5.593q.846-3.009 1.128-5.922zm-28.247-.94q.47.893 1.034 2.303.611 1.41 1.222 2.961.61 1.55 1.175 3.008.611 1.457.94 2.444l-5.734 2.162a40 40 0 0 0-.846-2.444 68 68 0 0 0-1.175-3.149 90 90 0 0 0-1.269-3.102q-.564-1.41-.987-2.162zm85.822-3.807q-.376.657-.799 1.598-.423.892-.752 1.786-.61 2.068-1.739 4.747-1.081 2.631-2.726 5.499a41 41 0 0 1-3.713 5.452q-3.384 4.041-7.896 7.332-4.465 3.29-11.092 5.922l-5.546-4.982q4.794-1.41 8.272-3.243 3.478-1.834 6.063-3.901a37 37 0 0 0 4.606-4.465 26 26 0 0 0 3.008-4.136 43 43 0 0 0 2.35-4.653q.987-2.304 1.316-4.042h-15.839l2.162-5.311h13.442q1.081 0 2.162-.141 1.128-.141 1.927-.423zm-15.322-7.426a35 35 0 0 0-1.645 2.632q-.8 1.41-1.222 2.162-1.597 2.82-3.948 5.875a53.4 53.4 0 0 1-5.264 5.875 55 55 0 0 1-6.298 5.17l-5.311-3.901q3.102-1.927 5.452-3.948 2.397-2.022 4.136-3.995 1.738-2.022 2.961-3.854a92 92 0 0 0 2.162-3.337q.564-.893 1.175-2.303a23 23 0 0 0 .94-2.632zm36.66 2.914h4.559q2.773-.048 5.828-.188a69 69 0 0 0 5.64-.564 58 58 0 0 0 3.478-.564q1.739-.33 3.29-.658a33 33 0 0 0 2.867-.799 28 28 0 0 0 2.209-.799l3.854 5.17q-1.222.282-2.115.517-.893.234-1.504.376-1.457.375-3.149.752-1.692.329-3.478.611t-3.619.564a75 75 0 0 1-5.687.564q-3.008.188-5.828.329-2.82.093-4.888.141zm2.021 32.383q4.136-1.88 6.768-4.559 2.679-2.727 3.948-6.251 1.316-3.573 1.316-7.99v-9.682l6.157-.705v10.293q0 4.7-1.175 8.93a22.6 22.6 0 0 1-3.807 7.802q-2.68 3.525-7.238 6.251zm-5.546-21.15q.987.093 2.115.188 1.128.094 2.209.094h31.255q.517 0 1.316-.047l1.598-.094a66 66 0 0 1 1.363-.141v6.063a35 35 0 0 0-2.068-.141 47 47 0 0 0-2.068-.047H280.98q-1.081 0-2.303.047t-2.115.141zm61.993-2.961q.799.14 1.88.188 1.082.047 1.833.047h21.526q.846 0 1.833-.047a16 16 0 0 0 1.833-.188v5.922a32 32 0 0 0-1.88-.141 37 37 0 0 0-1.786-.047h-21.526q-.752 0-1.833.047t-1.88.141zM349.6 256.59v-20.821h6.157v20.821zm-13.442-3.478q.893.093 1.927.188 1.034.094 1.927.094h25.991q.987 0 1.88-.094a20 20 0 0 1 1.692-.188v6.157a13.5 13.5 0 0 0-1.88-.188 40 40 0 0 0-1.692-.047h-25.991q-.846 0-1.88.047t-1.974.188zm53.862-16.873q.846.047 2.162.141l2.726.094q1.457.047 2.679.047h25.239q1.645 0 3.102-.094 1.457-.141 2.397-.188v7.379l-2.397-.141a53 53 0 0 0-3.102-.094h-25.239q-2.02 0-4.136.094-2.115.047-3.431.141zm61.062-13.959q1.222.846 2.867 2.068a73 73 0 0 1 3.384 2.679 82 82 0 0 1 3.337 2.773q1.551 1.362 2.538 2.444l-4.794 4.888q-.893-.988-2.35-2.35a102 102 0 0 0-3.149-2.82 118 118 0 0 0-3.337-2.773 60 60 0 0 0-2.914-2.209zm-5.875 31.302a50 50 0 0 0 6.909-1.457 48 48 0 0 0 6.016-2.162 55 55 0 0 0 5.076-2.538 45.5 45.5 0 0 0 7.332-5.452q3.337-3.055 5.828-6.345 2.491-3.338 3.948-6.486l3.666 6.627q-1.786 3.148-4.418 6.298a50.6 50.6 0 0 1-5.875 6.016 50 50 0 0 1-7.097 5.076 57 57 0 0 1-5.17 2.773 52 52 0 0 1-5.875 2.256 41.5 41.5 0 0 1-6.392 1.598zm78.725-27.777a146 146 0 0 1-1.222 7.614 74 74 0 0 1-2.021 8.178q-1.363 4.746-3.196 8.178-1.833 3.43-4.042 5.311-2.162 1.833-4.747 1.833t-4.794-1.739q-2.162-1.786-3.478-4.888-1.269-3.102-1.269-7.05 0-4.09 1.645-7.708a20.4 20.4 0 0 1 4.559-6.392q2.96-2.82 6.862-4.418 3.948-1.599 8.507-1.598 4.37 0 7.849 1.41 3.525 1.41 6.016 3.901a16.9 16.9 0 0 1 3.807 5.828q1.316 3.336 1.316 7.191 0 4.935-2.021 8.836-2.021 3.9-6.016 6.439-3.948 2.538-9.87 3.478l-3.525-5.593a32 32 0 0 0 2.397-.329 32 32 0 0 0 1.974-.423 18 18 0 0 0 4.183-1.598 13.7 13.7 0 0 0 3.431-2.632 11.5 11.5 0 0 0 2.256-3.713q.846-2.115.846-4.653 0-2.773-.846-5.076a11.2 11.2 0 0 0-2.491-3.995q-1.645-1.74-3.995-2.632-2.35-.94-5.405-.94-3.76 0-6.627 1.363-2.867 1.316-4.841 3.431t-3.008 4.559q-.987 2.444-.987 4.653 0 2.349.564 3.948.564 1.55 1.363 2.35.846.752 1.786.752.987 0 1.927-.987.987-1.035 1.927-3.102t1.88-5.217a64 64 0 0 0 1.833-7.238q.752-3.854 1.081-7.52zm42.629 5.734h5.875v22.419q0 1.738.423 2.209.47.423 2.162.423h6.439q1.128 0 1.692-.658.61-.706.893-2.632.282-1.927.423-5.593.987.752 2.538 1.457 1.551.657 2.726.987-.282 4.37-1.034 6.956-.752 2.538-2.35 3.572-1.598 1.08-4.465 1.081h-7.614q-3.008 0-4.7-.752-1.645-.705-2.35-2.397-.658-1.692-.658-4.653zm.141-8.93 3.666-4.371a55 55 0 0 1 5.734 2.397 91 91 0 0 1 5.546 2.914q2.633 1.504 4.512 2.914l-3.713 4.935q-1.833-1.504-4.465-3.102a66 66 0 0 0-5.546-3.149 50 50 0 0 0-5.734-2.538m-8.601 12.267 5.499 1.128a104 104 0 0 1-.893 6.627 45 45 0 0 1-1.551 6.439q-.987 3.007-2.585 5.311l-5.264-3.055q1.41-2.022 2.35-4.653a41 41 0 0 0 1.551-5.64q.61-3.009.893-6.157m27.025.705 5.17-2.538a48 48 0 0 1 3.76 5.593 50 50 0 0 1 2.961 5.969q1.269 2.96 1.833 5.405l-5.687 2.82q-.47-2.397-1.645-5.405a56 56 0 0 0-2.82-6.157 44 44 0 0 0-3.572-5.687m29.234-15.886h8.037v5.123h-8.037zm-.376 10.763h8.366v5.076h-8.366zm-.047 10.951h8.413v5.217h-8.413zm-1.551-21.714h4.559v17.202q0 2.772-.094 6.11a101 101 0 0 1-.423 6.721 75 75 0 0 1-.846 6.674q-.518 3.195-1.41 5.828-.423-.33-1.222-.799a68 68 0 0 0-1.551-.846 11 11 0 0 0-1.41-.564q.846-2.492 1.316-5.405.518-2.961.705-6.016.236-3.102.282-6.11.094-3.009.094-5.546zm7.144 0h4.7v36.848q0 1.692-.329 2.82a3 3 0 0 1-1.222 1.786q-.94.657-2.209.846t-3.102.188q-.046-1.034-.423-2.585-.376-1.504-.846-2.491.94.047 1.739.047h1.081q.61 0 .611-.705zm6.016 1.692h28.341v4.653h-28.341zm7.802 31.913h9.353v3.29h-9.353zm-5.546-22.372h26.602v4.653h-26.602zm3.619-12.784h5.029v10.951h-5.029zm10.199 0h5.123v10.951h-5.123zm-4.512 21.056h2.82v5.452h-2.82zm0 10.528h2.82v5.076h-2.82zm-10.904-18.8h4.559v9.964a99 99 0 0 1-.141 5.076 92 92 0 0 1-.376 5.64 53 53 0 0 1-.846 5.593q-.518 2.725-1.41 5.029-.423-.33-1.222-.799a68 68 0 0 0-1.551-.846 11 11 0 0 0-1.41-.564q1.128-2.868 1.598-6.251.517-3.384.658-6.768t.141-6.11zm5.734 6.439h10.387v3.337h-7.191v17.954h-3.196zm1.269 5.17h9.118v8.695h-9.118v-3.29h5.734v-2.115h-5.734zm9.541-13.724h4.559q.047 5.592.376 10.575.329 4.981.846 8.836.517 3.854 1.175 6.11.705 2.209 1.504 2.209.376 0 .658-1.222t.423-3.384q.564.752 1.598 1.551 1.034.751 1.645 1.081-.518 3.007-1.269 4.606-.705 1.644-1.504 2.256-.8.658-1.645.658-2.21 0-3.76-2.585-1.551-2.538-2.538-7.05-.94-4.56-1.41-10.575a260 260 0 0 1-.658-13.066m4.841-1.128 3.055-1.88a16.4 16.4 0 0 1 2.115 1.88q1.034 1.08 1.598 1.974l-3.243 2.068q-.47-.893-1.504-2.021a20.5 20.5 0 0 0-2.021-2.021m2.538 10.293 4.23 1.786q-1.645 7.426-4.982 13.207-3.338 5.734-7.614 9.118a20 20 0 0 0-1.457-1.504q-.893-.847-1.692-1.363 4.043-3.102 7.05-8.554 3.055-5.499 4.465-12.69"/><path fill="#010101" d="M417.82 28.727h-23.489v23.55h23.489zM303.615 28.727h-23.49v23.55h23.49zM337.235 52.278h23.489v-23.55h-23.501v23.55zM332.168 0h-23.489v80.993h23.489zM365.778 28.727v52.266h23.501V0h-23.501zM360.724 57.344h-23.489v52.277h23.489z"/></svg>