<svg width="705" height="304" viewBox="0 0 705 304" fill="none" xmlns="http://www.w3.org/2000/svg">
<g clip-path="url(#clip0_181_162)">
<path d="M126.978 304V176.377H161.497V224.859H207.287V176.377H241.806V304H207.287V252.277H161.497V304H126.978ZM322.454 304V176.377H360.036L390.359 226.479C392.94 230.742 395.389 235.084 397.702 239.499C399.985 243.834 402.182 248.624 404.323 253.84C406.463 259.071 408.632 265.154 410.858 272.133H407.867C407.583 267.514 407.229 262.155 406.803 256.072C406.384 250.081 406.001 244.088 405.655 238.092C405.315 232.179 405.145 227.204 405.145 223.139V176.377H440.685V304H403.103L374.822 257.408C371.632 252.092 368.825 247.146 366.401 242.541C363.977 237.95 361.652 233.074 359.398 227.943C356.806 222.014 354.231 216.077 351.672 210.134H355.258C355.712 216.132 356.151 222.102 356.577 228.029C357.002 233.97 357.342 239.485 357.597 244.559C357.852 249.647 357.98 253.926 357.98 257.408V304H322.44H322.454ZM299.39 176.377H264.871V304H299.39V176.377ZM683.229 141V160.87H610.192V141H683.229ZM683.158 176.377H589.31V304H704.124V176.377H683.158ZM623.815 276.582V203.795H669.605V276.582H623.815ZM104.054 303.999H0.17V276.581H36.22C42.77 276.581 49.3337 276.638 55.911 276.752C62.489 276.866 69.0813 277.264 75.688 277.946L73.547 288.563C68.657 283.361 63.822 278.173 59.073 272.971C54.324 267.769 50 262.581 46.13 257.379L0 195.536V176.348H103.884V203.794H64.928C58.832 203.794 52.736 203.737 46.64 203.624C40.5292 203.508 34.427 203.11 28.353 202.43L30.493 191.784C35.214 196.759 39.878 201.733 44.457 206.737C49.05 211.74 53.19 216.714 56.89 221.689L104.04 284.811V303.999H104.054ZM463.767 303.999V284.811L510.917 221.689C514.617 216.714 518.757 211.74 523.35 206.737C527.929 201.733 532.593 196.759 537.314 191.784L539.454 202.43C533.38 203.11 527.278 203.508 521.167 203.624C515.072 203.737 508.975 203.794 502.879 203.794H463.923V176.348H567.807V195.536L521.677 257.379C517.807 262.581 513.483 267.769 508.734 272.971C503.948 278.204 499.123 283.401 494.26 288.563L492.119 277.946C498.691 277.267 505.289 276.868 511.895 276.752C518.473 276.638 525.037 276.581 531.586 276.581H567.637V303.999H463.752H463.767Z" fill="white"/>
<path d="M82.9691 218.379C83.3758 218.974 83.7987 219.648 84.2381 220.4C84.7081 221.152 85.1468 221.904 85.5541 222.656C85.9608 223.376 86.3054 224.018 86.5881 224.583L82.6401 226.228C82.297 225.545 81.9365 224.871 81.5591 224.207C81.1761 223.473 80.7685 222.752 80.3371 222.045C79.9575 221.34 79.5499 220.65 79.1151 219.977L82.9691 218.379ZM89.5491 217.204C90.0093 217.847 90.4482 218.506 90.8651 219.178C91.3351 219.93 91.7894 220.682 92.2281 221.434C92.6674 222.186 93.0274 222.844 93.3081 223.408L89.4081 225.1C88.8098 224.012 88.1987 222.931 87.5751 221.857C86.9923 220.787 86.3489 219.752 85.6481 218.755L89.5491 217.204ZM87.8571 227.262C87.6371 227.7 87.4334 228.233 87.2461 228.86C87.0888 229.455 86.9477 230.003 86.8231 230.505C86.5021 231.812 86.1574 233.112 85.7891 234.406C85.3835 235.904 84.8971 237.379 84.3321 238.824C83.7564 240.385 83.0813 241.908 82.3111 243.383C81.5717 244.864 80.7069 246.279 79.7261 247.613C78.2725 249.538 76.6181 251.302 74.7911 252.877C72.9424 254.506 70.8431 255.979 68.4931 257.295C66.1744 258.611 63.6208 259.723 60.8321 260.632L55.7091 254.992C58.8424 254.239 61.5371 253.315 63.7931 252.219C66.0797 251.122 68.0537 249.869 69.7151 248.459C71.3273 247.098 72.8067 245.588 74.1331 243.947C75.1739 242.62 76.0719 241.186 76.8121 239.67C77.5435 238.185 78.1564 236.645 78.6451 235.064C79.1151 233.497 79.4441 232.04 79.6321 230.693H57.7771C56.6804 230.693 55.6304 230.709 54.6271 230.74C53.8114 230.76 52.9966 230.807 52.1841 230.881V224.254C52.6541 224.316 53.2181 224.379 53.8761 224.442C54.5661 224.504 55.2554 224.551 55.9441 224.583C56.6641 224.614 57.2751 224.63 57.7771 224.63H79.5381C80.0081 224.63 80.5721 224.614 81.2301 224.583C81.8991 224.554 82.562 224.444 83.2041 224.254L87.8571 227.262ZM109.618 224.677C110.589 224.708 111.498 224.739 112.344 224.771H142.565L145.103 224.677C145.072 225.397 145.04 226.165 145.009 226.98V254.052C145.04 254.741 145.056 255.446 145.056 256.167V258C145.087 258.501 145.103 258.767 145.103 258.799H138.617V257.671C138.648 256.95 138.664 256.104 138.664 255.133C138.695 254.161 138.711 253.252 138.711 252.407V230.74H116.01V256.355C116.041 257.013 116.057 257.561 116.057 258V258.799H109.571V258C109.605 257.421 109.621 256.841 109.618 256.261C109.649 255.571 109.665 254.866 109.665 254.146C109.695 253.504 109.71 252.862 109.712 252.219V226.98C109.712 226.102 109.681 225.334 109.618 224.677ZM141.061 250.245V256.261H112.814V250.245H141.061ZM183.831 230.082C184.05 230.583 184.332 231.304 184.677 232.244C185.053 233.152 185.445 234.139 185.852 235.205C186.239 236.182 186.599 237.17 186.933 238.166C187.246 239.106 187.497 239.842 187.685 240.375L182.045 242.349C181.92 241.753 181.7 241.001 181.387 240.093C181.074 239.184 180.729 238.228 180.353 237.226C179.993 236.233 179.617 235.246 179.225 234.265C178.912 233.475 178.583 232.691 178.238 231.915L183.831 230.082ZM201.174 233.513C200.923 234.265 200.704 234.907 200.516 235.44C200.368 235.944 200.212 236.446 200.046 236.944C199.429 239.388 198.611 241.778 197.602 244.088C196.561 246.45 195.235 248.675 193.654 250.715C191.461 253.535 188.97 255.932 186.181 257.906C183.424 259.849 180.666 261.337 177.909 262.371L172.974 257.342C174.697 256.871 176.515 256.182 178.426 255.274C180.372 254.313 182.228 253.181 183.972 251.89C185.758 250.574 187.293 249.117 188.578 247.519C189.643 246.171 190.583 244.636 191.398 242.913C192.26 241.117 192.952 239.245 193.466 237.32C194.03 235.314 194.406 233.34 194.594 231.398L201.174 233.513ZM172.927 232.573C173.24 233.168 173.585 233.936 173.961 234.876C174.368 235.816 174.776 236.803 175.183 237.837C175.59 238.87 175.981 239.873 176.358 240.845C176.765 241.816 177.079 242.631 177.298 243.289L171.564 245.451C171.308 244.628 171.026 243.812 170.718 243.007C170.352 241.948 169.961 240.898 169.543 239.858C169.139 238.816 168.716 237.782 168.274 236.756C167.898 235.816 167.569 235.095 167.287 234.594L172.927 232.573ZM258.749 228.766C258.498 229.204 258.232 229.737 257.95 230.364C257.668 230.959 257.417 231.554 257.198 232.15C256.791 233.529 256.212 235.111 255.459 236.897C254.738 238.651 253.83 240.484 252.733 242.396C251.644 244.31 250.402 246.133 249.02 247.848C246.764 250.542 244.132 252.986 241.124 255.18C238.147 257.373 234.45 259.347 230.032 261.102L224.486 256.12C227.682 255.18 230.439 254.099 232.758 252.877C235.077 251.654 237.098 250.354 238.821 248.976C240.483 247.624 242.024 246.13 243.427 244.511C244.563 243.235 245.571 241.849 246.435 240.375C247.312 238.873 248.097 237.319 248.785 235.722C249.443 234.186 249.882 232.839 250.101 231.68H234.262L236.424 226.369H249.866C250.587 226.369 251.307 226.322 252.028 226.228C252.78 226.134 253.422 225.993 253.955 225.805L258.749 228.766ZM243.427 221.34C242.84 222.193 242.291 223.071 241.782 223.972C241.249 224.912 240.841 225.633 240.56 226.134C239.495 228.014 238.179 229.972 236.612 232.009C235.005 234.095 233.245 236.058 231.348 237.884C229.379 239.761 227.274 241.489 225.05 243.054L219.739 239.153C221.807 237.868 223.624 236.552 225.191 235.205C226.789 233.857 228.168 232.525 229.327 231.21C230.486 229.862 231.473 228.577 232.288 227.356C233.033 226.259 233.754 225.147 234.45 224.019C234.826 223.424 235.218 222.656 235.625 221.716C235.991 220.859 236.305 219.98 236.565 219.084L243.427 221.34ZM280.087 224.254H284.646C286.495 224.222 288.437 224.159 290.474 224.066C292.361 223.955 294.243 223.767 296.114 223.502C297.279 223.349 298.439 223.161 299.592 222.938C300.751 222.718 301.848 222.499 302.882 222.28C303.849 222.057 304.806 221.79 305.749 221.481C306.496 221.246 307.233 220.979 307.958 220.682L311.812 225.852C310.997 226.04 310.292 226.212 309.697 226.369C309.102 226.525 308.6 226.65 308.193 226.745C307.222 226.995 306.172 227.246 305.044 227.497C303.916 227.716 302.757 227.92 301.566 228.108C300.375 228.296 299.169 228.484 297.947 228.672C296.059 228.932 294.162 229.12 292.26 229.236C290.255 229.361 288.312 229.471 286.432 229.565C284.552 229.627 282.923 229.674 281.544 229.706L280.087 224.254ZM282.108 256.637C284.865 255.384 287.121 253.864 288.876 252.078C290.662 250.26 291.978 248.176 292.824 245.827C293.701 243.445 294.14 240.782 294.14 237.837V228.155L300.297 227.45V237.743C300.297 240.876 299.905 243.853 299.122 246.673C298.369 249.495 297.076 252.145 295.315 254.475C293.528 256.825 291.116 258.909 288.077 260.726L282.108 256.637ZM276.562 235.487C277.22 235.549 277.925 235.612 278.677 235.675C279.429 235.738 280.165 235.769 280.886 235.769H312.141C312.486 235.769 312.924 235.753 313.457 235.722L315.055 235.628C315.509 235.576 315.963 235.529 316.418 235.487V241.55C315.73 241.483 315.041 241.436 314.35 241.409C313.661 241.378 312.972 241.363 312.282 241.362H280.98C280.259 241.362 279.492 241.378 278.677 241.409C277.862 241.44 277.157 241.487 276.562 241.55V235.487ZM338.555 232.526C339.088 232.619 339.714 232.682 340.435 232.714C341.156 232.745 341.767 232.761 342.268 232.761H363.794C364.358 232.761 364.969 232.745 365.627 232.714C366.241 232.687 366.853 232.624 367.46 232.526V238.448C366.835 238.383 366.208 238.336 365.58 238.307C364.985 238.277 364.39 238.261 363.794 238.26H342.268C341.767 238.26 341.156 238.276 340.435 238.307C339.714 238.338 339.088 238.385 338.555 238.448V232.526ZM349.6 256.59V235.769H355.757V256.59H349.6ZM336.158 253.112C336.753 253.174 337.396 253.237 338.085 253.3C338.774 253.363 339.417 253.394 340.012 253.394H366.003C366.661 253.394 367.288 253.363 367.883 253.3C368.444 253.213 369.009 253.151 369.575 253.112V259.269C368.954 259.163 368.325 259.1 367.695 259.081C367.131 259.054 366.567 259.038 366.003 259.034H340.012C339.448 259.034 338.821 259.05 338.132 259.081C337.443 259.112 336.785 259.175 336.158 259.269V253.112ZM390.02 236.239C390.584 236.27 391.305 236.317 392.182 236.38L394.908 236.474C395.879 236.505 396.772 236.521 397.587 236.521H422.826C423.923 236.521 424.957 236.49 425.928 236.427C426.899 236.333 427.698 236.27 428.325 236.239V243.618L425.928 243.477C424.895 243.416 423.861 243.384 422.826 243.383H397.587C396.24 243.383 394.862 243.414 393.451 243.477C392.041 243.508 390.897 243.555 390.02 243.618V236.239ZM451.082 222.28C451.897 222.844 452.852 223.533 453.949 224.348C455.103 225.208 456.232 226.101 457.333 227.027C458.47 227.922 459.582 228.847 460.67 229.8C461.704 230.708 462.55 231.523 463.208 232.244L458.414 237.132C457.819 236.473 457.035 235.69 456.064 234.782C455.034 233.82 453.984 232.88 452.915 231.962C451.82 231.017 450.707 230.093 449.578 229.189C448.629 228.423 447.658 227.687 446.664 226.98L451.082 222.28ZM445.207 253.582C447.542 253.26 449.85 252.773 452.116 252.125C454.167 251.539 456.177 250.817 458.132 249.963C459.867 249.205 461.561 248.358 463.208 247.425C465.829 245.858 468.285 244.032 470.54 241.973C472.765 239.936 474.707 237.821 476.368 235.628C478.029 233.403 479.345 231.241 480.316 229.142L483.982 235.769C482.791 237.868 481.319 239.967 479.564 242.067C477.776 244.232 475.811 246.244 473.689 248.083C471.476 249.979 469.101 251.677 466.592 253.159C464.918 254.172 463.192 255.097 461.422 255.932C459.511 256.802 457.549 257.555 455.547 258.188C453.462 258.889 451.325 259.424 449.155 259.786L445.207 253.582ZM523.932 225.805C523.592 228.353 523.184 230.892 522.71 233.419C522.192 236.181 521.518 238.912 520.689 241.597C519.78 244.761 518.715 247.487 517.493 249.775C516.271 252.062 514.924 253.832 513.451 255.086C512.01 256.308 510.427 256.919 508.704 256.919C506.981 256.919 505.383 256.339 503.91 255.18C502.469 253.989 501.309 252.36 500.432 250.292C499.586 248.224 499.163 245.874 499.163 243.242C499.163 240.515 499.711 237.946 500.808 235.534C501.9 233.128 503.448 230.957 505.367 229.142C507.34 227.262 509.628 225.789 512.229 224.724C514.861 223.658 517.697 223.125 520.736 223.126C523.649 223.126 526.266 223.596 528.585 224.536C530.935 225.476 532.94 226.776 534.601 228.437C536.261 230.095 537.557 232.079 538.408 234.265C539.285 236.489 539.724 238.886 539.724 241.456C539.724 244.746 539.05 247.691 537.703 250.292C536.356 252.892 534.35 255.038 531.687 256.731C529.055 258.423 525.765 259.582 521.817 260.209L518.292 254.616C519.095 254.537 519.895 254.427 520.689 254.287C521.351 254.167 522.01 254.026 522.663 253.864C524.119 253.508 525.524 252.971 526.846 252.266C528.122 251.576 529.28 250.688 530.277 249.634C531.258 248.551 532.024 247.291 532.533 245.921C533.097 244.511 533.379 242.96 533.379 241.268C533.379 239.419 533.097 237.727 532.533 236.192C531.995 234.699 531.146 233.337 530.042 232.197C528.945 231.037 527.614 230.16 526.047 229.565C524.48 228.938 522.679 228.625 520.642 228.625C518.135 228.625 515.926 229.079 514.015 229.988C512.104 230.865 510.49 232.009 509.174 233.419C507.858 234.829 506.855 236.349 506.166 237.978C505.508 239.607 505.179 241.158 505.179 242.631C505.179 244.197 505.367 245.513 505.743 246.579C506.119 247.612 506.573 248.396 507.106 248.929C507.67 249.43 508.265 249.681 508.892 249.681C509.55 249.681 510.192 249.352 510.819 248.694C511.477 248.004 512.119 246.97 512.746 245.592C513.373 244.214 513.999 242.475 514.626 240.375C515.377 238 515.989 235.583 516.459 233.137C516.96 230.568 517.321 228.061 517.54 225.617L523.932 225.805ZM566.561 231.539H572.436V253.958C572.436 255.117 572.577 255.853 572.859 256.167C573.172 256.449 573.893 256.59 575.021 256.59H581.46C582.212 256.59 582.776 256.371 583.152 255.932C583.559 255.461 583.856 254.584 584.045 253.3C584.233 252.015 584.374 250.151 584.468 247.707C585.126 248.208 585.972 248.694 587.006 249.164C588.04 249.602 588.949 249.931 589.732 250.151C589.544 253.064 589.199 255.383 588.698 257.107C588.197 258.799 587.413 259.99 586.348 260.679C585.283 261.399 583.794 261.759 581.883 261.76H574.269C572.264 261.76 570.697 261.509 569.569 261.008C568.472 260.538 567.689 259.739 567.219 258.611C566.78 257.483 566.561 255.932 566.561 253.958V231.539ZM566.702 222.609L570.368 218.238C572.323 218.928 574.237 219.729 576.102 220.635C577.984 221.542 579.833 222.514 581.648 223.549C583.403 224.552 584.907 225.523 586.16 226.463L582.447 231.398C581.225 230.395 579.737 229.361 577.982 228.296C576.185 227.158 574.334 226.107 572.436 225.147C570.58 224.182 568.665 223.334 566.702 222.609ZM558.101 234.876L563.6 236.004C563.374 238.222 563.076 240.432 562.707 242.631C562.349 244.813 561.831 246.965 561.156 249.07C560.498 251.075 559.636 252.845 558.571 254.381L553.307 251.326C554.247 249.978 555.03 248.427 555.657 246.673C556.308 244.832 556.826 242.948 557.208 241.033C557.615 239.027 557.912 236.975 558.101 234.876ZM585.126 235.581L590.296 233.043C591.679 234.817 592.935 236.686 594.056 238.636C595.175 240.558 596.164 242.552 597.017 244.605C597.863 246.578 598.474 248.38 598.85 250.01L593.163 252.83C592.85 251.232 592.301 249.43 591.518 247.425C590.703 245.318 589.761 243.262 588.698 241.268C587.654 239.284 586.46 237.383 585.126 235.581ZM614.36 219.695H622.397V224.818H614.36V219.695ZM613.984 230.458H622.35V235.534H613.984V230.458ZM613.937 241.409H622.35V246.626H613.937V241.409ZM612.386 219.695H616.945V236.897C616.945 238.745 616.914 240.782 616.851 243.007C616.785 245.252 616.644 247.493 616.428 249.728C616.246 251.964 615.964 254.191 615.582 256.402C615.237 258.532 614.767 260.475 614.172 262.23C613.89 262.01 613.483 261.744 612.95 261.431C612.437 261.142 611.92 260.86 611.399 260.585C610.943 260.365 610.472 260.176 609.989 260.021C610.553 258.36 610.992 256.558 611.305 254.616C611.65 252.642 611.885 250.637 612.01 248.6C612.167 246.532 612.261 244.495 612.292 242.49C612.355 240.484 612.386 238.635 612.386 236.944V219.695ZM619.53 219.695H624.23V256.543C624.23 257.671 624.12 258.611 623.901 259.363C623.73 260.09 623.294 260.727 622.679 261.149C622.052 261.587 621.316 261.869 620.47 261.995C619.624 262.121 618.59 262.184 617.368 262.183C617.337 261.494 617.196 260.632 616.945 259.598C616.694 258.595 616.412 257.765 616.099 257.107C616.726 257.138 617.305 257.154 617.838 257.154H618.919C619.326 257.154 619.529 256.919 619.53 256.449V219.695ZM625.546 221.387H653.887V226.04H625.546V221.387ZM633.348 253.3H642.701V256.59H633.348V253.3ZM627.802 230.928H654.404V235.581H627.802V230.928ZM631.421 218.144H636.45V229.095H631.421V218.144ZM641.62 218.144H646.743V229.095H641.62V218.144ZM637.108 239.2H639.928V244.652H637.108V239.2ZM637.108 249.728H639.928V254.804H637.108V249.728ZM626.204 230.928H630.763V240.892C630.759 242.585 630.712 244.278 630.622 245.968C630.555 247.852 630.429 249.732 630.246 251.608C630.064 253.486 629.781 255.353 629.4 257.201C629.055 259.018 628.585 260.694 627.99 262.23C627.708 262.01 627.301 261.744 626.768 261.431C626.255 261.142 625.738 260.86 625.217 260.585C624.761 260.365 624.289 260.176 623.807 260.021C624.559 258.109 625.092 256.025 625.405 253.77C625.75 251.514 625.969 249.258 626.063 247.002C626.157 244.746 626.204 242.709 626.204 240.892V230.928ZM631.938 237.367H642.325V240.704H635.134V258.658H631.938V237.367ZM633.207 242.537H642.325V251.232H633.207V247.942H638.941V245.827H633.207V242.537ZM642.748 228.813H647.307C647.338 232.541 647.464 236.066 647.683 239.388C647.902 242.709 648.184 245.654 648.529 248.224C648.874 250.793 649.265 252.83 649.704 254.334C650.174 255.807 650.675 256.543 651.208 256.543C651.459 256.543 651.678 256.136 651.866 255.321C652.054 254.506 652.195 253.378 652.289 251.937C652.665 252.438 653.198 252.955 653.887 253.488C654.576 253.989 655.125 254.349 655.532 254.569C655.187 256.574 654.764 258.109 654.263 259.175C653.793 260.271 653.292 261.023 652.759 261.431C652.226 261.87 651.677 262.089 651.114 262.089C649.641 262.089 648.387 261.227 647.354 259.504C646.32 257.812 645.474 255.462 644.816 252.454C644.189 249.414 643.719 245.889 643.406 241.879C643.077 237.53 642.858 233.173 642.748 228.813ZM647.589 227.685L650.644 225.805C651.402 226.37 652.11 226.999 652.759 227.685C653.448 228.405 653.981 229.063 654.357 229.659L651.114 231.727C650.801 231.132 650.299 230.458 649.61 229.706C648.984 228.986 648.309 228.311 647.589 227.685ZM650.127 237.978L654.357 239.764C653.26 244.715 651.6 249.117 649.375 252.971C647.15 256.794 644.612 259.833 641.761 262.089C641.302 261.563 640.816 261.061 640.304 260.585C639.709 260.02 639.145 259.566 638.612 259.222C641.307 257.154 643.657 254.303 645.662 250.668C647.699 247.002 649.187 242.772 650.127 237.978Z" fill="#D01F27"/>
<path d="M417.82 28.727H394.331V52.277H417.82V28.727ZM303.615 28.727H280.125V52.277H303.615V28.727ZM337.235 52.278H360.724V28.728H337.223V52.278H337.235ZM332.168 0H308.679V80.993H332.168V0ZM365.778 28.727V80.993H389.279V0H365.778V28.727ZM360.724 57.344H337.235V109.621H360.724V57.344Z" fill="white"/>
</g>
<defs>
<clipPath id="clip0_181_162">
<rect width="705" height="304" fill="white"/>
</clipPath>
</defs>
</svg>
