<svg width="157" height="29" viewBox="0 0 157 29" fill="none" xmlns="http://www.w3.org/2000/svg">
<g clip-path="url(#clip0_505_21)">
<mask id="mask0_505_21" style="mask-type:luminance" maskUnits="userSpaceOnUse" x="0" y="0" width="157" height="29">
<path d="M156.326 0H0V28.3123H156.326V0Z" fill="white"/>
</mask>
<g mask="url(#mask0_505_21)">
<path d="M27.8437 11.9541H23.0938V16.7164H27.8437V11.9541Z" fill="white"/>
<path d="M4.7499 11.9541H0V16.7164H4.7499V11.9541Z" fill="white"/>
<path d="M11.5484 16.7164H16.2983V11.9541H11.5459V16.7164H11.5484Z" fill="white"/>
<path d="M10.5238 6.14453H5.77393V22.5227H10.5238V6.14453Z" fill="white"/>
<path d="M17.3198 11.9537V22.5227H22.0722V6.14453H17.3198V11.9537Z" fill="white"/>
<path d="M17.3198 11.9537V22.5227H22.0722V6.14453H17.3198V11.9537Z" fill="white"/>
<path d="M16.2982 17.7402H11.5483V28.3117H16.2982V17.7402Z" fill="white"/>
<path d="M56.0776 28.312V6.14453H62.0735V14.5657H70.0269V6.14453H76.0228V28.312H70.0269V19.328H62.0735V28.312H56.0776Z" fill="white"/>
<path d="M90.0308 28.312V6.14453H96.5585L101.826 14.8471C102.281 15.6001 102.707 16.3556 103.101 17.1086C103.497 17.8616 103.879 18.6935 104.251 19.5996C104.623 20.5081 104.999 21.5648 105.386 22.777H104.867C104.817 21.9746 104.756 21.0438 104.682 19.9872C104.608 18.9305 104.542 17.8887 104.482 16.8642C104.423 15.8371 104.394 14.973 104.394 14.267V6.14453H110.567V28.312H104.039L99.1268 20.2193C98.5727 19.2959 98.0852 18.4368 97.6641 17.6369C97.2431 16.8395 96.8392 15.9927 96.4477 15.1014C96.0562 14.2077 95.6105 13.1782 95.1057 12.008H95.7287C95.8075 13.0498 95.8838 14.0867 95.9577 15.1162C96.0316 16.1482 96.0907 17.1061 96.135 17.9875C96.1793 18.8713 96.2015 19.6144 96.2015 20.2193V28.312H90.0283H90.0308Z" fill="white"/>
<path d="M86.0251 6.14453H80.0293V28.312H86.0251V6.14453Z" fill="white"/>
<path d="M152.695 0V3.4514H140.009V0H152.695Z" fill="white"/>
<path d="M152.684 6.14453H136.383V28.312H156.326V6.14453H152.684ZM142.376 23.5497V10.9069H150.33V23.5497H142.376Z" fill="white"/>
<path d="M52.0967 28.3121H34.0526V23.5497H40.3144C41.452 23.5497 42.5921 23.5596 43.7346 23.5794C44.8772 23.5991 46.0221 23.6682 47.1695 23.7867L46.7977 25.6309C45.9482 24.7274 45.1085 23.8262 44.2836 22.9227C43.4587 22.0191 42.7077 21.118 42.0355 20.2144L34.0229 9.47255V6.13965H52.0672V10.907H45.3006C44.2418 10.907 43.1829 10.8971 42.1241 10.8773C41.0653 10.8576 40.0066 10.7885 38.9478 10.67L39.3195 8.82078C40.1395 9.68486 40.9496 10.549 41.7449 11.418C42.5427 12.287 43.2617 13.1511 43.9044 14.0152L52.0942 24.9792V28.3121H52.0967Z" fill="white"/>
<path d="M114.576 28.3121V24.9792L122.766 14.0152C123.409 13.1511 124.128 12.287 124.926 11.418C125.721 10.549 126.531 9.68486 127.351 8.82078L127.723 10.67C126.664 10.7885 125.605 10.8576 124.546 10.8773C123.487 10.8971 122.429 10.907 121.37 10.907H114.603V6.13965H132.647V9.47255L124.635 20.2144C123.963 21.118 123.212 22.0191 122.387 22.9227C121.562 23.8262 120.722 24.7274 119.873 25.6309L119.501 23.7867C120.648 23.6682 121.793 23.5991 122.936 23.5794C124.078 23.5596 125.219 23.5497 126.356 23.5497H132.618V28.3121H114.574H114.576Z" fill="white"/>
</g>
</g>
<defs>
<clipPath id="clip0_505_21">
<rect width="157" height="29" fill="white"/>
</clipPath>
</defs>
</svg>
