<svg width="34" height="247" viewBox="0 0 34 247" fill="none" xmlns="http://www.w3.org/2000/svg">
<path d="M20.0802 10.6801C20.0802 10.3604 20.0402 10.3604 19.7998 10.3604C19.4801 10.3604 18.48 10.6003 17.9199 10.7205C16.1203 11.1205 13.9999 11.5605 12.32 12.0802C11.6795 12.2802 10.6001 12.6 9.83997 13.1202C9.15962 13.5601 8.75958 13.8399 8.08024 13.8399C7.12057 13.8399 6.08009 13.1601 5.24012 12.3201C4.32035 11.4004 3.52029 10.3205 3.52029 9.48002C3.52029 9.19969 3.5602 8.87997 3.64 8.51985C3.72031 8.24003 3.84001 8.11981 4.00013 8.11981C4.12034 8.11981 4.28045 8.20012 4.40016 8.31983C4.9603 8.75976 5.52045 9.00019 5.88058 9.1997C6.44021 9.48002 7.00036 9.55982 7.4807 9.55982C7.92063 9.55982 8.96061 9.44012 10.0001 9.28C12.4801 8.87997 15.3202 8.35973 17.6002 7.8799C19.2402 7.56018 19.4806 7.40006 20.0802 6.76011C20.5201 6.32018 20.8004 6.19997 21.2004 6.19997C21.8404 6.19997 23.2001 6.76011 24.48 7.72029C25.7599 8.60015 26.9201 9.60023 26.9201 10.6003C26.9201 11.0402 26.8403 11.3201 26.2397 11.8004C25.28 12.4403 25.2401 12.6803 24.8401 13.8804C22.5601 20.4405 19.4407 25.0802 15.2005 28.6406C11.7199 31.5206 7.16047 33.4803 2.44041 34.3203C2.19999 34.3602 2.00048 34.4006 1.84037 34.4006C1.64035 34.4006 1.56055 34.3203 1.56055 34.1602C1.56055 34.0804 1.64035 33.9602 1.80046 33.8804C5.80077 32.0004 9.40054 29.2805 12.4806 25.8404C15.6409 22.2002 18.1608 17.5604 19.6008 12.8409C19.8008 12.1206 20.0807 11.161 20.0807 10.6806L20.0802 10.6801ZM28.8803 3.84019C29.8001 4.40034 30.4001 5.1605 30.4001 6.08026C30.4001 7.07984 29.6804 7.8799 28.8404 7.8799C28.2803 7.8799 27.7999 7.63998 27.3201 6.80002C26.3604 5.08019 25.3598 4.12001 24.1603 3.40026C23.9602 3.32046 23.8799 3.20025 23.8799 3.08054C23.8799 2.96083 23.9996 2.84062 24.28 2.84062C26.2397 2.80021 27.7999 3.20025 28.8798 3.84019H28.8803ZM28.9202 0C30.4001 0 31.48 0.239917 32.32 0.639948C33.36 1.16019 33.9999 2.00015 33.9999 2.91992C33.9999 3.8801 33.3999 4.59985 32.5998 4.59985C32.0801 4.59985 31.68 4.43973 31.0401 3.51997C29.9198 1.95975 29.0399 1.23999 27.7201 0.600046C27.5201 0.520242 27.4398 0.400031 27.4398 0.280325C27.4398 0.160618 27.56 0.0803092 27.7999 0.0404071C28.2 0 28.5601 0 28.9202 0Z" fill="#D01F27"/>
<path d="M10.7205 59.202C10.7205 60.642 10.0002 61.3219 9.04055 61.3219C8.24049 61.3219 7.32072 61.0017 6.68077 59.9218C6.28074 59.1217 5.64029 58.0817 5.64029 56.8817C5.64029 56.4417 5.60039 56.0417 5.64029 55.7215C5.68019 55.3618 5.64029 54.6815 5.60039 54.2416C5.44078 51.6015 5.16046 48.082 4.64072 44.7615C4.4003 43.3215 4.20079 42.5619 3.76085 42.1618C3.48053 41.9219 3.16081 41.682 2.80118 41.5618C2.60117 41.482 2.48096 41.4017 2.48096 41.282C2.48096 41.1623 2.56076 41.0017 2.72087 40.8819C3.12091 40.5218 3.60074 40.2021 4.20129 40.2021C4.92155 40.2021 6.76108 40.8021 7.64145 41.2421C8.08139 41.4825 8.40161 41.6825 8.64103 41.9224C11.8812 41.3623 15.4011 40.7223 18.4009 40.2824C19.4004 40.1622 19.4004 40.0824 20.1207 39.3222C20.5606 38.8823 21.0405 38.8025 21.4006 38.8025C22.041 38.8025 23.4406 39.6824 24.6407 40.6425C26.0004 41.6022 27.1606 42.6023 27.1606 43.5625C27.1606 44.2428 27.0404 44.6423 26.2808 45.1626C25.5206 45.7626 25.5206 46.0025 25.1605 47.3223C24.6806 49.1624 24.3205 51.1625 23.8008 53.7223C24.2008 53.8021 24.6008 53.8824 24.9605 54.042C26.0807 54.5224 26.7207 55.2022 26.7207 56.0023C26.7207 56.962 26.4005 57.4423 25.0807 57.4423C24.2806 57.4423 23.4805 57.2024 22.5608 57.1226C22.1208 57.0827 21.6011 57.0428 20.9208 57.0428C20.2808 57.0428 19.5611 57.0827 18.6807 57.1226C15.8406 57.3226 13.4808 57.6822 10.6407 58.2025C10.6806 58.6025 10.7205 58.9217 10.7205 59.202ZM18.4004 54.1224C18.7605 54.0824 19.1206 54.0021 19.4408 53.9622C19.6409 50.9625 19.8404 48.3224 19.9606 45.6025C20.0005 44.7625 20.0005 44.0827 20.0005 43.6428C20.0005 43.0028 20.0005 42.9225 19.36 42.9225C19.1201 42.9225 18.56 42.9629 18.3201 43.0028C15.7204 43.2826 12.4398 43.9625 9.24006 44.5625C9.31987 45.2025 9.39967 45.8424 9.44008 46.4824C9.51988 47.2425 9.55978 47.9623 9.64009 48.7224C9.7598 49.6427 9.84011 50.5625 9.95981 51.5227C10.08 52.7627 10.2401 54.0425 10.3598 55.2825C13.1202 54.8027 15.6799 54.4027 18.3999 54.1229L18.4004 54.1224Z" fill="#D01F27"/>
<path d="M12.5597 72.6439C12.5198 72.4439 12.4799 72.2843 12.4001 72.0439C12.0001 70.6039 11.3601 69.6437 10.3201 68.684C10.2403 68.6037 10.1201 68.5239 10.1201 68.3638C10.1201 68.2037 10.3201 68.1239 10.5201 68.1239C12.24 68.2042 14.0002 68.884 15.2003 70.0038C16.0802 70.8438 16.56 71.8035 16.56 72.8035C16.56 74.0834 15.8397 74.8436 14.5599 74.8436C13.3997 74.8436 12.9597 74.3233 12.5597 72.6434V72.6439ZM12.1198 86.2035C14.48 85.0035 17.3601 82.6437 19.3996 80.2036C21.8397 77.2837 23.4797 74.0036 24.6 69.9235C24.8399 69.0836 24.9596 68.4835 24.9596 68.0436C24.9596 67.6036 24.9197 67.5233 24.5601 67.1637C24.3601 66.9637 24.0798 66.7637 23.7202 66.5637C23.5999 66.4833 23.4797 66.3636 23.4797 66.2434C23.4797 66.0838 23.6393 65.9636 23.8 65.8838C24.3596 65.6439 25 65.5237 25.2799 65.5237C25.9203 65.5237 26.9997 66.0434 28.0003 66.8435C29.0403 67.6435 29.7201 68.4835 29.7201 69.1235C29.7201 69.4836 29.5999 69.7235 29.16 70.1634C28.92 70.4432 28.7599 70.7231 28.5599 71.3231C27.1199 75.6032 24.5601 79.7632 21.8397 82.2431C19.04 84.8433 15.5594 86.643 11.8 87.4031C11.5596 87.443 11.2798 87.5228 11.0399 87.5228C10.8 87.5228 10.6798 87.3627 10.6798 87.1627C10.6798 87.0031 10.7596 86.8829 10.9202 86.8031L12.1198 86.2035ZM18.2 70.764C18.1601 70.5236 18.0798 70.3235 18.0399 70.2038C17.6798 68.9638 16.8398 67.644 16.1201 67.1238C15.96 67.0041 15.9201 66.9642 15.9201 66.8041C15.9201 66.644 16.0403 66.5243 16.2802 66.5243C17.7606 66.5642 19.4001 67.0839 20.5603 67.9643C21.5599 68.7244 22.1205 69.7245 22.1205 70.7645C22.1205 72.1242 21.4003 72.9641 20.1204 72.9641C19.0405 72.9641 18.6405 72.5242 18.2005 70.7645L18.2 70.764Z" fill="#D01F27"/>
<path d="M19.5202 97.6854C20.2803 97.5657 20.3202 97.4455 20.8001 96.7257C21.1602 96.3656 21.5198 96.206 21.9199 96.206C22.4401 96.206 23.8402 96.8858 25.0004 97.7657C26.3601 98.7658 27.2001 99.6456 27.2001 100.565C27.2001 101.126 26.6798 101.525 26.2399 101.725C25.4802 102.045 25.3201 102.365 24.7999 103.405C21.9598 109.445 18.4797 114.285 14.3203 117.485C10.4397 120.565 6.12017 122.765 0.920273 123.965C0.760664 124.005 0.440438 124.085 0.320227 124.085C0.120211 124.085 0 123.965 0 123.845C0 123.725 0.0399021 123.605 0.200015 123.525C4.60035 121.205 8.48045 118.405 11.9999 114.685C15.28 111.125 18.0398 107.086 19.9202 102.205C20.1202 101.645 20.4001 100.686 20.4001 100.405C20.4001 100.205 20.3202 100.165 20.0798 100.165C19.8798 100.165 19.1601 100.325 19.0398 100.365C18.6398 100.525 18.0797 100.686 17.6796 100.805C17.1998 101.005 16.7599 101.165 16.3598 101.165C15.88 101.165 15.1603 100.965 14.4799 100.565C13.4394 102.166 12.1999 103.806 10.7599 105.246C8.44004 107.686 5.71963 109.805 2.84012 110.885C2.55979 111.006 2.36028 110.845 2.36028 110.685C2.36028 110.566 2.40018 110.485 2.51989 110.366C4.55995 108.206 6.39999 105.806 7.96021 103.406C9.48002 100.965 10.7998 98.4455 11.8802 95.6857C12.16 95.0458 12.4803 94.0457 12.4803 93.526C12.4803 93.1259 12.3206 92.8461 11.9605 92.6062C11.7605 92.486 11.5605 92.3663 11.2004 92.2062C11.0003 92.1259 10.8801 92.0061 10.8801 91.8859C10.8801 91.7657 11.0003 91.646 11.1605 91.5263C11.7605 91.1662 12.4403 90.9263 12.9202 90.9263C13.5202 90.9263 14.9602 91.5662 16.1204 92.3259C17.3205 93.1259 17.9605 93.8058 17.9605 94.8458C17.9605 95.4458 17.7206 95.6458 17.2003 96.1656C16.8003 96.5656 16.5604 96.8459 16.0002 97.9657C15.9204 98.1258 15.8002 98.3258 15.7204 98.5253C16.6801 98.4056 18.3605 97.9657 19.5202 97.6854Z" fill="#D01F27"/>
<path d="M11.68 135.888C8.56008 136.688 5.24013 137.328 1.84037 137.288C1.60046 137.288 1.48025 137.168 1.48025 137.008C1.48025 136.888 1.56055 136.728 1.76057 136.688C4.88051 135.808 8.28026 134.529 10.6405 133.368C12.3604 132.568 13.8004 131.769 15.2005 130.888C15.9202 130.409 16.5602 129.969 16.5602 129.729C16.5602 129.369 16.24 129.009 16.0405 128.809C15.9202 128.689 15.7601 128.529 15.4803 128.329C15.3207 128.209 15.2404 128.089 15.2404 127.969C15.2404 127.849 15.3202 127.769 15.5601 127.689C16.0804 127.569 16.6804 127.489 17.0405 127.489C17.7608 127.489 19.1205 127.969 20.5605 128.809C22.0808 129.689 22.9607 130.569 22.9607 131.489C22.9607 132.169 22.7203 132.449 21.7207 132.609C21.0802 132.729 20.4009 132.929 20.0408 133.089C18.6811 133.689 17.2405 134.249 15.7606 134.689C16.4006 134.929 16.9208 135.209 17.3209 135.489C18.4805 136.289 19.1205 136.609 19.1205 137.609C19.1205 137.849 19.0407 138.128 18.9205 138.449C18.8008 138.728 18.7205 139.049 18.6806 139.368C18.6806 139.528 18.6407 139.689 18.6407 139.848C19.4407 139.728 20.3206 139.608 21.2004 139.448C22.2404 139.288 22.4 139.208 23.0001 138.768C23.4799 138.408 24.2002 138.168 24.8401 138.168C25.6003 138.168 26.7605 138.448 28.0005 138.927C29.4405 139.488 30.2804 140.167 30.2804 141.207C30.2804 142.247 29.7208 142.687 28.5207 142.687C27.8004 142.687 27.0403 142.527 25.8407 142.367C24.5608 142.207 23.1602 142.207 21.1605 142.287C20.2807 142.327 19.3604 142.407 18.4401 142.527C17.9204 147.687 16.4804 151.887 13.2003 155.207C11.0007 157.527 7.68022 159.367 3.12027 160.367C2.92026 160.407 2.76014 160.447 2.60053 160.447C2.44093 160.447 2.32021 160.327 2.32021 160.207C2.32021 160.127 2.36062 160.007 2.52022 159.927C6.32001 157.887 8.59998 155.807 10.3597 153.207C12.3998 150.087 13.3998 147.207 13.8398 143.167C12.5599 143.407 11.1997 143.687 9.91978 144.007C8.96011 144.247 7.83982 144.567 7.15997 144.967C6.43972 145.407 6.11949 145.647 5.59975 145.647C4.60018 145.647 3.75971 145.047 2.91975 144.287C2.11969 143.567 1.12012 142.487 1.12012 141.767C1.12012 141.487 1.16002 141.127 1.23982 140.807C1.27973 140.567 1.39943 140.487 1.52015 140.487C1.64086 140.487 1.76007 140.567 1.87977 140.647C2.47982 141.087 2.96016 141.327 3.36019 141.487C3.80012 141.687 4.31986 141.807 4.8401 141.807C5.48055 141.807 6.52003 141.647 7.60041 141.487C10.1203 141.047 12.1599 140.687 14.0802 140.407C14.1201 139.687 14.1201 138.927 14.1201 138.167C14.1201 137.087 13.8797 136.567 13.5201 136.087C13.3599 135.887 13.1998 135.727 12.92 135.567C12.52 135.687 12.08 135.767 11.68 135.887V135.888Z" fill="#D01F27"/>
<path d="M16.8805 169.29C16.64 169.33 16.2804 169.37 15.9203 169.45C15.1606 169.61 14.8803 169.65 14.6005 169.65C13.8403 169.65 13.4004 169.45 12.6806 168.65C11.7609 167.65 11.5205 167.29 11.5205 166.69C11.5205 166.13 11.6402 165.97 11.8806 165.97C12.0402 165.97 12.0806 166.01 12.2407 166.13C12.8003 166.53 13.0004 166.65 13.4807 166.81C14.0403 167.01 14.3207 167.05 14.9606 167.05C15.4005 167.05 16.041 167.01 16.5607 166.93C18.6008 166.69 20.2004 166.33 21.8803 165.93C22.8001 165.73 22.8804 165.69 23.3209 165.25C23.5608 165.01 24.0406 164.85 24.4805 164.85C24.9604 164.85 26.4009 165.09 26.8009 165.21C27.5611 165.49 28.0808 166.17 28.0808 166.89C28.0808 167.77 27.5611 168.05 25.8003 168.17C24.6007 168.25 23.3209 168.33 22.5208 168.45C22.0011 168.53 21.4404 168.65 20.9207 168.73C20.7207 168.77 20.5605 168.77 20.3206 168.81C20.6802 168.97 21.0005 169.13 21.1606 169.21C21.6404 169.53 21.9601 169.89 21.9601 170.33C21.9601 170.65 21.9202 170.89 21.7601 171.33C21.6803 171.57 21.5601 171.97 21.5197 172.37C21.3601 173.569 21.2798 174.25 21.2399 174.97C21.3995 174.97 21.5596 174.93 21.6798 174.93C23.9997 174.649 25.52 174.53 26.4797 174.53C26.9595 174.53 27.0797 174.409 27.4394 174.17C27.7596 173.93 28.0394 173.849 28.4798 173.849C29.1597 173.849 30.1598 174.169 31.1598 174.649C32.32 175.209 32.76 175.689 32.76 176.489C32.76 177.409 32.2801 177.849 31.3194 177.849C30.8795 177.849 29.9597 177.729 28.8799 177.489C27.8798 177.289 26.3201 177.169 25.0397 177.169C23.5194 177.169 21.4793 177.289 19.9595 177.489C18.9594 177.609 15.9592 178.129 15.1192 178.329C14.1196 178.569 13.1595 178.809 12.4791 179.249C11.8791 179.609 11.6391 179.689 11.2391 179.689C10.4795 179.689 9.6395 179.289 8.83944 178.449C7.99947 177.649 7.47974 176.809 7.47974 176.249C7.47974 176.049 7.47974 175.729 7.51964 175.61C7.59944 175.329 7.75956 175.17 7.95957 175.17C8.07928 175.17 8.19949 175.289 8.31919 175.37C8.59952 175.57 9.15916 175.929 9.27937 176.01C9.6395 176.21 10.0395 176.289 10.5194 176.289C10.879 176.289 11.1992 176.249 12.7594 176.049C14.5192 175.81 15.6794 175.649 17.5992 175.409C17.6391 174.009 17.679 172.41 17.679 170.85C17.679 170.09 17.5593 169.61 17.3593 169.37L17.2391 169.25L16.8794 169.29H16.8805Z" fill="#D01F27"/>
<path d="M17.3602 198.252C17.3602 201.451 17.4799 205.251 17.5198 208.491C17.5198 210.371 17.5996 213.011 17.5996 214.971C17.5996 216.931 16.8395 217.891 15.4 217.891C14.4802 217.891 13.8797 217.411 13.3998 216.371C12.92 215.291 12.72 214.171 12.72 212.651C12.72 211.851 12.7599 210.571 12.7998 209.251C12.8796 206.131 12.8796 201.771 12.9594 198.331C12.9993 196.051 12.9594 192.932 12.9195 190.371C12.8796 188.051 12.8397 187.532 12.2795 186.931C11.9593 186.611 11.5593 186.331 10.9597 186.051C10.7597 185.971 10.5996 185.851 10.5996 185.691C10.5996 185.571 10.7193 185.411 10.9597 185.251C11.6396 184.811 12.4396 184.491 13.0397 184.491C13.9196 184.491 15.3596 185.011 16.5198 185.731C17.6395 186.411 18.5194 187.131 18.5194 188.091C18.5194 188.491 18.4396 188.771 18.0795 189.131C17.5996 189.651 17.5198 189.891 17.4395 191.291C17.3597 193.371 17.3597 196.451 17.3597 198.251L17.3602 198.252Z" fill="#D01F27"/>
<path d="M1.36011 224.772C1.36011 224.613 1.47981 224.532 1.72024 224.492C2.27988 224.412 2.84052 224.372 3.44007 224.372C5.40032 224.372 7.39996 224.852 8.88038 225.612C10.5603 226.492 11.8003 227.852 11.8003 229.532C11.8003 231.492 10.68 232.492 8.92028 232.492C7.68029 232.492 6.76052 231.652 6.08017 230.052C5.04019 227.692 3.72039 226.212 1.68033 225.132C1.48032 225.053 1.36011 224.932 1.36011 224.772ZM10.4002 245.492C9.64054 246.172 9.28041 246.412 8.72027 246.412C7.68029 246.412 6.16048 245.371 5.0806 244.252C4.00021 243.092 3.16025 241.892 3.16025 241.132C3.16025 240.732 3.32036 239.932 3.60018 239.292C3.72039 239.052 3.80019 238.931 3.92041 238.931C4.04062 238.931 4.16083 239.052 4.28053 239.212C4.64066 239.731 4.96089 240.052 5.2402 240.292C5.64023 240.612 6.08017 240.972 6.68072 240.972C7.36057 240.972 9.40062 239.932 10.7204 239.212C14.7606 236.892 18.5599 234.012 22.1203 230.573C25.2801 227.533 28.3602 224.133 31.32 220.053C31.4003 219.933 31.52 219.893 31.6003 219.893C31.72 219.893 31.8003 219.973 31.8003 220.133C31.8003 220.293 31.7604 220.413 31.7205 220.533C30.2007 225.333 27.7207 229.693 24.5205 233.453C20.801 237.893 16.7608 241.293 12.9605 243.733C11.8008 244.493 11.0406 244.893 10.4007 245.493L10.4002 245.492Z" fill="#D01F27"/>
</svg>
