<svg width="77" height="152" viewBox="0 0 77 152" fill="currentColor" xmlns="http://www.w3.org/2000/svg">
    <g clip-path="url(#clip0_583_6042)">
        <path
            d="M13.146 29.539C15.125 33.261 16.472 37.854 16.472 44.744C16.472 52.901 12.988 58.207 7.84004 58.207C4.43504 58.207 2.61304 56.227 2.61304 52.664C2.61304 50.13 4.35504 48.15 6.65104 46.17C10.928 42.527 12.987 37.776 12.432 29.698L13.145 29.54L13.146 29.539ZM22.966 24.946C22.966 21.462 22.729 19.957 22.016 18.452L22.57 17.897C34.37 19.64 35.875 20.511 35.875 21.857C35.875 22.886 35.162 23.282 32.866 24.074V54.801C32.866 58.285 33.262 58.919 38.013 58.919C45.616 58.919 48.308 58.285 50.842 55.118C52.347 53.217 54.247 49.812 55.752 44.268L56.544 44.347C56.306 49.574 56.306 52.346 56.306 53.454C56.306 54.8 56.782 55.829 57.653 56.701C58.841 57.889 59.395 59.156 59.395 60.819C59.395 62.957 58.445 64.62 56.782 65.65C54.248 67.154 50.13 68.659 38.172 68.659C24.63 68.659 22.65 66.045 22.65 55.988L22.967 41.416V24.944L22.966 24.946ZM29.539 0C40.071 0.317 49.337 4.593 49.337 12.354C49.337 16.551 46.248 18.61 43.081 18.61C40.15 18.61 38.566 17.185 37.853 13.542C36.665 8.315 34.29 3.088 29.221 0.634L29.539 0ZM54.484 27.955C68.897 32.073 74.995 41.101 74.995 49.496C74.995 54.089 71.986 56.386 68.739 56.386C65.808 56.386 64.066 54.96 63.671 50.842C62.642 40.547 59.949 33.182 54.089 28.589L54.484 27.955Z"
            fill="#D01F27" />
        <path
            d="M64.226 103.511C65.73 101.293 66.76 99.947 67.393 99.076C67.077 98.522 66.839 97.809 66.601 96.859C65.889 94.087 64.384 91.553 61.533 89.732L61.771 89.257C71.116 89.89 74.442 92.741 74.442 96.226C74.442 98.127 73.571 99.235 72.541 99.869C72.779 100.107 73.017 100.265 73.254 100.503C75.788 102.878 76.106 103.274 76.106 103.908C76.106 104.7 75.71 104.937 74.522 104.937H62.722C62.722 106.6 62.722 108.025 62.801 110.48C62.88 114.123 63.197 117.766 63.751 121.171C64.306 119.271 64.859 117.291 65.335 115.469C66.048 112.46 66.127 111.43 65.969 110.401L66.602 110.005C75.156 113.727 75.709 114.123 75.709 115.073C75.709 115.786 75.234 116.182 72.858 116.498C70.958 121.804 68.819 126.714 66.206 131.07C66.443 132.02 66.84 132.891 67.156 133.762C68.185 136.296 69.135 137.801 69.927 137.801C70.561 137.801 71.353 137.246 72.224 135.821C73.253 134.158 74.363 132.495 75.708 129.644L76.421 129.961C74.362 137.484 73.887 139.385 73.887 140.811C73.887 142.078 74.124 142.87 74.758 143.82C75.392 144.849 75.946 146.037 75.946 147.383C75.946 149.601 74.996 151.105 72.066 151.105C68.661 151.105 64.305 146.987 61.216 139.543C61.058 139.147 60.9 138.751 60.661 138.276C55.514 143.819 48.387 148.175 38.171 151.105L37.695 150.472C44.744 146.512 49.337 142.869 52.821 139.068H42.05V140.81C42.05 143.661 40.308 144.453 37.853 144.453C36.27 144.453 36.032 144.373 36.032 142.631L36.508 120.932V114.755C36.508 111.746 36.508 110.479 35.953 109.212L36.429 108.658C41.259 110.321 42.922 111.033 43.398 111.667H49.1C51.555 108.341 51.951 107.945 52.505 107.945C52.821 107.945 53.376 108.183 54.722 109.37C54.96 109.608 55.118 109.766 55.356 109.925C55.277 108.262 55.277 106.599 55.198 104.936H36.825C36.509 105.411 35.717 105.886 34.449 106.282V114.122C34.449 136.692 31.044 143.898 21.937 151.026L21.382 150.551C26.213 142.948 27.163 137.88 27.163 118.082V106.916C27.163 103.511 26.925 101.689 26.529 100.581L27.084 100.026C34.132 102.006 36.271 102.798 36.903 103.511H55.197V100.739C55.197 98.68 55.118 97.255 54.801 96.067H53.297C51.634 96.067 51.317 95.988 51.317 94.008L51.476 87.752H44.506L44.664 93.533C44.664 96.305 42.526 97.176 37.853 97.176C36.19 97.176 35.874 97.096 35.874 95.117L36.111 87.831C31.439 87.91 28.984 88.068 26.608 88.385L26.053 86.247C25.657 86.563 24.945 86.88 23.836 87.435V113.806L24.073 141.049C24.073 147.701 18.134 150.869 15.204 150.869C14.016 150.869 13.778 150.631 13.541 148.889C13.303 146.118 11.799 143.583 7.28402 142.474V141.603C9.81802 141.682 12.115 141.524 13.382 141.286C15.362 140.969 16.154 140.336 16.154 137.564V119.587H10.61C9.89702 128.773 8.39302 134.554 6.49202 139.385C4.82902 143.661 2.92902 146.671 0.632023 149.838L-0.000976562 149.363C1.34502 144.849 1.97802 141.364 2.61202 136.455C3.40402 130.436 3.72002 123.309 3.72002 108.104V86.643C3.72002 81.575 3.56202 80.466 2.84902 78.961L3.40402 78.407C9.26402 80.387 11.878 81.337 12.67 82.208H15.124C17.421 79.199 18.055 78.328 18.847 78.328C19.797 78.328 20.431 78.645 23.361 81.258C25.895 83.554 26.529 84.425 26.529 85.138C26.529 85.376 26.529 85.534 26.45 85.772C29.618 86.088 32.865 86.168 36.111 86.247V82.129C36.111 79.516 36.032 78.249 35.557 77.14L36.032 76.665C44.744 77.932 46.644 78.566 46.644 79.516C46.644 80.466 46.248 80.862 44.426 81.416V86.326H51.554V82.129C51.554 79.516 51.475 78.249 50.999 77.14L51.475 76.665C60.899 78.011 62.245 78.645 62.245 79.595C62.245 80.545 61.849 80.941 60.028 81.495V86.326H62.641C66.68 80.703 67.313 80.149 68.026 80.149C68.66 80.149 69.294 80.545 72.461 83.238C75.154 85.534 75.313 86.089 75.313 86.722C75.313 87.514 74.917 87.751 73.729 87.751H60.108L60.266 92.423C60.266 93.77 59.711 94.72 58.524 95.274C64.701 96.066 65.493 96.858 65.493 97.887C65.493 98.679 64.701 99.075 62.88 99.471C62.801 101.134 62.801 102.401 62.801 103.51H64.227L64.226 103.511ZM16.155 101.056H11.008V107.471C11.008 111.43 10.929 114.994 10.691 118.162H16.156V101.057L16.155 101.056ZM16.155 83.634H12.671C12.433 83.871 11.958 84.188 11.008 84.663V99.63H16.155V83.634ZM43.397 113.093C43.16 113.41 42.763 113.568 42.05 113.885V120.141H44.426V113.093H43.397ZM50.445 121.567H42.05V128.457H50.445V121.567ZM44.427 129.882H42.051V137.643H44.427V129.882ZM56.147 119.904C55.831 117.687 55.592 115.39 55.513 113.093H50.524C50.366 113.806 50.128 114.123 49.495 114.519V120.142H50.208C51.95 117.766 52.426 117.291 52.742 117.291C53.218 117.291 53.85 117.687 55.593 119.35L56.147 119.904ZM50.445 137.643C52.979 134.317 53.376 133.921 53.85 133.921C54.324 133.921 54.8 134.079 56.068 135.267C56.939 134.079 57.731 132.891 58.523 131.703C57.81 128.932 57.176 126.16 56.702 123.309C56.464 123.467 56.147 123.705 55.831 123.942V125.605L56.147 129.168C56.147 131.227 54.484 132.019 52.504 132.019C50.683 132.019 50.444 131.782 50.444 130.039C50.286 130.594 50.048 130.911 49.494 131.227V137.642H50.444L50.445 137.643Z"
            fill="#D01F27" />
    </g>
</svg>