<svg width="28" height="28" viewBox="0 0 28 28"
    xmlns="http://www.w3.org/2000/svg">
    <path
        d="M23.7187 4.97788C21.9062 4.12986 19.9682 3.51356 17.942 3.16263C17.6932 3.61251 17.4025 4.2176 17.2021 4.69896C15.0482 4.37505 12.9142 4.37505 10.8 4.69896C10.5996 4.2176 10.3023 3.61251 10.0513 3.16263C8.02294 3.51356 6.08271 4.13213 4.27022 4.98237C0.614417 10.5068 -0.376613 15.894 0.118903 21.2047C2.54363 23.0154 4.89348 24.1153 7.20367 24.8351C7.77407 24.0501 8.28279 23.2156 8.72104 22.3361C7.88638 22.0189 7.08695 21.6276 6.33159 21.1732C6.53198 21.0247 6.728 20.8695 6.91738 20.7098C11.5246 22.8647 16.5304 22.8647 21.0825 20.7098C21.2741 20.8695 21.4701 21.0247 21.6683 21.1732C20.9107 21.6298 20.1091 22.0212 19.2744 22.3384C19.7127 23.2156 20.2192 24.0524 20.7918 24.8374C23.1042 24.1176 25.4563 23.0176 27.881 21.2047C28.4624 15.0482 26.8878 9.7105 23.7187 4.97788ZM9.34871 17.9386C7.96568 17.9386 6.83148 16.6475 6.83148 15.0752C6.83148 13.5029 7.94146 12.2095 9.34871 12.2095C10.756 12.2095 11.8902 13.5006 11.8659 15.0752C11.8681 16.6475 10.756 17.9386 9.34871 17.9386ZM18.6512 17.9386C17.2682 17.9386 16.134 16.6475 16.134 15.0752C16.134 13.5029 17.2439 12.2095 18.6512 12.2095C20.0584 12.2095 21.1926 13.5006 21.1684 15.0752C21.1684 16.6475 20.0584 17.9386 18.6512 17.9386Z"
        fill="currentColor"
    />
</svg>