<svg width="28" height="28" viewBox="0 0 28 28"
    xmlns="http://www.w3.org/2000/svg">
    <g clip-path="url(#clip0_646_1040)">
        <g clip-path="url(#clip1_646_1040)">
            <path fill-rule="evenodd" clip-rule="evenodd"
                d="M13.9583 0.538452C6.23971 0.538452 0 6.70832 0 14.3413C0 20.4427 3.998 25.6075 9.54428 27.4354C10.2377 27.5729 10.4917 27.1385 10.4917 26.773C10.4917 26.453 10.4689 25.3562 10.4689 24.2134C6.586 25.0362 5.77743 22.568 5.77743 22.568C5.15343 20.9683 4.22886 20.5572 4.22886 20.5572C2.958 19.7116 4.32143 19.7116 4.32143 19.7116C5.73114 19.803 6.47086 21.1284 6.47086 21.1284C7.71857 23.2307 9.72914 22.6367 10.538 22.271C10.6534 21.3797 11.0234 20.7627 11.4163 20.42C8.31943 20.1 5.06114 18.9118 5.06114 13.6099C5.06114 12.1016 5.61543 10.8677 6.49371 9.90796C6.35514 9.56525 5.86971 8.14815 6.63257 6.25147C6.63257 6.25147 7.81114 5.88577 10.4686 7.6683C11.6063 7.36616 12.7796 7.21246 13.9583 7.21117C15.1369 7.21117 16.3383 7.3713 17.4477 7.6683C20.1054 5.88577 21.284 6.25147 21.284 6.25147C22.0469 8.14815 21.5611 9.56525 21.4226 9.90796C22.324 10.8677 22.8554 12.1016 22.8554 13.6099C22.8554 18.9118 19.5971 20.077 16.4771 20.42C16.9857 20.8542 17.4246 21.6767 17.4246 22.9794C17.4246 24.8304 17.4017 26.3159 17.4017 26.7727C17.4017 27.1385 17.656 27.5729 18.3491 27.4357C23.8954 25.6072 27.8934 20.4427 27.8934 14.3413C27.9163 6.70832 21.6537 0.538452 13.9583 0.538452Z"
                fill="currentColor" />
        </g>
    </g>
    <defs>
        <clipPath id="clip0_646_1040">
            <rect width="28" height="28" fill="white" />
        </clipPath>
        <clipPath id="clip1_646_1040">
            <rect width="28" height="26.9231" fill="white" transform="translate(0 0.538452)" />
        </clipPath>
    </defs>
</svg>