<svg width="1058" height="187" viewBox="0 0 1058 187" fill="currentColor"
    xmlns="http://www.w3.org/2000/svg">
    <g>
        <path d="M188.448 78.9551H156.301V110.41H188.448V78.9551Z" fill="black" />
        <path d="M32.1468 78.9551H0V110.41H32.1468V78.9551Z" fill="black" />
        <path d="M78.159 110.41H110.306V78.9551H78.1421V110.41H78.159Z" fill="black" />
        <path d="M71.2264 40.5864H39.0796V148.762H71.2264V40.5864Z" fill="black" />
        <path d="M117.221 78.9552V148.762H149.385V40.5864H117.221V78.9552Z" fill="black" />
        <path d="M117.221 78.9552V148.762H149.385V40.5864H117.221V78.9552Z" fill="black" />
        <path d="M110.306 117.177H78.1587V187H110.306V117.177Z" fill="black" />
        <path
            d="M379.533 187V40.5864H420.113V96.2065H473.941V40.5864H514.521V187H473.941V127.662H420.113V187H379.533Z"
            fill="black" />
        <path
            d="M609.325 187V40.5864H653.505L689.152 98.0658C692.235 103.039 695.118 108.029 697.784 113.002C700.467 117.976 703.051 123.471 705.567 129.456C708.083 135.456 710.633 142.435 713.25 150.442H709.733C709.4 145.142 708.983 138.995 708.483 132.016C707.983 125.037 707.533 118.155 707.133 111.389C706.733 104.605 706.534 98.8981 706.534 94.2345V40.5869H748.313V187H704.133L670.886 133.548C667.137 127.45 663.837 121.775 660.987 116.492C658.137 111.225 655.404 105.632 652.755 99.7454C650.105 93.8426 647.089 87.0428 643.672 79.3139H647.889C648.422 86.195 648.939 93.044 649.439 99.8433C649.938 106.659 650.338 112.986 650.638 118.807C650.938 124.645 651.088 129.553 651.088 133.548V187H609.309H609.326L609.325 187Z"
            fill="black" />
        <path d="M582.21 40.5864H541.631V187H582.21V40.5864Z" fill="black" />
        <path d="M1033.44 0V22.796H947.579V0H1033.44Z" fill="black" />
        <path
            d="M1033.35 40.5864H923.032V187H1058V40.5864H1033.35ZM963.595 155.545V72.041H1017.42V155.545H963.595Z"
            fill="black" />
        <path
            d="M352.584 186.999H230.462V155.545H272.841C280.54 155.545 288.256 155.61 295.989 155.74C303.722 155.871 311.471 156.327 319.237 157.11L316.721 169.291C310.971 163.323 305.289 157.371 299.706 151.403C294.123 145.435 289.04 139.483 284.491 133.515L230.262 62.5661V40.5527H352.384V72.0399H306.588C299.423 72.0399 292.256 71.9747 285.09 71.8442C277.925 71.7138 270.758 71.2573 263.592 70.4746L266.109 58.2612C271.659 63.9683 277.141 69.6754 282.524 75.4152C287.923 81.155 292.789 86.8621 297.139 92.5693L352.567 164.985V186.999H352.584V186.999Z"
            fill="black" />
        <path
            d="M775.446 187V164.986L830.874 92.5702C835.223 86.8631 840.089 81.1559 845.489 75.4162C850.872 69.6764 856.355 63.9693 861.904 58.2621L864.42 70.4756C857.254 71.2582 850.088 71.7148 842.922 71.8452C835.756 71.9756 828.59 72.0409 821.424 72.0409H775.629V40.5537H897.75V62.5671L843.522 133.516C838.973 139.484 833.89 145.436 828.307 151.404C822.724 157.372 817.041 163.324 811.292 169.292L808.775 157.111C816.541 156.328 824.29 155.872 832.023 155.741C839.756 155.611 847.472 155.546 855.171 155.546H897.55V187H775.429H775.446V187Z"
            fill="black" />
    </g>
</svg>