<svg width="24" height="24" viewBox="0 0 24 24" fill="none" xmlns="http://www.w3.org/2000/svg">
  <path d="M6.09 8.68C9.36 5.44 14.64 5.44 17.91 8.68L18.3 9.06C18.46 9.22 18.46 9.48 18.3 9.64L16.98 10.94C16.9 11.02 16.77 11.02 16.69 10.94L16.15 10.41C13.85 8.13 10.15 8.13 7.85 10.41L7.27 10.98C7.19 11.06 7.06 11.06 6.98 10.98L5.66 9.68C5.5 9.52 5.5 9.26 5.66 9.1L6.09 8.68ZM20.67 11.41L21.83 12.55C21.99 12.71 21.99 12.97 21.83 13.13L16.56 18.34C16.4 18.5 16.14 18.5 15.98 18.34L12.27 14.68C12.23 14.64 12.17 14.64 12.13 14.68L8.42 18.34C8.26 18.5 8 18.5 7.84 18.34L2.17 13.13C2.01 12.97 2.01 12.71 2.17 12.55L3.33 11.41C3.49 11.25 3.75 11.25 3.91 11.41L7.62 15.07C7.66 15.11 7.72 15.11 7.76 15.07L11.47 11.41C11.63 11.25 11.89 11.25 12.05 11.41L15.76 15.07C15.8 15.11 15.86 15.11 15.9 15.07L19.61 11.41C19.77 11.25 20.03 11.25 20.19 11.41L20.67 11.41Z" fill="#3B99FC"/>
</svg>