<svg width="123" height="23" viewBox="0 0 123 23" fill="none" xmlns="http://www.w3.org/2000/svg">
<path d="M22.3925 10.2443H18.6807V13.943H22.3925V10.2443Z" fill="white"/>
<path d="M4.34516 10.2443H0.633301V13.943H4.34516V10.2443Z" fill="white"/>
<path d="M9.65817 13.943H13.37V10.2443H9.65625V13.943H9.65817Z" fill="white"/>
<path d="M8.85737 5.73267H5.14551V18.453H8.85737V5.73267Z" fill="white"/>
<path d="M14.1685 10.2444V18.453H17.8822V5.73267H14.1685V10.2444Z" fill="white"/>
<path d="M14.1685 10.2444V18.453H17.8822V5.73267H14.1685V10.2444Z" fill="white"/>
<path d="M13.3701 14.7388H9.6582V22.9493H13.3701V14.7388Z" fill="white"/>
<path d="M44.4561 22.9494V5.73267H49.1416V12.2731H55.3569V5.73267H60.0424V22.9494H55.3569V15.9718H49.1416V22.9494H44.4561Z" fill="white"/>
<path d="M70.9892 22.9494V5.73267H76.0904L80.2063 12.4917C80.5623 13.0765 80.8952 13.6632 81.2031 14.248C81.5129 14.8329 81.8112 15.479 82.1017 16.1827C82.3923 16.8884 82.6867 17.709 82.9888 18.6505H82.5828C82.5443 18.0273 82.4962 17.3044 82.4385 16.4838C82.3807 15.6631 82.3288 14.8539 82.2826 14.0582C82.2364 13.2605 82.2133 12.5894 82.2133 12.0411V5.73267H87.0374V22.9494H81.9362L78.0974 16.664C77.6644 15.9469 77.2834 15.2796 76.9544 14.6584C76.6253 14.039 76.3098 13.3813 76.0038 12.6891C75.6979 11.995 75.3496 11.1955 74.9551 10.2866H75.4419C75.5035 11.0958 75.5632 11.9011 75.6209 12.7007C75.6786 13.5021 75.7248 14.2461 75.7594 14.9306C75.7941 15.6171 75.8114 16.1942 75.8114 16.664V22.9494H70.9873H70.9892Z" fill="white"/>
<path d="M67.8589 5.73267H63.1733V22.9494H67.8589V5.73267Z" fill="white"/>
<path d="M119.96 0.960083V3.64067H110.046V0.960083H119.96Z" fill="white"/>
<path d="M119.95 5.73267H107.211V22.9494H122.796V5.73267H119.95ZM111.895 19.2506V9.43141H118.11V19.2506H111.895Z" fill="white"/>
<path d="M41.3446 22.9493H27.2438V19.2506H32.1371C33.0261 19.2506 33.9171 19.2582 34.8099 19.2736C35.7028 19.2889 36.5975 19.3426 37.4942 19.4346L37.2037 20.867C36.5398 20.1652 35.8836 19.4653 35.239 18.7635C34.5944 18.0618 34.0075 17.3619 33.4822 16.6601L27.2207 8.31731V5.72876H41.3216V9.43134H36.0337C35.2063 9.43134 34.3789 9.42367 33.5515 9.40833C32.724 9.39299 31.8966 9.33931 31.0692 9.24727L31.3597 7.8111C32.0005 8.48221 32.6336 9.15331 33.2551 9.82825C33.8786 10.5032 34.4405 11.1743 34.9427 11.8454L41.3427 20.3608V22.9493H41.3446Z" fill="white"/>
<path d="M90.1704 22.9493V20.3608L96.5704 11.8454C97.0726 11.1743 97.6345 10.5032 98.258 9.82825C98.8795 9.15331 99.5126 8.48221 100.153 7.8111L100.444 9.24727C99.6165 9.33931 98.7891 9.39299 97.9616 9.40833C97.1342 9.42367 96.3068 9.43134 95.4794 9.43134H90.1916V5.72876H104.292V8.31731L98.0309 16.6601C97.5056 17.3619 96.9187 18.0618 96.2741 18.7635C95.6295 19.4653 94.9733 20.1652 94.3094 20.867L94.0189 19.4346C94.9156 19.3426 95.8103 19.2889 96.7032 19.2736C97.596 19.2582 98.487 19.2506 99.376 19.2506H104.269V22.9493H90.1685H90.1704Z" fill="white"/>
</svg>
