<svg width="402" height="73" viewBox="0 0 402 73" fill="none" xmlns="http://www.w3.org/2000/svg">
<g clip-path="url(#clip0_0_75)">
<path d="M71.4395 30.5874H59.2528V42.7731H71.4395V30.5874Z" fill="#010101"/>
<path d="M12.1868 30.5874H0V42.7731H12.1868V30.5874Z" fill="#010101"/>
<path d="M29.6302 42.7731H41.817V30.5874H29.6239V42.7731H29.6302Z" fill="#010101"/>
<path d="M27.0012 15.7231H14.8144V57.6308H27.0012V15.7231Z" fill="#010101"/>
<path d="M44.4383 30.5873V57.6308H56.6314V15.7231H44.4383V30.5873Z" fill="#010101"/>
<path d="M44.4383 30.5873V57.6308H56.6314V15.7231H44.4383V30.5873Z" fill="#010101"/>
<path d="M41.8169 45.3945H29.6301V72.4443H41.8169V45.3945Z" fill="#010101"/>
<path d="M143.879 72.4443V15.7231H159.262V37.2708H179.668V15.7231H195.052V72.4443H179.668V49.4564H159.262V72.4443H143.879Z" fill="#010101"/>
<path d="M230.992 72.4443V15.7231H247.74L261.254 37.9909C262.423 39.9176 263.515 41.8506 264.526 43.7774C265.543 45.7041 266.523 47.8329 267.477 50.1513C268.431 52.476 269.397 55.1797 270.389 58.2814H269.056C268.93 56.2284 268.772 53.8468 268.582 51.1431C268.393 48.4394 268.222 45.7736 268.071 43.152C267.919 40.5241 267.843 38.3131 267.843 36.5064V15.7231H283.681V72.4443H266.933L254.33 51.7369C252.908 49.3743 251.657 47.176 250.577 45.1292C249.497 43.0888 248.46 40.922 247.456 38.6416C246.451 36.3548 245.308 33.7205 244.013 30.7262H245.611C245.813 33.3921 246.009 36.0452 246.199 38.6795C246.388 41.32 246.54 43.771 246.654 46.0262C246.767 48.2878 246.824 50.1892 246.824 51.7369V72.4443H230.986H230.992Z" fill="#010101"/>
<path d="M220.714 15.7231H205.33V72.4443H220.714V15.7231Z" fill="#010101"/>
<path d="M391.771 0V8.8313H359.222V0H391.771Z" fill="#010101"/>
<path d="M391.739 15.7231H349.916V72.4443H401.083V15.7231H391.739ZM365.293 60.2587V27.9088H385.699V60.2587H365.293Z" fill="#010101"/>
<path d="M133.663 72.4445H87.3669V60.2588H103.433C106.351 60.2588 109.277 60.2841 112.208 60.3347C115.139 60.3852 118.077 60.5621 121.021 60.8653L120.067 65.5842C117.888 63.2721 115.733 60.9664 113.617 58.6543C111.5 56.3422 109.574 54.0365 107.849 51.7244L87.2911 24.2388V15.7107H133.587V27.909H116.226C113.509 27.909 110.793 27.8837 108.076 27.8332C105.36 27.7827 102.643 27.6058 99.9264 27.3026L100.88 22.5711C102.984 24.782 105.063 26.993 107.103 29.2166C109.15 31.4403 110.995 33.6512 112.644 35.8622L133.656 63.9164V72.4445H133.663Z" fill="#010101"/>
<path d="M293.968 72.4445V63.9164L314.98 35.8622C316.629 33.6512 318.474 31.4403 320.521 29.2166C322.561 26.993 324.64 24.782 326.744 22.5711L327.698 27.3026C324.981 27.6058 322.264 27.7827 319.548 27.8332C316.831 27.8837 314.115 27.909 311.398 27.909H294.037V15.7107H340.333V24.2388L319.775 51.7244C318.051 54.0365 316.124 56.3422 314.007 58.6543C311.891 60.9664 309.737 63.2721 307.557 65.5842L306.603 60.8653C309.547 60.5621 312.485 60.3852 315.416 60.3347C318.348 60.2841 321.273 60.2588 324.191 60.2588H340.257V72.4445H293.961H293.968Z" fill="#010101"/>
</g>
<defs>
<clipPath id="clip0_0_75">
<rect width="401.083" height="72.4444" fill="white"/>
</clipPath>
</defs>
</svg>
