<svg width="157" height="29" viewBox="0 0 157 29" fill="none" xmlns="http://www.w3.org/2000/svg">
<g clip-path="url(#clip0_155_77)">
<path d="M27.8439 11.9216H23.094V16.6711H27.8439V11.9216Z" fill="#010101"/>
<path d="M4.7499 11.9216H0V16.6711H4.7499V11.9216Z" fill="#010101"/>
<path d="M11.5484 16.6711H16.2983V11.9216H11.5459V16.6711H11.5484Z" fill="#010101"/>
<path d="M10.5241 6.12817H5.77417V22.462H10.5241V6.12817Z" fill="#010101"/>
<path d="M17.3198 11.9216V22.462H22.0722V6.12817H17.3198V11.9216Z" fill="#010101"/>
<path d="M17.3198 11.9216V22.462H22.0722V6.12817H17.3198V11.9216Z" fill="#010101"/>
<path d="M16.2985 17.6926H11.5486V28.2355H16.2985V17.6926Z" fill="#010101"/>
<path d="M56.0779 28.2358V6.12817H62.0737V14.5265H70.0272V6.12817H76.023V28.2358H70.0272V19.276H62.0737V28.2358H56.0779Z" fill="#010101"/>
<path d="M90.031 28.2358V6.12817H96.5588L101.826 14.8072C102.281 15.5582 102.707 16.3116 103.101 17.0626C103.498 17.8135 103.879 18.6433 104.251 19.5469C104.623 20.4529 105 21.5067 105.386 22.7156H104.867C104.818 21.9154 104.756 20.9872 104.682 19.9334C104.608 18.8796 104.542 17.8406 104.483 16.8188C104.424 15.7946 104.394 14.9328 104.394 14.2286V6.12817H110.567V28.2358H104.039L99.127 20.1649C98.573 19.244 98.0854 18.3872 97.6644 17.5895C97.2433 16.7942 96.8395 15.9497 96.448 15.0608C96.0564 14.1695 95.6107 13.1428 95.106 11.9758H95.7289C95.8077 13.0148 95.8841 14.0489 95.9579 15.0756C96.0318 16.1048 96.0909 17.0601 96.1352 17.9391C96.1796 18.8205 96.2017 19.5616 96.2017 20.1649V28.2358H90.0286H90.031Z" fill="#010101"/>
<path d="M86.0254 6.12817H80.0295V28.2358H86.0254V6.12817Z" fill="#010101"/>
<path d="M152.696 0V3.44208H140.01V0H152.696Z" fill="#010101"/>
<path d="M152.684 6.12817H136.383V28.2358H156.326V6.12817H152.684ZM142.376 23.4863V10.8776H150.33V23.4863H142.376Z" fill="#010101"/>
<path d="M52.0965 28.2358H34.0523V23.4863H40.314C41.4517 23.4863 42.5917 23.4962 43.7343 23.5159C44.8768 23.5356 46.0218 23.6045 47.1693 23.7227L46.7975 25.5619C45.9479 24.6608 45.1083 23.7621 44.2834 22.8609C43.4585 21.9598 42.7075 21.0611 42.0352 20.16L34.0227 9.44718V6.12329H52.0669V10.8777H45.3003C44.2415 10.8777 43.1827 10.8678 42.1239 10.8481C41.0651 10.8284 40.0063 10.7595 38.9474 10.6413L39.3192 8.79718C40.1392 9.65893 40.9493 10.5207 41.7447 11.3874C42.5425 12.254 43.2615 13.1158 43.9042 13.9775L52.094 24.9119V28.2358H52.0965Z" fill="#010101"/>
<path d="M114.576 28.2358V24.9119L122.766 13.9775C123.409 13.1158 124.128 12.254 124.926 11.3874C125.721 10.5207 126.531 9.65893 127.351 8.79718L127.723 10.6413C126.664 10.7595 125.605 10.8284 124.546 10.8481C123.487 10.8678 122.429 10.8777 121.37 10.8777H114.603V6.12329H132.647V9.44718L124.635 20.16C123.963 21.0611 123.212 21.9598 122.387 22.8609C121.562 23.7621 120.722 24.6608 119.873 25.5619L119.501 23.7227C120.648 23.6045 121.793 23.5356 122.936 23.5159C124.078 23.4962 125.219 23.4863 126.356 23.4863H132.618V28.2358H114.574H114.576Z" fill="#010101"/>
</g>
<defs>
<clipPath id="clip0_155_77">
<rect width="156.326" height="28.2359" fill="white"/>
</clipPath>
</defs>
</svg>
