<svg width="153" height="27" viewBox="0 0 153 27" fill="none" xmlns="http://www.w3.org/2000/svg">
<g clip-path="url(#clip0_564_818)">
<path d="M27.2521 11.3999H22.6032V15.9415H27.2521V11.3999Z" fill="black"/>
<path d="M4.64883 11.3999H0V15.9415H4.64883V11.3999Z" fill="black"/>
<path d="M11.3028 15.9415H15.9516V11.3999H11.3004V15.9415H11.3028Z" fill="black"/>
<path d="M10.3003 5.86004H5.65144V21.479H10.3003V5.86004Z" fill="black"/>
<path d="M16.9518 11.3999V21.479H21.6031V5.86004H16.9518V11.3999Z" fill="black"/>
<path d="M16.9518 11.3999V21.479H21.6031V5.86004H16.9518V11.3999Z" fill="black"/>
<path d="M15.9516 16.9186H11.3028V27H15.9516V16.9186Z" fill="black"/>
<path d="M54.8849 26.9999V5.86004H60.7532V13.8908H68.5375V5.86004H74.4058V26.9999H68.5375V18.4324H60.7532V26.9999H54.8849Z" fill="black"/>
<path d="M88.1161 26.9999V5.86004H94.505L99.66 14.1592C100.106 14.8773 100.523 15.5977 100.908 16.3158C101.296 17.0339 101.67 17.8273 102.034 18.6914C102.398 19.5578 102.767 20.5655 103.145 21.7215H102.636C102.588 20.9563 102.528 20.0687 102.456 19.0611C102.383 18.0534 102.318 17.0598 102.26 16.0828C102.203 15.1034 102.174 14.2794 102.174 13.606V5.86011H108.215V27H101.827L97.0186 19.2824C96.4764 18.4018 95.9992 17.5825 95.5871 16.8197C95.175 16.0593 94.7797 15.2517 94.3966 14.4017C94.0134 13.5494 93.5772 12.5676 93.0831 11.4517H93.6928C93.77 12.4452 93.8447 13.4341 93.917 14.4158C93.9893 15.3999 94.0471 16.3134 94.0905 17.154C94.1339 17.9968 94.1556 18.7055 94.1556 19.2824V27H88.1138H88.1162L88.1161 26.9999Z" fill="black"/>
<path d="M84.1951 5.86004H78.3268V26.9999H84.1951V5.86004Z" fill="black"/>
<path d="M149.448 0V3.2914H137.031V0H149.448Z" fill="black"/>
<path d="M149.436 5.86004H133.482V27H153V5.86004H149.436ZM139.348 22.4584V10.4016H147.132V22.4584H139.348Z" fill="black"/>
<path d="M50.9879 26.9999H33.3276V22.4584H39.4562C40.5696 22.4584 41.6854 22.4678 42.8037 22.4866C43.9219 22.5054 45.0425 22.5714 46.1656 22.6844L45.8017 24.4431C44.9702 23.5814 44.1485 22.722 43.3411 21.8603C42.5338 20.9986 41.7987 20.1393 41.1408 19.2776L33.2987 9.03366V5.85526H50.959V10.4015H44.3364C43.3001 10.4015 42.2638 10.3921 41.2275 10.3733C40.1913 10.3544 39.1549 10.2885 38.1186 10.1755L38.4826 8.41209C39.2851 9.23611 40.078 10.0601 40.8564 10.8889C41.6372 11.7176 42.3409 12.5416 42.9699 13.3657L50.9855 23.8214V26.9998H50.9879V26.9999Z" fill="black"/>
<path d="M112.139 26.9999V23.8215L120.154 13.3657C120.783 12.5417 121.487 11.7177 122.268 10.889C123.046 10.0602 123.839 9.23619 124.642 8.41216L125.006 10.1756C123.969 10.2886 122.933 10.3545 121.897 10.3734C120.861 10.3922 119.824 10.4016 118.788 10.4016H112.165V5.85533H129.826V9.03373L121.984 19.2776C121.326 20.1393 120.591 20.9987 119.783 21.8604C118.976 22.7221 118.154 23.5815 117.323 24.4432L116.959 22.6844C118.082 22.5714 119.202 22.5055 120.321 22.4867C121.439 22.4679 122.555 22.4584 123.668 22.4584H129.797V27H112.136H112.139V26.9999Z" fill="black"/>
<path d="M48.4574 14.4187C48.4574 14.3341 48.4466 14.3341 48.3816 14.3341C48.2951 14.3341 48.0243 14.3976 47.8727 14.4293C47.3853 14.5352 46.8113 14.6515 46.3566 14.7891C46.1833 14.8419 45.8909 14.9265 45.6851 15.0641C45.5011 15.1805 45.3927 15.2545 45.2087 15.2545C44.9488 15.2545 44.6672 15.0747 44.4398 14.8524C44.1907 14.6091 43.9741 14.3235 43.9741 14.1013C43.9741 14.0273 43.9849 13.9427 44.0066 13.8475C44.0282 13.7734 44.0607 13.7416 44.104 13.7416C44.1365 13.7416 44.1798 13.7627 44.2123 13.7945C44.3639 13.9109 44.5155 13.9743 44.613 14.0273C44.7646 14.1013 44.9161 14.1225 45.0461 14.1225C45.1652 14.1225 45.4468 14.0907 45.7283 14.0484C46.3998 13.9427 47.1686 13.8051 47.786 13.6782C48.23 13.5935 48.2949 13.5512 48.4573 13.382C48.5765 13.2656 48.6523 13.2338 48.7606 13.2338C48.9338 13.2338 49.302 13.382 49.6486 13.6359C49.9951 13.8687 50.3092 14.1331 50.3092 14.3976C50.3092 14.514 50.2875 14.588 50.1252 14.715C49.8653 14.8843 49.8544 14.9477 49.7461 15.2651C49.1288 17.0001 48.2841 18.2273 47.1362 19.1688C46.1941 19.9305 44.9596 20.449 43.6817 20.6711C43.6168 20.6817 43.5625 20.6923 43.5192 20.6923C43.4651 20.6923 43.4434 20.6712 43.4434 20.6289C43.4434 20.6077 43.4651 20.576 43.5083 20.5549C44.5913 20.0576 45.5659 19.3382 46.3998 18.4284C47.2553 17.4656 47.9375 16.2385 48.3273 14.9901C48.3814 14.7997 48.4572 14.5458 48.4572 14.4188L48.4574 14.4187ZM50.8399 12.6096C51.089 12.7578 51.2515 12.9587 51.2515 13.2021C51.2515 13.4666 51.0565 13.6782 50.8291 13.6782C50.6775 13.6782 50.5476 13.6147 50.4176 13.3925C50.1577 12.9376 49.887 12.6837 49.5621 12.4933C49.508 12.4721 49.4862 12.4404 49.4862 12.4085C49.4862 12.3767 49.5188 12.3452 49.5945 12.3452C50.1253 12.3346 50.5476 12.4404 50.8399 12.6096ZM50.8508 11.594C51.2515 11.594 51.5439 11.6575 51.7713 11.7633C52.0528 11.9007 52.2261 12.123 52.2261 12.3663C52.2261 12.6202 52.0636 12.8106 51.847 12.8106C51.7064 12.8106 51.598 12.7683 51.4248 12.525C51.1215 12.1124 50.8832 11.9219 50.5259 11.7527C50.4718 11.7314 50.4501 11.6997 50.4501 11.6681C50.4501 11.6364 50.4826 11.6151 50.5476 11.6045C50.6559 11.594 50.7533 11.594 50.8508 11.594Z" fill="#D01F27"/>
<path d="M54.5652 19.116C54.5652 19.4968 54.3702 19.6767 54.1104 19.6767C53.8937 19.6767 53.6446 19.5921 53.4714 19.3064C53.3631 19.0948 53.1898 18.8197 53.1898 18.5023C53.1898 18.386 53.179 18.2802 53.1898 18.1956C53.2006 18.1004 53.1898 17.9206 53.179 17.8042C53.1358 17.1059 53.0599 16.1749 52.9192 15.2969C52.8542 14.916 52.8001 14.715 52.6809 14.6091C52.6051 14.5457 52.5185 14.4822 52.421 14.4505C52.3669 14.4293 52.3344 14.4081 52.3344 14.3765C52.3344 14.3448 52.3561 14.3024 52.3994 14.2706C52.5077 14.1753 52.6377 14.0907 52.8001 14.0907C52.9951 14.0907 53.4932 14.2495 53.7315 14.3659C53.8506 14.4293 53.9372 14.4823 54.0022 14.5457C54.8793 14.3976 55.8323 14.2283 56.6445 14.112C56.9152 14.0802 56.9152 14.0591 57.1102 13.8581C57.2293 13.7417 57.3592 13.7205 57.4567 13.7205C57.63 13.7205 58.009 13.9533 58.3339 14.2072C58.7021 14.4611 59.0161 14.7255 59.0161 14.9795C59.0161 15.1593 58.9836 15.2651 58.7779 15.4026C58.5721 15.5614 58.5721 15.6247 58.4747 15.974C58.3448 16.4606 58.2473 16.9896 58.1065 17.6667C58.2147 17.6879 58.3231 17.709 58.4206 17.7513C58.7238 17.8782 58.897 18.058 58.897 18.2697C58.897 18.5236 58.8104 18.6505 58.453 18.6505C58.2365 18.6505 58.0199 18.5872 57.7708 18.5659C57.6517 18.5554 57.5109 18.5448 57.3268 18.5448C57.1535 18.5448 56.9586 18.5553 56.7204 18.5659C55.9515 18.6189 55.3126 18.7141 54.5437 18.8517C54.5545 18.9574 54.5654 19.0421 54.5654 19.1161L54.5652 19.116ZM56.6443 17.7724C56.7418 17.7619 56.8393 17.7407 56.9259 17.73C56.98 16.9366 57.0343 16.2384 57.0667 15.5189C57.0775 15.2968 57.0775 15.1169 57.0775 15.0006C57.0775 14.8313 57.0775 14.8101 56.9042 14.8101C56.8392 14.8101 56.6876 14.8207 56.6227 14.8313C55.9188 14.9054 55.0307 15.0852 54.1644 15.2439C54.1861 15.4132 54.2077 15.5824 54.2185 15.7517C54.2402 15.9527 54.251 16.1432 54.2727 16.3441C54.3051 16.5875 54.3268 16.8308 54.3593 17.0848C54.3917 17.4128 54.4351 17.7513 54.4675 18.0793C55.2148 17.9523 55.9079 17.8465 56.6442 17.7724H56.6443Z" fill="#D01F27"/>
<path d="M61.1927 16.926C61.1819 16.8731 61.171 16.8308 61.1493 16.7673C61.041 16.3864 60.8678 16.1325 60.5862 15.8787C60.5646 15.8575 60.5321 15.8363 60.5321 15.7939C60.5321 15.7516 60.5862 15.7306 60.6403 15.7306C61.1061 15.7517 61.5825 15.9315 61.9074 16.2278C62.1457 16.4499 62.2756 16.7038 62.2756 16.9683C62.2756 17.3068 62.0807 17.5078 61.7341 17.5078C61.4202 17.5078 61.301 17.3703 61.1927 16.926V16.926ZM61.0735 20.5124C61.7125 20.195 62.4922 19.5708 63.0444 18.9256C63.7051 18.1532 64.149 17.2857 64.4522 16.2066C64.5172 15.9844 64.5497 15.8257 64.5497 15.7094C64.5497 15.5931 64.5389 15.5718 64.4413 15.4766C64.3872 15.4237 64.3114 15.3709 64.2139 15.3179C64.1814 15.2967 64.1489 15.265 64.1489 15.2333C64.1489 15.1909 64.1923 15.1592 64.2355 15.1381C64.3871 15.0745 64.5604 15.0429 64.6362 15.0429C64.8095 15.0429 65.1019 15.1803 65.3725 15.3919C65.6541 15.6035 65.8382 15.8257 65.8382 15.995C65.8382 16.0902 65.8058 16.1537 65.6866 16.27C65.6216 16.3441 65.5784 16.4181 65.5242 16.5769C65.1342 17.7088 64.4411 18.8091 63.7048 19.4651C62.9467 20.1527 62.0046 20.6288 60.9866 20.8298C60.9218 20.8403 60.846 20.8615 60.7809 20.8615C60.7159 20.8615 60.6835 20.8192 60.6835 20.7663C60.6835 20.724 60.7051 20.6922 60.7485 20.6711L61.0734 20.5123L61.0735 20.5124ZM62.7195 16.4288C62.7087 16.3653 62.6871 16.3125 62.6762 16.2807C62.5788 15.9527 62.3513 15.6036 62.1564 15.4662C62.1131 15.4344 62.1022 15.4238 62.1022 15.3816C62.1022 15.3393 62.1347 15.3075 62.1997 15.3075C62.6004 15.318 63.0444 15.4555 63.3585 15.6883C63.6293 15.8894 63.7809 16.1539 63.7809 16.429C63.7809 16.7887 63.5859 17.0109 63.2393 17.0109C62.947 17.0109 62.8387 16.8945 62.7195 16.429V16.4288Z" fill="#D01F27"/>
<path d="M71.9893 13.9744C72.195 13.9427 72.2059 13.9109 72.3359 13.7205C72.4333 13.6253 72.5308 13.5829 72.6391 13.5829C72.7799 13.5829 73.1589 13.7627 73.473 13.9955C73.8412 14.26 74.0686 14.4927 74.0686 14.7362C74.0686 14.8843 73.9278 14.99 73.8087 15.043C73.6029 15.1276 73.5597 15.2123 73.4188 15.4873C72.6499 17.0848 71.7077 18.3649 70.5815 19.2113C69.5311 20.0258 68.3616 20.6077 66.9536 20.9251C66.9103 20.9356 66.8237 20.9569 66.7913 20.9569C66.7371 20.9569 66.7047 20.9251 66.7047 20.8933C66.7047 20.8616 66.7155 20.8298 66.7588 20.8087C67.9501 20.1951 69.0005 19.4545 69.9534 18.4707C70.8415 17.5291 71.5887 16.4605 72.0977 15.1698C72.1517 15.0217 72.2276 14.7678 72.2276 14.6939C72.2276 14.6409 72.2059 14.6303 72.141 14.6303C72.0869 14.6303 71.8919 14.6726 71.8594 14.6832C71.7512 14.7255 71.5996 14.7678 71.4912 14.7996C71.3613 14.8524 71.2422 14.8948 71.1339 14.8948C71.0039 14.8948 70.809 14.8419 70.625 14.7361C70.3434 15.1592 70.0077 15.593 69.6178 15.9739C68.9897 16.6192 68.2533 17.18 67.4735 17.4655C67.3978 17.4973 67.3436 17.455 67.3436 17.4127C67.3436 17.3809 67.3544 17.3598 67.387 17.3281C67.9393 16.7568 68.4374 16.122 68.8597 15.4872C69.2713 14.8418 69.6286 14.1753 69.9211 13.4454C69.9969 13.2761 70.0836 13.0116 70.0836 12.8741C70.0836 12.7683 70.0402 12.6942 69.9427 12.6307C69.8886 12.599 69.8345 12.5672 69.737 12.525C69.6829 12.5038 69.6504 12.4721 69.6504 12.4404C69.6504 12.4087 69.6829 12.3768 69.7262 12.3452C69.8886 12.2499 70.0727 12.1864 70.2027 12.1864C70.3652 12.1864 70.7549 12.3557 71.069 12.5567C71.3939 12.7683 71.5672 12.9481 71.5672 13.2231C71.5672 13.3819 71.5022 13.4348 71.3614 13.5722C71.2532 13.6781 71.1882 13.752 71.0366 14.0484C71.0149 14.0907 70.9824 14.1436 70.9608 14.1965C71.2207 14.1647 71.6755 14.0484 71.9896 13.9743L71.9893 13.9744Z" fill="#D01F27"/>
<path d="M78.3352 14.4504C77.4905 14.662 76.5917 14.8313 75.6712 14.8207C75.6063 14.8207 75.5737 14.789 75.5737 14.7466C75.5737 14.7149 75.5955 14.6726 75.6495 14.662C76.4943 14.4292 77.4147 14.0907 78.0537 13.784C78.5194 13.5723 78.9092 13.3608 79.2883 13.128C79.4832 13.0011 79.6565 12.8847 79.6565 12.8211C79.6565 12.7259 79.5699 12.6307 79.5158 12.5778C79.4833 12.5461 79.44 12.5038 79.3642 12.4509C79.3208 12.4192 79.2991 12.3874 79.2991 12.3557C79.2991 12.324 79.3208 12.3028 79.3857 12.2816C79.5266 12.2499 79.689 12.2287 79.7864 12.2287C79.9814 12.2287 80.3495 12.3557 80.7394 12.5778C81.151 12.8106 81.3891 13.0433 81.3891 13.2867C81.3891 13.4665 81.3242 13.5405 81.0534 13.5828C80.8801 13.6146 80.696 13.6674 80.5986 13.7098C80.2304 13.8686 79.8404 14.0167 79.4399 14.133C79.6132 14.1965 79.754 14.2704 79.8623 14.3445C80.1762 14.5562 80.3495 14.6408 80.3495 14.9053C80.3495 14.9688 80.3278 15.0429 80.2954 15.1275C80.2629 15.2015 80.2412 15.2861 80.2304 15.3708C80.2304 15.4131 80.2196 15.4553 80.2196 15.4977C80.4361 15.466 80.6744 15.4342 80.9127 15.392C81.1942 15.3496 81.2376 15.3284 81.3999 15.2121C81.5299 15.1169 81.7248 15.0534 81.8981 15.0534C82.1038 15.0534 82.4179 15.1275 82.7536 15.2544C83.1435 15.4025 83.3708 15.5824 83.3708 15.8574C83.3708 16.1324 83.2193 16.2489 82.8944 16.2489C82.6995 16.2489 82.4937 16.2065 82.1688 16.1643C81.8223 16.1219 81.4433 16.1219 80.9018 16.1431C80.6635 16.1536 80.4144 16.1748 80.1653 16.2065C80.0247 17.5713 79.6347 18.6822 78.7467 19.5602C78.1511 20.1738 77.2523 20.6605 76.0177 20.9249C75.9636 20.9355 75.9202 20.9461 75.877 20.9461C75.8338 20.9461 75.8012 20.9144 75.8012 20.8827C75.8012 20.8615 75.812 20.8298 75.8553 20.8087C76.884 20.2691 77.5014 19.719 77.9778 19.0313C78.5301 18.2061 78.8008 17.4444 78.92 16.3758C78.5735 16.4394 78.2053 16.5134 77.8587 16.598C77.5988 16.6615 77.2955 16.7461 77.1115 16.8519C76.9165 16.9683 76.8299 17.0317 76.6891 17.0317C76.4184 17.0317 76.1909 16.873 75.9636 16.672C75.7469 16.4816 75.4762 16.1959 75.4762 16.0055C75.4762 15.9315 75.487 15.8362 75.5086 15.7516C75.5196 15.6881 75.552 15.667 75.5844 15.667C75.6169 15.667 75.6495 15.6882 75.6819 15.7094C75.8444 15.8258 75.9744 15.8892 76.0826 15.9315C76.2017 15.9844 76.3425 16.0161 76.4833 16.0161C76.6566 16.0161 76.9381 15.9738 77.2305 15.9315C77.9127 15.8152 78.4651 15.72 78.9849 15.6459C78.9957 15.4554 78.9957 15.2544 78.9957 15.0535C78.9957 14.7678 78.9307 14.6303 78.8332 14.5033C78.7899 14.4504 78.7466 14.4081 78.6708 14.3658C78.5625 14.3975 78.4433 14.4187 78.335 14.4504H78.3352Z" fill="#D01F27"/>
<path d="M86.8902 16.9683C86.8254 16.9789 86.7277 16.9896 86.6304 17.0107C86.4247 17.053 86.3488 17.0636 86.273 17.0636C86.0673 17.0636 85.9482 17.0107 85.7532 16.7991C85.5041 16.5346 85.4393 16.4394 85.4393 16.2807C85.4393 16.1326 85.4717 16.0903 85.5367 16.0903C85.58 16.0903 85.5908 16.1008 85.6342 16.1326C85.7858 16.2385 85.8399 16.2702 85.9699 16.3125C86.1216 16.3654 86.1973 16.3759 86.3706 16.3759C86.4898 16.3759 86.663 16.3654 86.8037 16.3442C87.356 16.2807 87.7893 16.1855 88.2441 16.0797C88.4931 16.0268 88.5148 16.0162 88.6339 15.8999C88.6989 15.8364 88.8289 15.794 88.948 15.794C89.078 15.794 89.4678 15.8575 89.5761 15.8893C89.7819 15.9633 89.9226 16.1432 89.9226 16.3336C89.9226 16.5664 89.7819 16.6403 89.3053 16.6722C88.9804 16.6933 88.6339 16.7145 88.4173 16.7462C88.2765 16.7674 88.1249 16.7991 87.9842 16.8203C87.93 16.8308 87.8867 16.8308 87.8217 16.8414C87.9192 16.8837 88.0058 16.926 88.0491 16.9472C88.179 17.0318 88.2657 17.127 88.2657 17.2434C88.2657 17.328 88.2549 17.3915 88.2116 17.5079C88.1899 17.5714 88.1575 17.6772 88.1466 17.7829C88.1032 18.1003 88.0816 18.2802 88.0708 18.4706C88.1141 18.4706 88.1574 18.46 88.1899 18.46C88.818 18.386 89.2295 18.3543 89.4894 18.3543C89.6194 18.3543 89.6519 18.3225 89.7493 18.2591C89.8359 18.1956 89.9118 18.1745 90.0309 18.1745C90.215 18.1745 90.4857 18.2591 90.7565 18.3861C91.0706 18.5342 91.1896 18.6611 91.1896 18.8727C91.1896 19.1161 91.0596 19.2324 90.7998 19.2324C90.6806 19.2324 90.4315 19.2007 90.1391 19.1372C89.8684 19.0843 89.446 19.0526 89.0995 19.0526C88.6879 19.0526 88.1356 19.0843 87.7242 19.1372C87.4534 19.1689 86.6413 19.3065 86.4138 19.3594C86.1431 19.4228 85.8832 19.4863 85.6991 19.6027C85.5366 19.6979 85.4716 19.7191 85.3633 19.7191C85.1575 19.7191 84.9301 19.6133 84.7135 19.3911C84.4861 19.1794 84.3453 18.9573 84.3453 18.8092C84.3453 18.7564 84.3453 18.6716 84.3561 18.6399C84.3777 18.5659 84.4211 18.5236 84.4752 18.5236C84.5077 18.5236 84.5402 18.5553 84.5727 18.5764C84.6485 18.6293 84.8001 18.7245 84.8326 18.7457C84.9301 18.7986 85.0383 18.8197 85.1682 18.8197C85.2658 18.8197 85.3524 18.8092 85.7748 18.7564C86.2512 18.6928 86.5653 18.6505 87.0852 18.5871C87.0959 18.2168 87.1068 17.7936 87.1068 17.3809C87.1068 17.18 87.0743 17.0529 87.0202 16.9896L86.9878 16.9578L86.8902 16.9683Z" fill="#D01F27"/>
<path d="M98.4017 15.9632C98.7916 15.9421 99.0732 15.9209 99.4305 15.9104C99.6471 15.8998 100.134 15.8787 100.535 15.9844C100.968 16.0902 101.163 16.3125 101.163 16.6192C101.163 16.8943 100.957 17.0742 100.438 17.0847C99.8419 17.0952 99.3005 17.0847 98.51 17.0847C97.9902 17.0847 97.2537 17.1058 96.6907 17.1375C96.1167 17.1693 95.2937 17.2328 94.633 17.3068C94.449 17.328 94.1349 17.3703 93.9292 17.4655C93.7235 17.5608 93.626 17.5608 93.5176 17.5608C93.2361 17.5608 92.9761 17.3915 92.6946 17.1165C92.4131 16.8414 92.164 16.5558 92.164 16.196C92.164 16.1114 92.164 16.0373 92.1964 15.9315C92.2181 15.8787 92.2506 15.8363 92.283 15.8363C92.3047 15.8363 92.3264 15.8469 92.3696 15.8787C92.5321 16.0161 92.7162 16.122 92.857 16.1854C93.0195 16.2595 93.236 16.27 93.3985 16.27C93.561 16.27 93.9399 16.2489 94.1998 16.2383C95.1854 16.1854 95.9433 16.1113 96.6474 16.069C97.2429 16.0267 97.8277 15.995 98.4017 15.9631L98.4017 15.9632Z" fill="#D01F27"/>
<path d="M102.138 14.186C102.138 14.1437 102.17 14.1225 102.235 14.112C102.387 14.0907 102.538 14.0802 102.701 14.0802C103.231 14.0802 103.773 14.2072 104.174 14.4082C104.628 14.641 104.964 15.0006 104.964 15.445C104.964 15.9634 104.661 16.2279 104.184 16.2279C103.849 16.2279 103.6 16.0057 103.415 15.5825C103.134 14.9583 102.776 14.5669 102.224 14.2813C102.17 14.2601 102.138 14.2284 102.138 14.1861V14.186ZM104.585 19.6661C104.379 19.8459 104.282 19.9094 104.13 19.9094C103.849 19.9094 103.437 19.6344 103.145 19.3381C102.852 19.0314 102.625 18.7139 102.625 18.513C102.625 18.4071 102.668 18.1956 102.744 18.0263C102.777 17.9628 102.798 17.9311 102.831 17.9311C102.863 17.9311 102.896 17.9628 102.928 18.0051C103.026 18.1426 103.112 18.2272 103.188 18.2908C103.296 18.3754 103.415 18.4706 103.578 18.4706C103.762 18.4706 104.314 18.1956 104.672 18.0051C105.765 17.3915 106.794 16.6297 107.758 15.72C108.614 14.9159 109.447 14.0167 110.249 12.9376C110.27 12.9058 110.303 12.8952 110.325 12.8952C110.357 12.8952 110.379 12.9164 110.379 12.9587C110.379 13.0011 110.368 13.0328 110.357 13.0645C109.946 14.334 109.274 15.4872 108.408 16.4817C107.401 17.656 106.307 18.5553 105.278 19.2007C104.964 19.4016 104.758 19.5074 104.585 19.6661Z" fill="#D01F27"/>
<path d="M112.772 13.9955C113.779 13.0539 114.992 12.5672 116.302 12.5672C117.353 12.5672 118.273 12.8741 119.01 13.4453C120.093 14.2917 120.764 15.667 120.764 17.1269C120.764 18.2166 120.396 19.1054 119.497 19.74C118.631 20.3431 117.223 20.7345 115.154 20.8191C115.079 20.8191 115.046 20.7874 115.046 20.7556C115.046 20.7238 115.068 20.6815 115.133 20.671C116.346 20.396 117.374 19.9517 118.1 19.3592C118.912 18.7032 119.313 17.7723 119.313 16.6719C119.313 15.5716 118.901 14.5137 118.23 13.8366C117.688 13.2971 117.017 12.9902 116.248 12.9902C116.14 12.9902 116.032 13.0009 115.923 13.0114C116.086 13.1489 116.237 13.3287 116.356 13.5086C116.573 13.826 116.627 14.1328 116.627 14.4608C116.627 14.6723 116.573 15.0426 116.508 15.3706C116.205 16.8622 115.533 18.2482 114.938 18.9676C114.375 19.6447 113.725 20.0254 113.151 20.0254C112.685 20.0254 112.339 19.9091 112.144 19.2744C112.068 19.0416 111.97 18.7665 111.808 18.502C111.494 18.0048 111.191 17.6344 111.191 17.0526C111.191 15.8995 111.862 14.8415 112.772 13.9951L112.772 13.9955ZM112.447 18.2802C112.62 18.513 112.783 18.5976 113.075 18.5976C113.432 18.5976 113.822 18.3438 114.234 17.8359C114.84 17.1059 115.49 15.8152 115.782 14.5986C115.837 14.3553 115.901 14.0485 115.901 13.8475C115.901 13.6994 115.88 13.5089 115.815 13.3397C115.772 13.2338 115.717 13.1386 115.663 13.0539C114.862 13.2232 114.115 13.7416 113.508 14.4716C112.761 15.3709 112.252 16.4287 112.252 17.4973C112.252 17.8887 112.339 18.1215 112.447 18.2802L112.447 18.2802Z" fill="#D01F27"/>
<path d="M123.395 15.7517C123.666 16.2489 123.85 16.8626 123.85 17.783C123.85 18.8727 123.374 19.5815 122.67 19.5815C122.204 19.5815 121.955 19.317 121.955 18.8409C121.955 18.5023 122.193 18.2379 122.507 17.9734C123.092 17.4867 123.374 16.852 123.298 15.7729L123.395 15.7517ZM124.738 15.1381C124.738 14.6726 124.706 14.4717 124.608 14.2706L124.684 14.1966C126.298 14.4292 126.503 14.5457 126.503 14.7255C126.503 14.8631 126.406 14.916 126.092 15.0217V19.1266C126.092 19.592 126.146 19.6767 126.796 19.6767C127.835 19.6767 128.203 19.592 128.55 19.1688C128.756 18.915 129.016 18.46 129.221 17.7194L129.33 17.73C129.297 18.4283 129.297 18.7985 129.297 18.9466C129.297 19.1265 129.362 19.264 129.481 19.3804C129.644 19.5391 129.72 19.7084 129.72 19.9304C129.72 20.2162 129.59 20.4383 129.362 20.5759C129.016 20.7768 128.452 20.9779 126.817 20.9779C124.966 20.9779 124.695 20.6288 124.695 19.2852L124.738 17.3386V15.1381ZM125.637 11.8055C127.077 11.8479 128.344 12.4191 128.344 13.4559C128.344 14.0167 127.922 14.2917 127.489 14.2917C127.088 14.2917 126.872 14.1012 126.774 13.6146C126.612 12.9163 126.287 12.218 125.594 11.8901L125.637 11.8055ZM129.048 15.5401C131.019 16.0902 131.853 17.2963 131.853 18.4177C131.853 19.0313 131.441 19.3381 130.998 19.3381C130.597 19.3381 130.359 19.1477 130.304 18.5976C130.164 17.2222 129.795 16.2384 128.994 15.6247L129.048 15.5401Z" fill="#D01F27"/>
<path d="M141.209 15.0535C141.415 14.7572 141.556 14.5773 141.643 14.4611C141.599 14.387 141.567 14.2918 141.534 14.1648C141.437 13.7946 141.231 13.456 140.841 13.2127L140.874 13.1492C142.151 13.2338 142.606 13.6147 142.606 14.0801C142.606 14.334 142.487 14.4822 142.347 14.5668C142.379 14.5985 142.411 14.6197 142.444 14.6514C142.791 14.9688 142.834 15.0216 142.834 15.1063C142.834 15.2122 142.78 15.2439 142.617 15.2439H141.004C141.004 15.4661 141.004 15.6565 141.014 15.9845C141.025 16.4711 141.069 16.9578 141.144 17.4128C141.22 17.1589 141.296 16.8944 141.361 16.6511C141.458 16.249 141.469 16.1115 141.448 15.974L141.534 15.9211C142.704 16.4183 142.78 16.4711 142.78 16.5982C142.78 16.6934 142.715 16.7463 142.39 16.7886C142.13 17.4975 141.837 18.1533 141.48 18.7352C141.513 18.8622 141.567 18.9786 141.61 19.095C141.751 19.4335 141.881 19.6345 141.989 19.6345C142.076 19.6345 142.184 19.5604 142.303 19.37C142.444 19.1478 142.595 18.9257 142.78 18.5448L142.877 18.5872C142.595 19.5921 142.53 19.8461 142.53 20.0366C142.53 20.2058 142.563 20.3116 142.65 20.4385C142.736 20.5761 142.812 20.7347 142.812 20.9146C142.812 21.2108 142.682 21.4118 142.281 21.4118C141.816 21.4118 141.22 20.8616 140.798 19.8673C140.776 19.8144 140.754 19.7614 140.722 19.698C140.018 20.4385 139.043 21.0204 137.646 21.4118L137.582 21.3272C138.545 20.7983 139.173 20.3116 139.65 19.8038H138.177V20.0366C138.177 20.4174 137.939 20.5232 137.603 20.5232C137.387 20.5232 137.354 20.5126 137.354 20.2799L137.419 17.3811V16.5559C137.419 16.1539 137.419 15.9846 137.343 15.8153L137.408 15.7413C138.069 15.9634 138.296 16.0587 138.361 16.1433H139.141C139.477 15.699 139.531 15.6461 139.607 15.6461C139.65 15.6461 139.726 15.6778 139.91 15.8365C139.942 15.8682 139.964 15.8895 139.996 15.9106C139.986 15.6884 139.986 15.4663 139.975 15.2441H137.462C137.419 15.3076 137.311 15.3711 137.137 15.4239V16.4713C137.137 19.4865 136.672 20.4493 135.426 21.4014L135.351 21.3379C136.011 20.3222 136.141 19.6451 136.141 17.0003V15.5086C136.141 15.0537 136.109 14.8104 136.055 14.6622L136.13 14.5882C137.094 14.8527 137.387 14.9585 137.473 15.0537H139.975V14.6834C139.975 14.4084 139.964 14.2179 139.921 14.0592H139.715C139.488 14.0592 139.444 14.0487 139.444 13.7842L139.466 12.9484H138.513L138.535 13.7207C138.535 14.091 138.242 14.2074 137.603 14.2074C137.376 14.2074 137.333 14.1969 137.333 13.9322L137.365 12.959C136.726 12.9695 136.39 12.9906 136.066 13.033L135.99 12.7473C135.936 12.7897 135.838 12.8321 135.687 12.906V16.429L135.719 20.0684C135.719 20.9572 134.907 21.3802 134.506 21.3802C134.344 21.3802 134.311 21.3485 134.279 21.1157C134.246 20.7455 134.04 20.407 133.423 20.2588V20.1425C133.77 20.153 134.084 20.1319 134.257 20.1001C134.528 20.0578 134.636 19.9732 134.636 19.603V17.2014H133.878C133.78 18.4287 133.575 19.2009 133.315 19.8462C133.087 20.4176 132.827 20.8196 132.513 21.2428L132.427 21.1793C132.611 20.5762 132.698 20.1108 132.784 19.4548C132.892 18.6508 132.936 17.6986 132.936 15.6673V12.8003C132.936 12.1232 132.914 11.9751 132.817 11.7741L132.892 11.7C133.694 11.9645 134.051 12.0915 134.159 12.2079H134.495C134.809 11.8058 134.896 11.6895 135.004 11.6895C135.134 11.6895 135.221 11.7318 135.621 12.081C135.968 12.3877 136.055 12.5041 136.055 12.5993C136.055 12.631 136.055 12.6522 136.044 12.6839C136.477 12.7262 136.921 12.7368 137.365 12.7473V12.1973C137.365 11.8482 137.354 11.6789 137.289 11.5308L137.354 11.4672C138.545 11.6365 138.805 11.7211 138.805 11.8482C138.805 11.9752 138.751 12.028 138.502 12.102V12.758H139.477V12.1973C139.477 11.8482 139.466 11.6789 139.401 11.5308L139.466 11.4672C140.754 11.6472 140.939 11.7317 140.939 11.8587C140.939 11.9857 140.884 12.0385 140.635 12.1126V12.758H140.993C141.545 12.0068 141.632 11.9328 141.729 11.9328C141.816 11.9328 141.902 11.9857 142.336 12.3454C142.704 12.6521 142.725 12.7262 142.725 12.8108C142.725 12.9166 142.671 12.9484 142.509 12.9484H140.646L140.668 13.5726C140.668 13.7524 140.592 13.8795 140.43 13.9535C141.274 14.0593 141.383 14.1651 141.383 14.3026C141.383 14.4084 141.274 14.4614 141.025 14.5142C141.014 14.7364 141.014 14.9057 141.014 15.0538H141.209V15.0535ZM134.636 14.7255H133.932V15.5825C133.932 16.1114 133.921 16.5875 133.889 17.0107H134.636L134.636 14.7255ZM134.636 12.398H134.16C134.127 12.4298 134.062 12.4721 133.932 12.5356V14.5351H134.636L134.636 12.398ZM138.361 16.3336C138.329 16.3759 138.275 16.3971 138.177 16.4394V17.2751H138.502V16.3335H138.361L138.361 16.3336ZM139.325 17.4655H138.177V18.386H139.325V17.4655ZM138.502 18.5764H138.177V19.6133H138.502V18.5764ZM140.105 17.2434C140.061 16.9472 140.029 16.6403 140.018 16.3336H139.336C139.314 16.4288 139.282 16.471 139.195 16.524V17.2752H139.293C139.531 16.9578 139.596 16.8943 139.639 16.8943C139.704 16.8943 139.791 16.9472 140.029 17.1694L140.105 17.2434ZM139.325 19.6133C139.672 19.1689 139.726 19.1161 139.791 19.1161C139.856 19.1161 139.921 19.1372 140.094 19.2959C140.213 19.1371 140.321 18.9785 140.43 18.8197C140.332 18.4495 140.246 18.0793 140.181 17.6983C140.148 17.7195 140.105 17.7513 140.062 17.7829V18.0051L140.105 18.4811C140.105 18.7563 139.877 18.862 139.607 18.862C139.358 18.862 139.325 18.8303 139.325 18.5976C139.304 18.6715 139.271 18.7139 139.195 18.7563V19.6132H139.325L139.325 19.6133Z" fill="#D01F27"/>
</g>
<defs>
<clipPath id="clip0_564_818">
<rect width="153" height="27" fill="white"/>
</clipPath>
</defs>
</svg>
