<svg width="72" height="72" viewBox="0 0 72 72" fill="none" xmlns="http://www.w3.org/2000/svg">
<path d="M55.6464 24.1114H49.2903C48.584 24.1114 47.8778 23.7904 47.3642 23.2767L44.796 20.3876C44.0256 19.5529 42.8057 19.4887 41.9069 20.195L41.7143 20.3876L39.5314 22.8915C38.8251 23.7262 37.7337 24.1756 36.6422 24.1756H1.90828C0.945232 27.0005 0.3032 30.0181 0.0463867 33.0357H32.9184C33.4963 33.0357 34.0741 32.7789 34.4593 32.3937L37.5411 29.1835C37.9263 28.7983 38.4399 28.5414 39.0178 28.5414H39.1462C39.724 28.5414 40.3018 28.7983 40.687 29.2477L43.2552 32.1368C43.7688 32.7147 44.475 33.0357 45.1813 33.0357H71.954C71.6972 30.0181 71.0552 27.0005 70.0921 24.1756H55.6464V24.1114ZM34.5877 41.8316L32.0196 38.9424C31.2492 38.1078 30.0293 38.0436 29.1305 38.7498L28.9378 38.9424L26.6907 41.4464C25.9845 42.281 24.9572 42.7304 23.8658 42.7304H0.560013C1.13784 45.8122 2.16509 48.8298 3.51336 51.7189H19.8852C20.463 51.7189 20.9766 51.4621 21.4261 51.0769L24.5078 47.8667C24.893 47.4815 25.4067 47.2247 25.9845 47.2247H26.1129C26.6907 47.2247 27.2686 47.4815 27.6538 47.9309L30.2219 50.8201C30.7355 51.3979 31.4418 51.7189 32.148 51.7189H68.487C69.8353 48.894 70.8626 45.8764 71.4404 42.7304H36.5138C35.7434 42.7304 35.0372 42.4094 34.5877 41.8316ZM47.1716 13.8388L50.2533 10.6286C50.6385 10.2434 51.1522 9.98659 51.73 9.98659H51.8584C52.4362 9.98659 53.0141 10.2434 53.3993 10.6286L55.9674 13.5178C56.481 14.0956 57.1873 14.3524 57.8935 14.3524H64.8275C52.7573 -1.57006 30.0935 -4.71604 14.1069 7.29004C11.4746 9.28035 9.09904 11.6559 7.04454 14.3524H45.6307C46.2727 14.4808 46.7864 14.224 47.1716 13.8388ZM22.3249 60.579C21.5545 60.579 20.8482 60.258 20.3988 59.7444L17.8307 56.8552C17.0602 56.0206 15.7762 55.9564 14.9415 56.7268L14.8131 56.8552L12.566 59.3592C11.8598 60.1938 10.8325 60.6432 9.74108 60.6432H9.61267C23.1596 75.1533 46.0801 75.8595 60.6543 62.1841C61.2321 61.6705 61.7457 61.0927 62.3235 60.5148H22.3249V60.579Z" fill="#6AD5AA"/>
</svg>
