<svg width="512" height="512" viewBox="0 0 512 512" fill="none" xmlns="http://www.w3.org/2000/svg">
<mask id="mask0_11270_2095" style="mask-type:luminance" maskUnits="userSpaceOnUse" x="24" y="0" width="464" height="512">
<path d="M488 0H24V512H488V0Z" fill="white"/>
</mask>
<g mask="url(#mask0_11270_2095)">
<path d="M294.885 294.906L269.499 362.872C268.75 364.757 268.75 366.851 269.499 368.736L313.093 485.715L363.542 457.229L303.025 294.906C301.632 291.136 296.277 291.136 294.885 294.906Z" fill="#12AAFF"/>
<path d="M345.65 180.545C344.258 176.776 338.902 176.776 337.51 180.545L312.125 248.512C311.374 250.398 311.374 252.493 312.125 254.377L383.566 445.92L434.016 417.433L345.65 180.545Z" fill="#12AAFF"/>
<path fill-rule="evenodd" clip-rule="evenodd" d="M259.642 32.6742C258.464 32.0458 257.285 31.7317 256 31.7317C254.822 31.7317 253.536 32.0458 252.466 32.6742L60.096 141.274C57.8467 142.531 56.4542 144.835 56.4542 147.348V364.653C56.4542 367.165 57.8467 369.469 60.096 370.726L140.145 415.943L128.875 446.128L148.904 457.439L173.928 435.025L252.358 479.326C253.536 479.954 254.715 480.269 256 480.269C257.285 480.269 258.571 479.954 259.642 479.326L452.011 370.621C454.261 369.365 455.653 367.061 455.653 364.547V147.348C455.653 144.835 454.261 142.531 452.011 141.274L259.642 32.6742ZM236.184 5.23624C242.29 1.78032 249.146 0 256 0C262.854 0 269.71 1.78032 275.923 5.23624L468.184 113.731C480.395 120.643 488 133.524 488 147.348V364.547C488 378.475 480.502 391.253 468.184 398.165L275.816 506.763C269.71 510.219 262.854 512 256 512C249.146 512 242.29 510.219 236.184 506.763L43.8154 398.165C31.6048 391.253 24 378.371 24 364.547V147.348C24 133.524 31.6048 120.748 43.8154 113.836L236.184 5.23624Z" fill="#213147"/>
<path d="M239.821 131.848H191.086C187.445 131.848 184.123 134.047 182.945 137.398L78.4062 417.642L128.855 446.126L243.998 137.503C244.962 134.78 242.926 131.848 239.821 131.848Z" fill="#213147"/>
<path d="M325.178 131.848H276.443C272.802 131.848 269.48 134.047 268.302 137.398L148.875 457.437L199.323 485.923L329.248 137.607C330.318 134.78 328.178 131.848 325.178 131.848Z" fill="#213147"/>
</g>
</svg>
