<svg width="80" height="80" viewBox="0 0 80 80" fill="none" xmlns="http://www.w3.org/2000/svg">
<path fill-rule="evenodd" clip-rule="evenodd" d="M76 40C76 59.8822 59.8822 76 40 76C20.1178 76 4 59.8822 4 40C4 20.1178 20.1178 4 40 4C59.8822 4 76 20.1178 76 40ZM29.7987 54.3254H22.8121C21.3441 54.3254 20.6189 54.3254 20.1766 54.0424C19.6991 53.7329 19.4072 53.22 19.3718 52.654C19.3453 52.1322 19.7079 51.4954 20.4331 50.2219L37.6839 19.8151C38.4179 18.5239 38.7894 17.8783 39.2581 17.6395C39.7622 17.3831 40.3636 17.3831 40.8677 17.6395C41.3364 17.8783 41.7079 18.5239 42.4419 19.8151L45.9882 26.0057L46.0064 26.0373C46.7992 27.4226 47.2012 28.125 47.3767 28.8623C47.5712 29.6671 47.5712 30.516 47.3767 31.3208C47.1999 32.0638 46.8018 32.7713 45.997 34.1775L36.9357 50.1954L36.9122 50.2365C36.1141 51.6331 35.7097 52.3408 35.1492 52.8751C34.539 53.4588 33.805 53.8832 33.0002 54.122C32.2662 54.3254 31.4437 54.3254 29.7987 54.3254ZM47.4422 54.3262H57.4534C58.9303 54.3262 59.6731 54.3262 60.1154 54.0344C60.5929 53.7248 60.8936 53.203 60.9202 52.6371C60.9458 52.1325 60.591 51.5203 59.8958 50.3209C59.8721 50.28 59.848 50.2385 59.8235 50.1962L54.8091 41.6177L54.752 41.5212C54.0473 40.3295 53.6915 39.7278 53.2349 39.4952C52.7308 39.2387 52.1383 39.2387 51.6342 39.4952C51.1742 39.7339 50.8028 40.3619 50.0688 41.6265L45.072 50.205L45.0549 50.2346C44.3235 51.4972 43.9579 52.1282 43.9843 52.646C44.0196 53.2119 44.3114 53.7337 44.7891 54.0432C45.2224 54.3262 45.9652 54.3262 47.4422 54.3262Z" fill="#E84142"/>
</svg>
