<svg width="80" height="80" viewBox="0 0 80 80" fill="none" xmlns="http://www.w3.org/2000/svg">
<path fill-rule="evenodd" clip-rule="evenodd" d="M56.8242 50.9604V46.8463C59.3564 45.9778 61.2005 43.2808 61.2005 40.0886C61.2005 36.8964 59.3564 34.1918 56.8242 33.3309V29.2168C59.2089 28.4016 60.9874 25.956 61.1841 23H58.2829V24.2571C58.2829 25.2246 57.693 26.0779 56.8242 26.5046V25.9179C56.8242 25.057 56.0703 24.3561 55.1444 24.3561H54.9968C54.0708 24.3561 53.3167 25.057 53.3167 25.9179V26.5046C52.4481 26.0779 51.8579 25.2323 51.8579 24.2571V23H48.9571C49.1538 25.956 50.932 28.4016 53.3167 29.2168V33.3309C50.7926 34.1918 48.9407 36.8888 48.9407 40.0886C48.9407 43.2884 50.7844 45.9854 53.3167 46.8463V50.9604C50.932 51.7756 49.1538 54.2212 48.9571 57.1771H51.8579V55.92C51.8579 54.9525 52.4481 54.0991 53.3167 53.6726V54.2593C53.3167 55.1203 54.0708 55.8211 54.9968 55.8211H55.1444C56.0703 55.8211 56.8242 55.1203 56.8242 54.2593V53.6726C57.693 54.0991 58.2829 54.9449 58.2829 55.92V57.1771H61.1841C60.9874 54.2212 59.2089 51.7756 56.8242 50.9604ZM51.8579 41.8866V38.283C51.8579 37.3154 52.4481 36.4621 53.3167 36.0355V36.6221C53.3167 37.483 54.0708 38.1839 54.9968 38.1839H55.1444C56.0703 38.1839 56.8242 37.483 56.8242 36.6221V36.0355C57.693 36.4621 58.2829 37.3078 58.2829 38.283V41.8866C58.2829 42.8541 57.693 43.7074 56.8242 44.1341V43.5475C56.8242 42.6865 56.0703 41.9856 55.1444 41.9856H54.9968C54.0708 41.9856 53.3167 42.6865 53.3167 43.5475V44.1341C52.4563 43.7074 51.8579 42.8618 51.8579 41.8866ZM74.6237 42.2751V37.8944C77.156 37.0259 79 34.3289 79 31.1367C79 27.9445 77.156 25.2399 74.6237 24.379V23H71.1244V24.379C68.5922 25.2475 66.7484 27.9445 66.7484 31.1367C66.7484 34.3289 68.5922 37.0335 71.1244 37.8944V42.2751C68.5922 43.1436 66.7484 45.8407 66.7484 49.0329C66.7484 52.2251 68.5922 54.9297 71.1244 55.7906V57.1695H74.6237V55.7906C77.156 54.9221 79 52.2251 79 49.0329C79 45.8407 77.156 43.1436 74.6237 42.2751ZM69.6575 32.9347V29.3311C69.6575 28.3635 70.2477 27.5102 71.1162 27.0836V27.6702C71.1162 28.5311 71.8704 29.232 72.7963 29.232H72.9357C73.8617 29.232 74.6155 28.5311 74.6155 27.6702V27.0836C75.4844 27.5102 76.0743 28.3559 76.0743 29.3311V32.9347C76.0743 33.9022 75.4844 34.7556 74.6155 35.1822V34.5955C74.6155 33.7346 73.8617 33.0337 72.9357 33.0337H72.7881C71.8622 33.0337 71.108 33.7346 71.108 34.5955V35.1822C70.2559 34.7556 69.6575 33.9099 69.6575 32.9347ZM76.0825 50.8385C76.0825 51.806 75.4926 52.6594 74.6237 53.0859V52.2251C74.6237 51.3641 73.8699 50.6632 72.9439 50.6632H72.8045C71.8786 50.6632 71.1244 51.3641 71.1244 52.2251V53.0859C70.2559 52.6594 69.6657 51.8136 69.6657 50.8385V47.2348C69.6657 46.2673 70.2559 45.414 71.1244 44.9873V45.2997C71.1244 46.1606 71.8786 46.8615 72.8045 46.8615H72.9521C73.878 46.8615 74.6319 46.1606 74.6319 45.2997V44.9873C75.5008 45.414 76.0907 46.2597 76.0907 47.2348V50.8385H76.0825ZM36.6321 36.0967C36.6977 36.2566 36.7386 36.4242 36.7714 36.5995C36.9883 37.8093 37.7151 38.6846 38.5064 39.6377C39.6885 41.0614 41.0146 42.6585 40.9999 45.8028C40.9999 51.1587 37.1236 55.3793 29.2073 55.3793H25.9621C25.9539 55.4021 24.6181 57.1621 21.8728 57.1621C20.496 57.2078 19.8978 57.1469 19.8978 57.1469C17.4074 57.0518 16.1524 55.512 16.0452 55.3805C16.041 55.3753 16.0385 55.3723 16.0379 55.3717H12.7927C4.87625 55.3717 1 51.1511 1 45.7952C1 42.6494 2.32937 41.0533 3.51299 39.6321C4.30732 38.6784 5.03602 37.8035 5.25322 36.5919C5.28601 36.4242 5.33519 36.2566 5.39254 36.089C5.36795 36.0586 -0.0653553 29.0037 4.96641 24.6458C9.95239 20.3276 15.7672 25.8689 15.9044 25.9997C15.9057 26.0009 15.9065 26.0017 15.9068 26.002C16.8328 25.7353 17.7671 25.5677 18.6931 25.4915C18.6931 25.4915 21.3811 25.1944 23.2987 25.4915H23.3069C24.2411 25.5677 25.1836 25.7353 26.1178 26.0096C26.1181 26.0093 26.1189 26.0086 26.1201 26.0074C26.2558 25.878 32.0716 20.3347 37.0583 24.6535C41.9917 28.9194 36.8816 35.7624 36.6407 36.085C36.6355 36.0919 36.6326 36.0958 36.6321 36.0967Z" fill="#2C1A16"/>
</svg>
