<svg width="512" height="512" viewBox="0 0 512 512" fill="none" xmlns="http://www.w3.org/2000/svg">
<g clip-path="url(#clip0_11270_2119)">
<path fill-rule="evenodd" clip-rule="evenodd" d="M194.048 504.336C331.223 538.535 470.142 455.072 504.337 317.93C538.533 180.779 455.068 41.8524 317.902 7.66069C180.767 -26.531 41.8481 56.9401 7.66849 194.099C-26.5431 331.233 56.9298 470.144 194.048 504.336ZM312.582 154.939C348.049 167.154 373.988 185.466 368.892 219.53C365.203 244.466 351.378 256.538 333.024 260.77C358.227 273.889 371.052 294.009 358.835 328.889C343.673 372.208 307.653 375.864 259.752 366.8L248.127 413.384L220.036 406.384L231.509 360.425C224.228 358.617 216.788 356.697 209.123 354.617L197.61 400.792L169.551 393.792L181.176 347.12C178.553 346.449 175.914 345.761 173.256 345.068C169.265 344.027 165.232 342.975 161.15 341.953L124.594 332.841L138.539 300.689C138.539 300.689 159.238 306.193 158.958 305.785C166.91 307.753 170.439 302.569 171.831 299.113L190.201 225.474C190.889 225.639 191.564 225.808 192.214 225.971C192.539 226.053 192.858 226.133 193.169 226.21C192.049 225.762 191.033 225.474 190.249 225.274L203.354 172.706C203.698 166.738 201.642 159.21 190.265 156.37C190.705 156.074 169.863 151.298 169.863 151.298L177.335 121.299L216.075 130.971L216.043 131.115C221.868 132.563 227.869 133.939 233.981 135.331L245.495 89.2031L273.57 96.2031L262.288 141.427C269.825 143.147 277.41 144.883 284.795 146.723L295.996 101.795L324.087 108.795L312.582 154.939ZM223.728 322.238C246.649 328.292 296.744 341.521 304.709 309.521C312.87 276.802 264.286 265.901 240.579 260.582C237.93 259.988 235.591 259.463 233.677 258.985L218.252 320.817C219.824 321.207 221.666 321.694 223.728 322.238ZM245.342 231.888C264.452 236.987 306.137 248.11 313.398 219.026C320.812 189.277 280.299 180.309 260.512 175.929C258.287 175.437 256.323 175.002 254.72 174.602L240.734 230.682C242.055 231.011 243.605 231.425 245.342 231.888Z" fill="#E9983D"/>
</g>
<defs>
<clipPath id="clip0_11270_2119">
<rect width="512" height="512" fill="white"/>
</clipPath>
</defs>
</svg>
