<svg width="80" height="80" viewBox="0 0 80 80" fill="none" xmlns="http://www.w3.org/2000/svg">
<path d="M20.9662 15.1232L40 4.13672L59.0339 15.1232L52.036 19.1819L40 12.2541L27.9639 19.1819L20.9662 15.1232ZM59.0339 28.9786L52.036 24.92L40 31.8477L27.9639 24.92L20.9662 28.9786V37.0961L33.0022 44.0237V57.8792L40 61.938L46.9978 57.8792V44.0237L59.0339 37.0961V28.9786ZM59.0339 50.9516V42.8342L52.036 46.8927V55.0101L59.0339 50.9516ZM64.0022 53.8206L51.9661 60.7482V68.8656L71 57.8792V35.9063L64.0022 39.9651V53.8206ZM57.0046 22.0509L64.0022 26.1096V34.227L71 30.1683V22.0509L64.0022 17.9922L57.0046 22.0509ZM33.0022 63.6875V71.8049L40 75.8635L46.9978 71.8049V63.6875L40 67.7461L33.0022 63.6875ZM20.9662 50.9516L27.9639 55.0101V46.8927L20.9662 42.8342V50.9516ZM33.0022 22.0509L40 26.1096L46.9978 22.0509L40 17.9922L33.0022 22.0509ZM15.9977 26.1096L22.9955 22.0509L15.9977 17.9922L9 22.0509V30.1683L15.9977 34.227V26.1096ZM15.9977 39.9651L9 35.9063V57.8792L28.0338 68.8656V60.7482L15.9977 53.8206V39.9651Z" fill="#F0B90B"/>
</svg>
