<svg width="80" height="80" viewBox="0 0 80 80" fill="none" xmlns="http://www.w3.org/2000/svg">
<path opacity="0.8" fill-rule="evenodd" clip-rule="evenodd" d="M17.9683 46.8657C17.5048 46.6009 17.0045 47.1493 17.3106 47.5866L39.1808 78.8297C39.5789 79.3985 40.4211 79.3985 40.8192 78.8297L62.6894 47.5866C62.9955 47.1493 62.4952 46.6009 62.0317 46.8657L41.9846 58.3213C40.7548 59.024 39.2452 59.024 38.0154 58.3213L17.9683 46.8657Z" fill="#010101"/>
<path opacity="0.45" fill-rule="evenodd" clip-rule="evenodd" d="M12.6279 39.1029C12.2913 39.5849 12.4411 40.2519 12.9516 40.5436L39.5039 55.7164C39.6576 55.8042 39.8288 55.8481 40 55.8481V0.743652C39.69 0.743653 39.3801 0.885709 39.181 1.16982C39.1809 1.16994 39.1808 1.17007 39.1808 1.17019L12.6285 39.1019C12.6283 39.1023 12.6281 39.1026 12.6279 39.1029Z" fill="#010101"/>
<path opacity="0.8" fill-rule="evenodd" clip-rule="evenodd" d="M40.8192 1.17019C40.6202 0.885831 40.3101 0.743652 40 0.743652V55.8481C40.1712 55.8481 40.3424 55.8042 40.4961 55.7164L67.0484 40.5436C67.559 40.2519 67.7087 39.5846 67.3719 39.1026C67.3718 39.1024 67.3716 39.1022 67.3715 39.1019L40.8192 1.17019Z" fill="#010101"/>
<path opacity="0.6" fill-rule="evenodd" clip-rule="evenodd" d="M12.9516 40.5439L39.5039 55.7166C39.8113 55.8923 40.1887 55.8923 40.4962 55.7166L67.0484 40.5439C67.1555 40.4827 67.2468 40.4049 67.321 40.3157C67.5664 40.0211 67.3386 39.6221 67.0057 39.4319L40.4962 24.2836C40.1887 24.1079 39.8113 24.1079 39.5039 24.2836L12.9944 39.4319C12.6614 39.6221 12.4336 40.0211 12.679 40.3157C12.7532 40.4049 12.8445 40.4827 12.9516 40.5439Z" fill="#010101"/>
</svg>
