<svg width="80" height="80" viewBox="0 0 80 80" fill="none" xmlns="http://www.w3.org/2000/svg">
<path fill-rule="evenodd" clip-rule="evenodd" d="M39.9885 4C50.2265 4 59.4857 8.28407 66.0269 15.1478C66.9252 16.0921 67.7774 17.0595 68.549 18.096L39.9885 46.6795L11.428 18.096C12.2227 17.071 13.0633 16.0921 13.9501 15.1478C20.4914 8.28407 29.7505 4 39.9885 4ZM62.1229 17.8772C56.238 11.9578 48.4185 8.71018 39.9885 8.71018C31.5701 8.71018 23.739 11.9463 17.8541 17.8772L39.9885 40.0116L62.1229 17.8772ZM70.7947 21.332L64.9905 27.1363C66.9137 29.4395 68.0653 32.3877 68.0653 35.6123C68.0653 42.9136 62.1229 48.8561 54.8215 48.8561C51.6085 48.8561 48.6488 47.6929 46.3455 45.7812L39.9885 52.1382L33.6315 45.7812C31.3282 47.7044 28.3801 48.8561 25.1555 48.8561C17.8541 48.8561 11.9117 42.9136 11.9117 35.6123C11.9117 32.3992 13.0749 29.4395 14.9866 27.1363L12.0154 24.165L9.19386 21.3435C5.90019 26.7908 4 33.1708 4 40C4 59.8772 20.1113 76 40 76C59.8887 76 76.0001 59.8887 76.0001 40C75.9885 33.1593 74.0884 26.7908 70.7947 21.332ZM62.2381 29.9002C63.4588 31.4895 64.1843 33.4703 64.1843 35.6238C64.1843 40.7831 59.9924 44.9866 54.8331 44.9636C52.6795 44.9636 50.6872 44.2495 49.1095 43.0173L62.2381 29.9002ZM30.8791 43.0404C29.2898 44.2611 27.309 44.9866 25.1555 44.9866C19.9962 44.9866 15.8042 40.7832 15.8042 35.6354C15.8042 33.4818 16.5182 31.4895 17.7505 29.9117L30.8791 43.0404Z" fill="#32735A"/>
</svg>
