<svg width="80" height="80" viewBox="0 0 80 80" fill="none" xmlns="http://www.w3.org/2000/svg">
<path d="M60.5813 9.45289L46.3618 30.5556C46.1314 30.8601 46.0248 31.2407 46.0636 31.6206C46.1024 32.0006 46.2836 32.3517 46.5708 32.6035C46.8579 32.8553 47.2298 32.989 47.6116 32.9777C47.9933 32.9664 48.3566 32.811 48.6284 32.5427L62.5987 20.416C62.6793 20.342 62.78 20.2933 62.888 20.276C62.9961 20.2587 63.1069 20.2735 63.2067 20.3185C63.3064 20.3636 63.3908 20.4369 63.4492 20.5295C63.5077 20.622 63.5377 20.7297 63.5356 20.8391V58.836C63.5344 58.9514 63.4981 59.0636 63.4314 59.1578C63.3648 59.252 63.271 59.3235 63.1626 59.363C63.0541 59.4024 62.9363 59.4078 62.8247 59.3784C62.7131 59.3491 62.6132 59.2864 62.5382 59.1987L20.2271 8.57644C19.5505 7.77357 18.7075 7.12733 17.7565 6.68247C16.8054 6.2376 15.769 6.00474 14.7191 6L13.2458 6C11.3241 6 9.48109 6.76339 8.12224 8.12224C6.76339 9.48109 6 11.3241 6 13.2458L6 66.7542C6 68.6759 6.76339 70.5189 8.12224 71.8778C9.48109 73.2366 11.3241 74 13.2458 74C14.484 73.9999 15.7015 73.6824 16.7822 73.0779C17.8628 72.4734 18.7705 71.6021 19.4187 70.5471L33.6382 49.4444C33.8686 49.1399 33.9752 48.7593 33.9364 48.3794C33.8976 47.9994 33.7164 47.6483 33.4292 47.3965C33.1421 47.1447 32.7702 47.011 32.3884 47.0223C32.0067 47.0336 31.6434 47.189 31.3716 47.4573L17.4013 59.584C17.3207 59.658 17.22 59.7067 17.112 59.724C17.0039 59.7413 16.8931 59.7265 16.7933 59.6815C16.6936 59.6364 16.6092 59.5631 16.5508 59.4705C16.4923 59.378 16.4623 59.2703 16.4644 59.1609V21.164C16.4656 21.0486 16.5019 20.9364 16.5686 20.8422C16.6352 20.748 16.729 20.6765 16.8374 20.637C16.9458 20.5976 17.0637 20.5922 17.1753 20.6216C17.2869 20.6509 17.3868 20.7136 17.4618 20.8013L59.7729 71.4236C60.4495 72.2264 61.2925 72.8727 62.2435 73.3175C63.1946 73.7624 64.2309 73.9953 65.2809 74H66.792C68.7071 73.99 70.5405 73.2222 71.8911 71.8644C73.2418 70.5067 74 68.6694 74 66.7542V13.2458C74 11.3241 73.2366 9.48109 71.8778 8.12224C70.5189 6.76339 68.6759 6 66.7542 6V6C65.516 6.00015 64.2985 6.31761 63.2178 6.92208C62.1372 7.52655 61.2295 8.39787 60.5813 9.45289Z" fill="#5F8AFA"/>
</svg>
