
<svg width="2500" height="2400" viewBox="0 0 25 24" fill="none" xmlns="http://www.w3.org/2000/svg">
<g id="Group 12">
<path id="Vector" d="M12.2495 4.94301C14.581 4.94301 16.471 3.84325 16.471 2.48664C16.471 1.13003 14.581 0.0302734 12.2495 0.0302734C9.91795 0.0302734 8.02789 1.13003 8.02789 2.48664C8.02789 3.84325 9.91795 4.94301 12.2495 4.94301Z" fill="#E6007A"/>
<path id="Vector_2" d="M12.2495 23.4445C14.581 23.4445 16.471 22.3447 16.471 20.9881C16.471 19.6315 14.581 18.5317 12.2495 18.5317C9.91795 18.5317 8.02789 19.6315 8.02789 20.9881C8.02789 22.3447 9.91795 23.4445 12.2495 23.4445Z" fill="#E6007A"/>
<path id="Vector_3" d="M6.36534 8.34018C7.5311 6.32104 7.52371 4.13432 6.34885 3.45601C5.17398 2.77771 3.27654 3.86467 2.11078 5.88381C0.94503 7.90296 0.952415 10.0897 2.12728 10.768C3.30214 11.4463 5.19959 10.3593 6.36534 8.34018Z" fill="#E6007A"/>
<path id="Vector_4" d="M22.3879 17.5912C23.5537 15.572 23.5463 13.3853 22.3714 12.707C21.1966 12.0287 19.2991 13.1156 18.1334 15.1348C16.9676 17.1539 16.975 19.3406 18.1499 20.019C19.3247 20.6973 21.2222 19.6103 22.3879 17.5912Z" fill="#E6007A"/>
<path id="Vector_5" d="M6.34885 20.0186C7.52371 19.3403 7.5311 17.1536 6.36534 15.1344C5.19959 13.1153 3.30214 12.0283 2.12728 12.7066C0.952415 13.3849 0.945031 15.5717 2.11078 17.5908C3.27654 19.6099 5.17398 20.6969 6.34885 20.0186Z" fill="#E6007A"/>
<path id="Vector_6" d="M22.3714 10.7681C23.5463 10.0898 23.5537 7.90308 22.3879 5.88394C21.2222 3.8648 19.3247 2.77783 18.1499 3.45614C16.975 4.13445 16.9676 6.32117 18.1334 8.34031C19.2991 10.3595 21.1966 11.4464 22.3714 10.7681Z" fill="#E6007A"/>
</g>
</svg>
