<svg width="80" height="80" viewBox="0 0 80 80" fill="none" xmlns="http://www.w3.org/2000/svg">
<path d="M40.0001 19.5382C47.0216 19.5382 52.7136 16.2262 52.7136 12.1407C52.7136 8.05514 47.0216 4.74316 40.0001 4.74316C32.9786 4.74316 27.2866 8.05514 27.2866 12.1407C27.2866 16.2262 32.9786 19.5382 40.0001 19.5382Z" fill="#E6007A"/>
<path d="M40.0001 75.2564C47.0216 75.2564 52.7136 71.9445 52.7136 67.8589C52.7136 63.7734 47.0216 60.4614 40.0001 60.4614C32.9786 60.4614 27.2866 63.7734 27.2866 67.8589C27.2866 71.9445 32.9786 75.2564 40.0001 75.2564Z" fill="#E6007A"/>
<path d="M22.2799 29.7691C25.7907 23.6884 25.7684 17.1029 22.2303 15.0602C18.6921 13.0174 12.9778 16.2909 9.4671 22.3716C5.95636 28.4524 5.97861 35.0378 9.51677 37.0806C13.0549 39.1233 18.7692 35.8499 22.2799 29.7691Z" fill="#E6007A"/>
<path d="M70.5329 57.6285C74.0436 51.5477 74.0214 44.9623 70.4832 42.9195C66.945 40.8768 61.2308 44.1502 57.72 50.231C54.2093 56.3118 54.2315 62.8972 57.7697 64.94C61.3079 66.9827 67.0221 63.7093 70.5329 57.6285Z" fill="#E6007A"/>
<path d="M22.2303 64.9398C25.7684 62.8971 25.7907 56.3117 22.2799 50.2309C18.7692 44.1501 13.0549 40.8767 9.51677 42.9194C5.9786 44.9622 5.95637 51.5476 9.4671 57.6284C12.9778 63.7092 18.6921 66.9826 22.2303 64.9398Z" fill="#E6007A"/>
<path d="M70.4832 37.081C74.0214 35.0382 74.0436 28.4528 70.5329 22.372C67.0221 16.2912 61.3079 13.0178 57.7697 15.0605C54.2315 17.1033 54.2093 23.6887 57.72 29.7695C61.2308 35.8503 66.945 39.1237 70.4832 37.081Z" fill="#E6007A"/>
</svg>
