<svg width="80" height="80" viewBox="0 0 80 80" fill="none" xmlns="http://www.w3.org/2000/svg">
<path d="M22.1772 27.8044C23.4686 27.0091 25.1477 27.0091 26.5682 27.8044L36.6422 33.9021L43.4872 37.8789L53.5609 43.9768C54.8523 44.7721 56.5314 44.7721 57.952 43.9768L65.9594 39.2047C67.2509 38.4094 68.155 36.9512 68.155 35.3603V25.9486C68.155 24.3578 67.3801 22.8997 65.9594 22.1043L58.0812 17.4647C56.7897 16.6693 55.1108 16.6693 53.69 17.4647L45.8118 22.1043C44.5204 22.8997 43.6163 24.3578 43.6163 25.9486V32.0464L36.7713 27.937V21.8392C36.7713 20.2485 37.546 18.7903 38.9668 17.9949L53.5609 9.24594C54.8523 8.45057 56.5314 8.45057 57.952 9.24594L72.8044 17.9949C74.2251 18.7903 75 20.2485 75 21.8392V39.4698C75 41.0604 74.2251 42.5186 72.8044 43.314L57.952 52.0629C56.6605 52.8584 54.9815 52.8584 53.5609 52.0629L43.4872 46.0977L36.6422 41.9884L26.5682 36.0232C25.2768 35.2279 23.5978 35.2279 22.1772 36.0232L14.299 40.6629C13.0074 41.4582 12.1033 42.9164 12.1033 44.507V53.9189C12.1033 55.5095 12.8782 56.9677 14.299 57.763L22.1772 62.5354C23.4686 63.3307 25.1477 63.3307 26.5682 62.5354L34.4464 57.8957C35.7381 57.1004 36.6422 55.6422 36.6422 54.0513V47.9536L43.4872 52.0629V58.1608C43.4872 59.7515 42.7122 61.2097 41.2915 62.005L26.4391 70.7541C25.1477 71.5495 23.4687 71.5495 22.0481 70.7541L7.19554 62.005C5.90409 61.2097 5.00002 59.7515 5.00002 58.1608V40.5302C5.00002 38.9396 5.77497 37.4814 7.19554 36.686L22.1772 27.8044Z" fill="#7950DD"/>
</svg>
