<svg width="80" height="80" viewBox="0 0 80 80" fill="none" xmlns="http://www.w3.org/2000/svg">
<path d="M14.0836 32.2231C11.4418 29.7301 9.58131 26.4928 9.58131 22.6231V22.2138C9.80456 15.6649 15.1999 10.3812 21.7487 10.158H63.4976C64.5767 10.1952 65.4697 10.9766 65.4697 12.0928V47.4045C66.4371 47.5905 66.8836 47.7022 67.8139 48.037C68.5208 48.2975 69.5627 48.8929 69.5627 48.8929V12.0928C69.4883 8.74401 66.8464 6.06494 63.4976 6.06494H21.7487C12.7441 6.21378 5.48828 13.5812 5.48828 22.6231C5.48828 27.8696 7.86968 32.3719 11.8139 35.5347C12.0743 35.758 12.3348 36.0184 13.0418 36.0184C14.2697 36.0184 15.1255 35.051 15.0883 33.9719C15.0511 33.0789 14.679 32.744 14.0836 32.2231Z" fill="#EBC28E"/>
<path d="M62.4556 49.7858H29.7114C27.5161 49.7858 25.73 51.609 25.73 53.8044V58.4928C25.8044 60.6509 27.6649 62.5486 29.823 62.5486H32.2417V58.4928H29.823V53.8788C29.823 53.8788 30.4184 53.8788 31.1626 53.8788C35.2928 53.8788 38.344 57.7114 38.344 61.8416C38.344 65.4881 35.0324 70.1393 29.4882 69.7672C24.5393 69.4323 21.8975 65.0416 21.8975 61.8416V21.916C21.8975 20.13 20.4463 18.6416 18.623 18.6416H15.3486V22.7346H17.7672V61.8416C17.6556 69.8044 23.423 73.823 29.451 73.823L62.4556 73.9346C69.1161 73.9346 74.5114 68.5393 74.5114 61.8788C74.5114 55.2183 69.1161 49.7858 62.4556 49.7858ZM70.3812 62.1021C70.2324 66.3811 66.7347 69.8044 62.4556 69.8044L39.4975 69.73C41.3207 67.609 42.437 64.8556 42.437 61.8788C42.437 57.1532 39.6091 53.916 39.6091 53.916H62.4556C66.8463 53.916 70.3812 57.4881 70.3812 61.8788V62.1021Z" fill="#EBC28E"/>
<path d="M53.897 23.4416H28.9668V19.3857H53.897C54.9017 19.3857 55.6831 20.2043 55.6831 21.1718V21.6555C55.6831 22.6602 54.8645 23.4416 53.897 23.4416Z" fill="#EBC28E"/>
<path d="M53.897 42.6789H28.9668V38.623H53.897C54.9017 38.623 55.6831 39.4417 55.6831 40.4091V40.8928C55.6831 41.8603 54.8645 42.6789 53.897 42.6789Z" fill="#EBC28E"/>
<path d="M58.2134 33.0788H28.9297V29.0229H58.2134C59.2181 29.0229 59.9995 29.8416 59.9995 30.809V31.2927C60.0367 32.2602 59.2181 33.0788 58.2134 33.0788Z" fill="#EBC28E"/>
</svg>
