<svg width="80" height="80" viewBox="0 0 80 80" fill="none" xmlns="http://www.w3.org/2000/svg">
<path fill-rule="evenodd" clip-rule="evenodd" d="M74.5858 11.4142L63.1716 22.8284C62.4215 23.5786 61.4041 24 60.3432 24H5.82847C4.04667 24 3.15433 21.8457 4.41426 20.5858L15.8285 9.17157C16.5786 8.42143 17.596 8 18.6569 8H73.1716C74.9534 8 75.8458 10.1543 74.5858 11.4142ZM74.5858 44.5858L63.1716 33.1716C62.4215 32.4214 61.4041 32 60.3432 32H5.82847C4.04667 32 3.15433 34.1543 4.41426 35.4142L15.8285 46.8284C16.5786 47.5786 17.596 48 18.6569 48H73.1716C74.9534 48 75.8458 45.8457 74.5858 44.5858ZM63.1716 70.8284L74.5858 59.4142C75.8458 58.1543 74.9534 56 73.1716 56H18.6569C17.596 56 16.5786 56.4214 15.8285 57.1716L4.41426 68.5858C3.15433 69.8457 4.04667 72 5.82847 72H60.3432C61.4041 72 62.4215 71.5786 63.1716 70.8284Z" fill="url(#paint0_linear_291_4855)"/>
<defs>
<linearGradient id="paint0_linear_291_4855" x1="9.84601" y1="73.5267" x2="68.586" y2="7.49769" gradientUnits="userSpaceOnUse">
<stop offset="0.08" stop-color="#9945FF"/>
<stop offset="0.3" stop-color="#8752F3"/>
<stop offset="0.5" stop-color="#5497D5"/>
<stop offset="0.6" stop-color="#43B4CA"/>
<stop offset="0.72" stop-color="#28E0B9"/>
<stop offset="0.97" stop-color="#19FB9B"/>
</linearGradient>
</defs>
</svg>
