<svg width="80" height="80" viewBox="0 0 80 80" fill="none" xmlns="http://www.w3.org/2000/svg">
<g clip-path="url(#clip0_11272_1555)">
<path fill-rule="evenodd" clip-rule="evenodd" d="M56.9653 33.6966L56.964 33.7C60.0646 37.5878 61.9175 42.5118 61.9175 47.8677C61.9175 53.303 60.0091 58.2938 56.8249 62.208L56.5507 62.545L56.4781 62.1166C56.4162 61.7525 56.3436 61.3847 56.2591 61.014C54.6657 54.0123 49.4736 48.0083 40.928 43.147C35.1575 39.8731 31.8545 35.9313 30.9872 31.4523C30.4271 28.5561 30.8435 25.647 31.6482 23.1552C32.4528 20.6644 33.6493 18.5774 34.6661 17.321L37.9908 13.2554C38.5739 12.5426 39.6647 12.5426 40.2478 13.2554L56.9653 33.6966ZM62.2232 29.6357L39.943 2.39014C39.5174 1.86995 38.7211 1.86995 38.2957 2.39014L16.0144 29.6344L15.9425 29.7259C11.8423 34.8138 9.38867 41.2795 9.38867 48.3182C9.38867 64.7108 22.6992 78 39.1192 78C55.5392 78 68.8498 64.7108 68.8498 48.3182C68.8498 41.2798 66.3961 34.8138 62.2961 29.7259L62.2232 29.6357ZM21.3456 33.609L23.3394 31.1709L23.3997 31.6208C23.4474 31.9771 23.5052 32.3354 23.5738 32.6951C24.8633 39.4608 29.4697 45.1023 37.1713 49.4715C43.8656 53.2814 47.7634 57.6628 48.8865 62.4679C49.355 64.4733 49.4386 66.4463 49.2357 68.1713L49.223 68.2779L49.1265 68.3252C46.1049 69.8013 42.7083 70.6297 39.1186 70.6297C26.5273 70.6297 16.3196 60.4391 16.3196 47.8677C16.3196 42.4702 18.2014 37.5106 21.3456 33.609Z" fill="#4DA2FF"/>
</g>
<defs>
<clipPath id="clip0_11272_1555">
<rect width="61.2222" height="76" fill="white" transform="translate(9.38867 2)"/>
</clipPath>
</defs>
</svg>
