<svg width="512" height="512" viewBox="0 0 512 512" fill="none" xmlns="http://www.w3.org/2000/svg">
<g clip-path="url(#clip0_11270_3496)">
<path fill-rule="evenodd" clip-rule="evenodd" d="M512 256C512 397.392 397.392 512 256 512C114.608 512 0 397.392 0 256C0 114.608 114.608 0 256 0C397.392 0 512 114.608 512 256ZM168.598 142.881H343.43H343.446C375.574 142.881 395.958 177.601 379.798 205.585L271.878 392.609C264.838 404.817 247.19 404.817 240.15 392.609L132.262 205.601C116.086 177.553 136.454 142.881 168.598 142.881ZM240.022 336.42V174.833H168.582C166.839 174.814 165.123 175.254 163.605 176.11C162.087 176.966 160.822 178.208 159.938 179.709C159.053 181.21 158.58 182.918 158.567 184.661C158.554 186.403 159 188.119 159.862 189.633L216.566 291.041L240.022 336.42ZM295.446 291.057L352.118 189.617C355.862 183.121 351.254 174.801 343.414 174.801H271.942V336.513L295.446 291.057Z" fill="#0098EA"/>
</g>
<defs>
<clipPath id="clip0_11270_3496">
<rect width="512" height="512" fill="white"/>
</clipPath>
</defs>
</svg>
