<svg xmlns="http://www.w3.org/2000/svg" width="900" height="163" fill="none" viewBox="0 0 900 163"><g clip-path="url(#a)"><path fill="#010101" d="M160.305 68.822h-27.346v27.417h27.346zM27.346 68.822H0v27.417h27.346zM66.488 96.24h27.346V68.821h-27.36v27.417zM60.589 35.377H33.242v94.292H60.59zM99.716 68.822v60.847h27.361V35.377h-27.36z"/><path fill="#010101" d="M99.716 68.822v60.847h27.361V35.377h-27.36zM93.834 102.138H66.488V163h27.346zM322.853 163V35.377h34.519V83.86h45.79V35.377h34.519V163h-34.519v-51.723h-45.79V163zM518.329 163V35.377h37.581l30.324 50.103a242 242 0 0 1 7.343 13.02c2.282 4.334 4.48 9.124 6.62 14.341 2.141 5.23 4.31 11.314 6.536 18.292h-2.992c-.283-4.619-.638-9.977-1.063-16.061s-.808-12.081-1.148-17.98c-.34-5.913-.511-10.887-.511-14.952V35.377h35.541V163h-37.582l-28.282-46.592c-3.189-5.316-5.996-10.262-8.42-14.867-2.425-4.59-4.75-9.466-7.004-14.597a3533 3533 0 0 1-7.726-17.81h3.587c.454 5.998.893 11.968 1.318 17.895.426 5.941.766 11.456 1.021 16.53.255 5.089.383 9.367.383 12.849V163h-35.54zM495.265 35.377h-34.52V163h34.52zM879.104 0v19.87h-73.037V0zM879.032 35.377h-93.847V163h114.814V35.377zM819.69 135.582V62.795h45.789v72.787zM299.929 163H196.045v-27.418h36.05q9.825 0 19.691.171 9.867.17 19.776 1.194l-2.14 10.617a1460 1460 0 0 1-14.475-15.592c-4.749-5.202-9.072-10.39-12.943-15.592l-46.129-61.843V35.35h103.884v27.446h-38.957a981 981 0 0 1-18.287-.17 198 198 0 0 1-18.288-1.194l2.141-10.646a1132 1132 0 0 1 13.964 14.952c4.593 5.003 8.732 9.978 12.432 14.953l47.151 63.122V163zM659.641 163v-19.188l47.151-63.122c3.7-4.975 7.839-9.95 12.432-14.953a1132 1132 0 0 1 13.964-14.952l2.141 10.646a198 198 0 0 1-18.288 1.194 981 981 0 0 1-18.287.17h-38.957V35.35h103.884v19.188l-46.13 61.843c-3.87 5.202-8.193 10.39-12.943 15.592a1450 1450 0 0 1-14.474 15.592l-2.14-10.617a231 231 0 0 1 19.776-1.194q9.866-.171 19.691-.171h36.05V163H659.627z"/><path fill="#d01f27" d="M252.843 77.379q.612.893 1.269 2.021.705 1.128 1.316 2.256.611 1.08 1.034 1.927l-3.948 1.645q-.47-.94-1.081-2.021a38 38 0 0 0-1.222-2.162 30 30 0 0 0-1.222-2.068zm6.58-1.175q.611.846 1.316 1.974t1.363 2.256 1.081 1.974l-3.901 1.692a156 156 0 0 0-1.833-3.243 32 32 0 0 0-1.927-3.102zm-1.692 10.058q-.329.658-.611 1.598-.234.893-.423 1.645a109 109 0 0 1-1.034 3.901 43 43 0 0 1-1.457 4.418 39 39 0 0 1-2.021 4.559 28.7 28.7 0 0 1-2.585 4.23 33.8 33.8 0 0 1-4.935 5.264q-2.773 2.444-6.298 4.418-3.477 1.974-7.661 3.337l-5.123-5.64q4.7-1.128 8.084-2.773 3.432-1.645 5.922-3.76a33.2 33.2 0 0 0 4.418-4.512 24 24 0 0 0 2.679-4.277 31 31 0 0 0 1.833-4.606q.705-2.35.987-4.371h-21.855q-1.644 0-3.149.047a37 37 0 0 0-2.444.141v-6.627q.705.094 1.692.188a46 46 0 0 0 3.901.188h21.761q.705 0 1.692-.047a8 8 0 0 0 1.974-.329zm21.761-2.585q1.457.047 2.726.094h30.221l2.538-.094q-.046 1.08-.094 2.303v27.072q.047 1.033.047 2.115V117q.047.752.047.799h-6.486v-1.128q.048-1.081.047-2.538.048-1.457.047-2.726V89.74h-22.701v25.615q.048.987.047 1.645v.799h-6.486V117q.048-.705.047-1.739.048-1.034.047-2.115.048-1.081.047-1.927V85.98q0-1.316-.094-2.303m31.443 25.568v6.016h-28.247v-6.016zm42.77-20.163q.33.752.846 2.162.564 1.364 1.175 2.961a58 58 0 0 1 1.081 2.961q.47 1.41.752 2.209l-5.64 1.974q-.187-.892-.658-2.256-.47-1.363-1.034-2.867a100 100 0 0 0-1.128-2.961 62 62 0 0 0-.987-2.35zm17.343 3.431q-.375 1.128-.658 1.927a42 42 0 0 1-.47 1.504 46 46 0 0 1-2.444 7.144 31.7 31.7 0 0 1-3.948 6.627q-3.29 4.23-7.473 7.191-4.135 2.914-8.272 4.465l-4.935-5.029q2.586-.705 5.452-2.068a36.5 36.5 0 0 0 5.546-3.384q2.68-1.974 4.606-4.371 1.599-2.021 2.82-4.606a32 32 0 0 0 2.068-5.593 34 34 0 0 0 1.128-5.922zm-28.247-.94q.47.893 1.034 2.303.612 1.41 1.222 2.961.611 1.551 1.175 3.008.612 1.457.94 2.444l-5.734 2.162a40 40 0 0 0-.846-2.444 67 67 0 0 0-1.175-3.149 86 86 0 0 0-1.269-3.102q-.564-1.41-.987-2.162zm85.822-3.807q-.376.658-.799 1.598-.422.892-.752 1.786-.61 2.068-1.739 4.747-1.08 2.632-2.726 5.499a41 41 0 0 1-3.713 5.452q-3.384 4.042-7.896 7.332-4.464 3.29-11.092 5.922l-5.546-4.982q4.794-1.41 8.272-3.243t6.063-3.901a36.6 36.6 0 0 0 4.606-4.465 26 26 0 0 0 3.008-4.136 43 43 0 0 0 2.35-4.653q.987-2.303 1.316-4.042h-15.839l2.162-5.311h13.442q1.082 0 2.162-.141 1.128-.141 1.927-.423zm-15.322-7.426a35 35 0 0 0-1.645 2.632q-.798 1.41-1.222 2.162-1.598 2.82-3.948 5.875a53 53 0 0 1-5.264 5.875 55 55 0 0 1-6.298 5.17l-5.311-3.901q3.102-1.927 5.452-3.948 2.397-2.02 4.136-3.995 1.74-2.02 2.961-3.854a92 92 0 0 0 2.162-3.337q.564-.893 1.175-2.303.612-1.457.94-2.632zm36.66 2.914h4.559q2.774-.047 5.828-.188a69 69 0 0 0 5.64-.564 58 58 0 0 0 3.478-.564q1.74-.33 3.29-.658a33 33 0 0 0 2.867-.799 27 27 0 0 0 2.209-.799l3.854 5.17a74 74 0 0 0-2.115.517q-.892.235-1.504.376-1.457.375-3.149.752-1.692.33-3.478.611-1.786.282-3.619.564-2.678.376-5.687.564a469 469 0 0 1-5.828.329q-2.82.094-4.888.141zm2.021 32.383q4.137-1.88 6.768-4.559a17.1 17.1 0 0 0 3.948-6.251q1.317-3.572 1.316-7.99v-9.682l6.157-.705v10.293q0 4.7-1.175 8.93a22.6 22.6 0 0 1-3.807 7.802q-2.678 3.525-7.238 6.251zm-5.546-21.15q.987.094 2.115.188t2.209.094h31.255q.518 0 1.316-.047l1.598-.094q.847-.094 1.363-.141v6.063a35 35 0 0 0-2.068-.141q-1.08-.047-2.068-.047h-31.302q-1.08 0-2.303.047-1.221.047-2.115.141zm61.993-2.961q.8.141 1.88.188a43 43 0 0 0 1.833.047h21.526q.846 0 1.833-.047a16 16 0 0 0 1.833-.188v5.922a37.898 37.898 0 0 0-3.666-.188h-21.526q-.751 0-1.833.047-1.08.046-1.88.141zm11.045 24.064V94.769h6.157v20.821zm-13.442-3.478q.894.094 1.927.188 1.035.094 1.927.094h25.991q.987 0 1.88-.094a20 20 0 0 1 1.692-.188v6.157a13.5 13.5 0 0 0-1.88-.188 42 42 0 0 0-1.692-.047h-25.991q-.846 0-1.88.047t-1.974.188zm53.862-16.873q.846.047 2.162.141 1.316.047 2.726.094 1.458.047 2.679.047H592.7q1.645 0 3.102-.094a54 54 0 0 1 2.397-.188v7.379l-2.397-.141a53 53 0 0 0-3.102-.094h-25.239q-2.02 0-4.136.094-2.114.047-3.431.141zm61.063-13.959q1.221.846 2.867 2.068a75 75 0 0 1 3.384 2.679q1.785 1.41 3.337 2.773 1.551 1.363 2.538 2.444l-4.794 4.888q-.894-.987-2.35-2.35a104 104 0 0 0-3.149-2.82 121 121 0 0 0-3.337-2.773 61 61 0 0 0-2.914-2.209zm-5.875 31.302a50 50 0 0 0 6.909-1.457 48 48 0 0 0 6.016-2.162 55 55 0 0 0 5.076-2.538 45.5 45.5 0 0 0 7.332-5.452q3.336-3.056 5.828-6.345 2.49-3.337 3.948-6.486l3.666 6.627q-1.787 3.15-4.418 6.298a50.6 50.6 0 0 1-5.875 6.016 50 50 0 0 1-7.097 5.076 57 57 0 0 1-5.17 2.773 52 52 0 0 1-5.875 2.256 41.5 41.5 0 0 1-6.392 1.598zm78.725-27.777q-.47 3.572-1.222 7.614a74 74 0 0 1-2.021 8.178q-1.363 4.748-3.196 8.178t-4.042 5.311q-2.163 1.833-4.747 1.833-2.586 0-4.794-1.739-2.163-1.786-3.478-4.888-1.269-3.102-1.269-7.05 0-4.089 1.645-7.708a20.4 20.4 0 0 1 4.559-6.392q2.96-2.82 6.862-4.418 3.947-1.598 8.507-1.598 4.37 0 7.849 1.41 3.525 1.41 6.016 3.901a16.95 16.95 0 0 1 3.807 5.828q1.316 3.337 1.316 7.191 0 4.935-2.021 8.836t-6.016 6.439q-3.948 2.538-9.87 3.478l-3.525-5.593a32 32 0 0 0 2.397-.329 31 31 0 0 0 1.974-.423 18 18 0 0 0 4.183-1.598 13.7 13.7 0 0 0 3.431-2.632 11.5 11.5 0 0 0 2.256-3.713q.846-2.115.846-4.653 0-2.773-.846-5.076a11.2 11.2 0 0 0-2.491-3.995q-1.646-1.74-3.995-2.632-2.35-.94-5.405-.94-3.76 0-6.627 1.363-2.867 1.316-4.841 3.431t-3.008 4.559q-.987 2.444-.987 4.653 0 2.35.564 3.948.564 1.55 1.363 2.35.846.752 1.786.752.987 0 1.927-.987.987-1.033 1.927-3.102t1.88-5.217a65 65 0 0 0 1.833-7.238 74 74 0 0 0 1.081-7.52zm42.629 5.734h5.875v22.419q0 1.739.423 2.209.47.423 2.162.423h6.439q1.128 0 1.692-.658.61-.705.893-2.632.282-1.927.423-5.593.987.752 2.538 1.457 1.55.658 2.726.987-.282 4.371-1.034 6.956-.753 2.538-2.35 3.572-1.599 1.081-4.465 1.081h-7.614q-3.008 0-4.7-.752-1.645-.705-2.35-2.397-.658-1.692-.658-4.653zm.141-8.93 3.666-4.371a55 55 0 0 1 5.734 2.397 92 92 0 0 1 5.546 2.914q2.631 1.504 4.512 2.914l-3.713 4.935q-1.833-1.505-4.465-3.102a66 66 0 0 0-5.546-3.149 50 50 0 0 0-5.734-2.538m-8.601 12.267 5.499 1.128q-.33 3.243-.893 6.627a45 45 0 0 1-1.551 6.439q-.987 3.008-2.585 5.311l-5.264-3.055q1.41-2.02 2.35-4.653a41 41 0 0 0 1.551-5.64q.61-3.008.893-6.157m27.025.705 5.17-2.538a48.5 48.5 0 0 1 3.76 5.593 50 50 0 0 1 2.961 5.969q1.269 2.961 1.833 5.405l-5.687 2.82q-.47-2.397-1.645-5.405a57 57 0 0 0-2.82-6.157 44 44 0 0 0-3.572-5.687m29.234-15.886h8.037v5.123h-8.037zm-.376 10.763h8.366v5.076h-8.366zm-.047 10.951h8.413v5.217h-8.413zm-1.551-21.714h4.559v17.202q0 2.773-.094 6.11a101 101 0 0 1-.423 6.721 75 75 0 0 1-.846 6.674q-.518 3.196-1.41 5.828-.424-.329-1.222-.799a72 72 0 0 0-1.551-.846 11 11 0 0 0-1.41-.564q.845-2.491 1.316-5.405.516-2.96.705-6.016.234-3.102.282-6.11.094-3.008.094-5.546zm7.144 0h4.7v36.848q0 1.692-.329 2.82a3 3 0 0 1-1.222 1.786q-.94.659-2.209.846-1.269.188-3.102.188-.048-1.034-.423-2.585-.377-1.504-.846-2.491.94.047 1.739.047h1.081q.61 0 .611-.705zm6.016 1.692h28.341v4.653h-28.341zm7.802 31.913h9.353v3.29h-9.353zm-5.546-22.372h26.602v4.653h-26.602zm3.619-12.784h5.029v10.951h-5.029zm10.199 0h5.123v10.951h-5.123zM806.983 98.2h2.82v5.452h-2.82zm0 10.528h2.82v5.076h-2.82zm-10.904-18.8h4.559v9.964a99 99 0 0 1-.141 5.076 92 92 0 0 1-.376 5.64 53 53 0 0 1-.846 5.593q-.518 2.726-1.41 5.029-.424-.329-1.222-.799a72 72 0 0 0-1.551-.846 11 11 0 0 0-1.41-.564q1.127-2.867 1.598-6.251.516-3.384.658-6.768.141-3.384.141-6.11zm5.734 6.439H812.2v3.337h-7.191v17.954h-3.196zm1.269 5.17h9.118v8.695h-9.118v-3.29h5.734v-2.115h-5.734zm9.541-13.724h4.559q.046 5.593.376 10.575.328 4.982.846 8.836.516 3.854 1.175 6.11.705 2.21 1.504 2.209.375 0 .658-1.222.282-1.222.423-3.384.563.752 1.598 1.551 1.033.752 1.645 1.081-.518 3.008-1.269 4.606-.706 1.645-1.504 2.256-.8.658-1.645.658-2.21 0-3.76-2.585-1.551-2.538-2.538-7.05-.94-4.558-1.41-10.575a259 259 0 0 1-.658-13.066m4.841-1.128 3.055-1.88q1.08.8 2.115 1.88 1.034 1.08 1.598 1.974l-3.243 2.068q-.47-.893-1.504-2.021a20.5 20.5 0 0 0-2.021-2.021m2.538 10.293 4.23 1.786q-1.646 7.426-4.982 13.207-3.338 5.734-7.614 9.118a20 20 0 0 0-1.457-1.504 12 12 0 0 0-1.692-1.363q4.041-3.102 7.05-8.554 3.054-5.499 4.465-12.69"/></g><defs><clipPath id="a"><path fill="#fff" d="M0 0h900v163H0z"/></clipPath></defs></svg>