<svg xmlns="http://www.w3.org/2000/svg" width="402" height="73" fill="none" viewBox="0 0 402 73"><g fill="#010101" clip-path="url(#a)"><path d="M71.44 30.587H59.253v12.186h12.186zM12.187 30.587H0v12.186h12.187zM29.63 42.773h12.187V30.587H29.624v12.186zM27.001 15.723H14.814v41.908h12.187zM44.438 30.587v27.044h12.193V15.723H44.438z"/><path d="M44.438 30.587v27.044h12.193V15.723H44.438zM41.817 45.395H29.63v27.05h12.187zM143.879 72.444v-56.72h15.383V37.27h20.406V15.723h15.384v56.721h-15.384V49.456h-20.406v22.988zM230.992 72.444v-56.72h16.748l13.514 22.267a107 107 0 0 1 3.272 5.786c1.017 1.927 1.997 4.056 2.951 6.374.954 2.325 1.92 5.029 2.912 8.13h-1.333a819 819 0 0 0-.474-7.138q-.284-4.058-.511-7.991c-.152-2.628-.228-4.839-.228-6.646V15.723h15.838v56.721h-16.748L254.33 51.737a136 136 0 0 1-3.753-6.608 100 100 0 0 1-3.121-6.487 1520 1520 0 0 1-3.443-7.916h1.598c.202 2.666.398 5.32.588 7.953q.284 3.963.455 7.347.17 3.391.17 5.71v20.708h-15.838zM220.714 15.723H205.33v56.721h15.384zM391.771 0v8.831h-32.549V0zM391.739 15.723h-41.823v56.721h51.167v-56.72zM365.293 60.26v-32.35h20.406v32.35zM133.663 72.445H87.367V60.259h16.066q4.378 0 8.775.076 4.397.075 8.813.53l-.954 4.72a648 648 0 0 1-6.45-6.93c-2.117-2.313-4.043-4.619-5.768-6.93L87.291 24.238V15.71h46.296v12.198h-17.361q-4.075 0-8.15-.076a88 88 0 0 1-8.15-.53l.954-4.732a499 499 0 0 1 6.223 6.646 84 84 0 0 1 5.541 6.645l21.012 28.054v8.529zM293.968 72.445v-8.529l21.012-28.054a84 84 0 0 1 5.541-6.645 499 499 0 0 1 6.223-6.646l.954 4.732q-4.076.455-8.15.53t-8.15.076h-17.361V15.711h46.296v8.528l-20.558 27.485c-1.724 2.313-3.651 4.618-5.768 6.93a638 638 0 0 1-6.45 6.93l-.954-4.719q4.416-.455 8.813-.53t8.775-.076h16.066v12.186h-46.296z"/></g><defs><clipPath id="a"><path fill="#fff" d="M0 0h401.083v72.444H0z"/></clipPath></defs></svg>