<svg xmlns="http://www.w3.org/2000/svg" width="143" height="87" fill="none"><path fill="#000" d="M68.944 11.656 45.508 85.56H34.844l-23.56-73.904q-.868-2.852-1.364-3.968-.496-1.24-1.116-1.612T6.82 5.58L0 4.712V1.24h34.472v3.472l-6.82.868q-1.984.247-2.108 1.116-.123.744 1.116 4.96l18.848 59.148 18.6-59.148q1.364-4.216 1.116-4.96-.124-.87-2.108-1.116l-6.82-.868V1.24h23.808v3.472l-6.82.868q-1.24.123-1.86.496-.62.372-1.116 1.612-.495 1.115-1.364 3.968m44.372 70.804q7.44 0 12.276-3.472 4.96-3.597 4.96-11.16 0-5.58-3.348-9.3-3.225-3.72-11.656-6.2l-11.532-3.472q-8.68-2.604-13.392-8.928-4.588-6.45-4.588-15.996 0-6.324 2.852-11.78 2.976-5.456 8.928-8.804Q103.891 0 113.068 0q10.043 0 16.244 3.72 6.2 3.595 8.68 9.424t1.24 12.524l-14.26 2.604q1.984-11.533-1.736-17.732-3.596-6.2-11.78-6.2-6.324 0-10.168 3.72-3.72 3.72-3.72 10.664 0 5.703 3.224 10.044 3.348 4.34 10.912 6.696l11.532 3.472q9.423 2.727 14.136 8.308 4.712 5.455 4.712 15.252 0 6.944-3.224 12.524-3.1 5.455-9.548 8.68-6.324 3.1-15.872 3.1-6.945 0-13.144-1.984-6.201-2.11-10.416-6.82-4.092-4.713-5.208-12.772l8.308-2.976q.62 7.936 3.472 12.4 2.975 4.34 7.316 6.076 4.463 1.736 9.548 1.736"/></svg>