<svg width="4096" height="1803" viewBox="0 0 4096 1803" fill="none" xmlns="http://www.w3.org/2000/svg">
<path d="M2514.26 193.473H2355.19V352.084H2514.26V193.473Z" fill="black"/>
<path d="M1740.82 193.473H1581.74V352.084H1740.82V193.473Z" fill="black"/>
<path d="M1968.5 352.084H2127.58V193.473H1968.42V352.084H1968.5Z" fill="black"/>
<path d="M1934.2 0.000244141H1775.12V545.472H1934.2V0.000244141Z" fill="black"/>
<path d="M2161.81 193.471V545.472H2320.96V0.000244141H2161.81V193.471Z" fill="black"/>
<path d="M2161.81 193.471V545.472H2320.96V0.000244141H2161.81V193.471Z" fill="black"/>
<path d="M2127.58 386.207H1968.5V738.288H2127.58V386.207Z" fill="black"/>
<path d="M738.645 1802.9V1079.53H939.449V1354.33H1205.81V1079.53H1406.62V1802.9H1205.81V1509.73H939.449V1802.9H738.645Z" fill="black"/>
<path d="M1875.76 1802.9V1079.53H2094.38L2270.78 1363.51C2286.03 1388.08 2300.3 1412.74 2313.49 1437.31C2326.77 1461.88 2339.55 1489.03 2352.01 1518.6C2364.46 1548.24 2377.08 1582.73 2390.02 1622.28H2372.62C2370.97 1596.1 2368.91 1565.73 2366.44 1531.25C2363.96 1496.77 2361.74 1462.77 2359.76 1429.34C2357.78 1395.82 2356.79 1367.62 2356.79 1344.58V1079.53H2563.53V1802.9H2344.91L2180.39 1538.82C2161.84 1508.69 2145.51 1480.65 2131.41 1454.55C2117.31 1428.53 2103.78 1400.9 2090.67 1371.81C2077.56 1342.65 2062.63 1309.05 2045.73 1270.87H2066.59C2069.23 1304.86 2071.79 1338.7 2074.26 1372.29C2076.73 1405.97 2078.71 1437.23 2080.2 1465.99C2081.68 1494.83 2082.42 1519.08 2082.42 1538.82V1802.9H1875.68H1875.77L1875.76 1802.9Z" fill="black"/>
<path d="M1741.6 1079.53H1540.79V1802.9H1741.6V1079.53Z" fill="black"/>
<path d="M3974.43 879.008V991.634H3549.57V879.008H3974.43Z" fill="black"/>
<path d="M3974.02 1079.53H3428.1V1802.9H4095.99V1079.53H3974.02ZM3628.82 1647.5V1234.93H3895.18V1647.5H3628.82Z" fill="black"/>
<path d="M605.297 1802.9H0.989469V1647.5H210.699C248.797 1647.5 286.979 1647.82 325.245 1648.46C363.508 1649.11 401.855 1651.36 440.285 1655.23L427.833 1715.41C399.381 1685.93 371.261 1656.52 343.634 1627.03C316.009 1597.55 290.856 1568.14 268.344 1538.66L0 1188.12V1079.37H604.308V1234.93H377.693C342.234 1234.93 306.772 1234.61 271.312 1233.96C235.853 1233.32 200.391 1231.06 164.931 1227.2L177.384 1166.86C204.846 1195.05 231.976 1223.25 258.611 1251.61C285.33 1279.97 309.41 1308.16 330.933 1336.36L605.214 1694.14V1802.9H605.297V1802.9Z" fill="black"/>
<path d="M2697.78 1802.9V1694.14L2972.07 1336.36C2993.59 1308.16 3017.67 1279.97 3044.39 1251.61C3071.02 1223.25 3098.16 1195.06 3125.61 1166.86L3138.07 1227.2C3102.61 1231.07 3067.15 1233.32 3031.69 1233.97C2996.23 1234.61 2960.76 1234.93 2925.31 1234.93H2698.69V1079.37H3303V1188.13L3034.66 1538.66C3012.14 1568.14 2986.99 1597.55 2959.36 1627.04C2931.74 1656.52 2903.62 1685.93 2875.17 1715.41L2862.71 1655.23C2901.14 1651.37 2939.49 1649.11 2977.75 1648.47C3016.02 1647.82 3054.2 1647.5 3092.3 1647.5H3302.01V1802.9H2697.7H2697.78V1802.9Z" fill="black"/>
<path d="M518.71 1372.39C518.71 1369.5 518.341 1369.5 516.116 1369.5C513.156 1369.5 503.889 1371.67 498.703 1372.75C482.026 1376.38 462.385 1380.36 446.823 1385.07C440.894 1386.87 430.889 1389.77 423.847 1394.48C417.549 1398.46 413.842 1400.99 407.544 1400.99C398.652 1400.99 389.016 1394.84 381.234 1387.23C372.71 1378.91 365.3 1369.13 365.3 1361.53C365.3 1359 365.669 1356.1 366.41 1352.85C367.15 1350.31 368.263 1349.22 369.745 1349.22C370.857 1349.22 372.339 1349.95 373.449 1351.03C378.637 1355.01 383.825 1357.19 387.16 1359C392.348 1361.53 397.534 1362.26 401.982 1362.26C406.057 1362.26 415.693 1361.17 425.326 1359.72C448.302 1356.1 474.61 1351.4 495.735 1347.05C510.928 1344.15 513.15 1342.71 518.708 1336.92C522.786 1332.94 525.38 1331.85 529.084 1331.85C535.013 1331.85 547.612 1336.92 559.471 1345.61C571.329 1353.57 582.077 1362.62 582.077 1371.67C582.077 1375.65 581.334 1378.19 575.779 1382.53C566.887 1388.32 566.515 1390.49 562.808 1401.35C541.686 1460.72 512.781 1502.72 473.502 1534.93C441.263 1561 399.021 1578.74 355.292 1586.34C353.072 1586.7 351.216 1587.06 349.732 1587.06C347.881 1587.06 347.141 1586.34 347.141 1584.9C347.141 1584.17 347.881 1583.09 349.36 1582.36C386.419 1565.35 419.769 1540.73 448.302 1509.6C477.576 1476.65 500.92 1434.66 514.26 1391.94C516.111 1385.43 518.705 1376.74 518.705 1372.39L518.71 1372.39ZM600.236 1310.49C608.759 1315.56 614.319 1322.43 614.319 1330.76C614.319 1339.81 607.647 1347.05 599.867 1347.05C594.679 1347.05 590.234 1344.88 585.784 1337.28C576.891 1321.71 567.627 1313.02 556.51 1306.51C554.659 1305.78 553.916 1304.7 553.916 1303.61C553.916 1302.52 555.028 1301.44 557.62 1301.44C575.782 1301.08 590.234 1304.7 600.236 1310.49ZM600.608 1275.74C614.319 1275.74 624.324 1277.91 632.107 1281.53C641.74 1286.23 647.669 1293.84 647.669 1302.16C647.669 1310.85 642.109 1317.37 634.698 1317.37C629.884 1317.37 626.178 1315.92 620.248 1307.59C609.872 1293.47 601.718 1286.96 589.49 1281.16C587.64 1280.44 586.896 1279.35 586.896 1278.27C586.896 1277.19 588.009 1276.46 590.234 1276.1C593.938 1275.74 597.273 1275.74 600.608 1275.74Z" fill="#D01F27"/>
<path d="M727.707 1533.13C727.707 1546.16 721.037 1552.31 712.145 1552.31C704.732 1552.31 696.208 1549.42 690.279 1539.64C686.575 1532.4 680.646 1522.99 680.646 1512.13C680.646 1508.15 680.277 1504.53 680.646 1501.63C681.015 1498.38 680.646 1492.22 680.277 1488.24C678.796 1464.35 676.201 1432.49 671.385 1402.44C669.16 1389.41 667.309 1382.53 663.231 1378.91C660.636 1376.74 657.676 1374.57 654.338 1373.48C652.488 1372.76 651.375 1372.03 651.375 1370.95C651.375 1369.86 652.119 1368.41 653.6 1367.32C657.304 1364.07 661.754 1361.17 667.312 1361.17C673.982 1361.17 691.028 1366.6 699.18 1370.59C703.255 1372.76 706.219 1374.57 708.444 1376.74C738.458 1371.67 771.067 1365.88 798.859 1361.9C808.123 1360.81 808.123 1360.09 814.793 1353.21C818.872 1349.23 823.316 1348.5 826.651 1348.5C832.581 1348.5 845.551 1356.47 856.669 1365.16C869.268 1373.84 880.011 1382.89 880.011 1391.58C880.011 1397.74 878.901 1401.36 871.862 1406.06C864.82 1411.49 864.82 1413.66 861.485 1425.61C857.04 1442.26 853.705 1460.37 848.886 1483.54C852.59 1484.26 856.297 1484.98 859.635 1486.43C870.009 1490.77 875.938 1496.93 875.938 1504.17C875.938 1512.85 872.974 1517.2 860.744 1517.2C853.334 1517.2 845.923 1515.03 837.4 1514.3C833.324 1513.94 828.507 1513.58 822.207 1513.58C816.277 1513.58 809.608 1513.94 801.456 1514.3C775.145 1516.12 753.285 1519.37 726.974 1524.08C727.343 1527.7 727.715 1530.6 727.715 1533.13L727.707 1533.13ZM798.854 1487.15C802.189 1486.79 805.524 1486.07 808.487 1485.7C810.341 1458.55 812.196 1434.66 813.306 1410.04C813.675 1402.44 813.676 1396.28 813.676 1392.3C813.676 1386.51 813.675 1385.79 807.746 1385.79C805.521 1385.79 800.336 1386.15 798.113 1386.51C774.028 1389.05 743.639 1395.2 713.993 1400.63C714.737 1406.42 715.477 1412.21 715.847 1418.01C716.587 1424.88 716.959 1431.4 717.7 1438.28C718.81 1446.61 719.551 1454.93 720.663 1463.62C721.773 1474.85 723.257 1486.43 724.367 1497.65C749.937 1493.31 773.653 1489.69 798.849 1487.15H798.854Z" fill="#D01F27"/>
<path d="M954.485 1458.19C954.116 1456.38 953.744 1454.93 953 1452.76C949.296 1439.73 943.367 1431.04 933.734 1422.35C932.993 1421.63 931.881 1420.9 931.881 1419.45C931.881 1418 933.734 1417.28 935.585 1417.28C951.522 1418.01 967.825 1424.16 978.942 1434.3C987.096 1441.9 991.541 1450.58 991.541 1459.63C991.541 1471.22 984.871 1478.1 973.013 1478.1C962.27 1478.1 958.191 1473.39 954.485 1458.19V1458.19ZM950.409 1580.91C972.272 1570.05 998.952 1548.69 1017.85 1526.61C1040.46 1500.18 1055.65 1470.5 1066.02 1433.57C1068.25 1425.97 1069.36 1420.54 1069.36 1416.56C1069.36 1412.58 1068.99 1411.85 1065.65 1408.59C1063.8 1406.78 1061.2 1404.97 1057.87 1403.16C1056.76 1402.44 1055.64 1401.35 1055.64 1400.27C1055.64 1398.82 1057.13 1397.73 1058.61 1397.01C1063.79 1394.83 1069.72 1393.75 1072.32 1393.75C1078.25 1393.75 1088.25 1398.45 1097.51 1405.7C1107.15 1412.94 1113.45 1420.54 1113.45 1426.33C1113.45 1429.59 1112.34 1431.76 1108.26 1435.74C1106.04 1438.28 1104.56 1440.81 1102.7 1446.24C1089.36 1484.97 1065.64 1522.63 1040.45 1545.07C1014.51 1568.6 982.269 1584.89 947.435 1591.77C945.215 1592.13 942.621 1592.85 940.396 1592.85C938.171 1592.85 937.061 1591.41 937.061 1589.6C937.061 1588.15 937.802 1587.06 939.286 1586.34L950.404 1580.91L950.409 1580.91ZM1006.73 1441.18C1006.36 1439 1005.62 1437.19 1005.25 1436.11C1001.92 1424.88 994.133 1412.94 987.463 1408.24C985.981 1407.15 985.609 1406.79 985.609 1405.34C985.609 1403.9 986.722 1402.81 988.944 1402.81C1002.66 1403.17 1017.85 1407.87 1028.6 1415.84C1037.86 1422.72 1043.05 1431.77 1043.05 1441.18C1043.05 1453.49 1036.38 1461.09 1024.52 1461.09C1014.51 1461.09 1010.81 1457.11 1006.73 1441.18V1441.18Z" fill="#D01F27"/>
<path d="M1323.93 1357.19C1330.97 1356.1 1331.34 1355.01 1335.79 1348.5C1339.13 1345.24 1342.46 1343.79 1346.17 1343.79C1350.98 1343.79 1363.95 1349.95 1374.7 1357.91C1387.3 1366.96 1395.08 1374.93 1395.08 1383.26C1395.08 1388.32 1390.26 1391.94 1386.19 1393.76C1379.15 1396.65 1377.67 1399.55 1372.85 1408.96C1346.54 1463.62 1314.3 1507.43 1275.76 1536.39C1239.82 1564.26 1199.8 1584.17 1151.62 1595.03C1150.14 1595.39 1147.17 1596.12 1146.06 1596.12C1144.21 1596.12 1143.1 1595.03 1143.1 1593.94C1143.1 1592.86 1143.47 1591.77 1144.95 1591.05C1185.72 1570.05 1221.66 1544.71 1254.27 1511.04C1284.65 1478.82 1310.22 1442.26 1327.64 1398.1C1329.49 1393.03 1332.08 1384.34 1332.08 1381.81C1332.08 1380 1331.34 1379.63 1329.12 1379.63C1327.27 1379.63 1320.6 1381.08 1319.49 1381.44C1315.78 1382.89 1310.6 1384.34 1306.89 1385.43C1302.44 1387.23 1298.37 1388.68 1294.66 1388.68C1290.21 1388.68 1283.54 1386.87 1277.25 1383.25C1267.61 1397.73 1256.12 1412.57 1242.78 1425.61C1221.29 1447.69 1196.09 1466.88 1169.41 1476.65C1166.82 1477.74 1164.96 1476.29 1164.96 1474.84C1164.96 1473.76 1165.33 1473.03 1166.45 1471.95C1185.35 1452.4 1202.39 1430.68 1216.84 1408.96C1230.93 1386.87 1243.15 1364.07 1253.16 1339.09C1255.75 1333.3 1258.72 1324.25 1258.72 1319.54C1258.72 1315.92 1257.24 1313.38 1253.9 1311.21C1252.05 1310.13 1250.2 1309.04 1246.86 1307.59C1245.01 1306.87 1243.9 1305.78 1243.9 1304.7C1243.9 1303.61 1245.01 1302.52 1246.49 1301.44C1252.05 1298.18 1258.35 1296.01 1262.8 1296.01C1268.36 1296.01 1281.69 1301.8 1292.44 1308.68C1303.56 1315.92 1309.49 1322.07 1309.49 1331.48C1309.49 1336.91 1307.26 1338.72 1302.45 1343.43C1298.74 1347.05 1296.52 1349.58 1291.33 1359.72C1290.59 1361.17 1289.48 1362.98 1288.74 1364.79C1297.63 1363.7 1313.19 1359.72 1323.94 1357.19L1323.93 1357.19Z" fill="#D01F27"/>
<path d="M1541.08 1373.48C1512.17 1380.72 1481.42 1386.51 1449.92 1386.15C1447.7 1386.15 1446.59 1385.06 1446.59 1383.61C1446.59 1382.53 1447.33 1381.08 1449.18 1380.72C1478.08 1372.75 1509.58 1361.17 1531.45 1350.67C1547.38 1343.43 1560.72 1336.19 1573.69 1328.23C1580.36 1323.89 1586.29 1319.9 1586.29 1317.73C1586.29 1314.47 1583.33 1311.21 1581.48 1309.4C1580.36 1308.32 1578.88 1306.87 1576.29 1305.06C1574.8 1303.97 1574.06 1302.88 1574.06 1301.8C1574.06 1300.72 1574.8 1299.99 1577.03 1299.27C1581.85 1298.18 1587.4 1297.46 1590.74 1297.46C1597.41 1297.46 1610 1301.8 1623.35 1309.4C1637.43 1317.37 1645.58 1325.33 1645.58 1333.66C1645.58 1339.81 1643.36 1342.34 1634.09 1343.79C1628.16 1344.88 1621.86 1346.69 1618.53 1348.14C1605.93 1353.57 1592.59 1358.64 1578.88 1362.62C1584.81 1364.79 1589.63 1367.32 1593.33 1369.86C1604.07 1377.1 1610 1379.99 1610 1389.04C1610 1391.22 1609.26 1393.75 1608.15 1396.65C1607.04 1399.18 1606.3 1402.07 1605.93 1404.97C1605.93 1406.42 1605.56 1407.86 1605.56 1409.31C1612.97 1408.23 1621.12 1407.14 1629.28 1405.7C1638.91 1404.25 1640.39 1403.52 1645.95 1399.54C1650.4 1396.28 1657.06 1394.11 1662.99 1394.11C1670.04 1394.11 1680.78 1396.65 1692.27 1400.99C1705.61 1406.06 1713.39 1412.21 1713.39 1421.62C1713.39 1431.03 1708.2 1435.02 1697.09 1435.02C1690.42 1435.02 1683.38 1433.57 1672.26 1432.12C1660.4 1430.67 1647.43 1430.67 1628.9 1431.4C1620.75 1431.76 1612.23 1432.48 1603.7 1433.57C1598.89 1480.27 1585.55 1518.28 1555.16 1548.33C1534.78 1569.32 1504.02 1585.98 1461.78 1595.03C1459.93 1595.39 1458.44 1595.75 1456.96 1595.75C1455.48 1595.75 1454.37 1594.67 1454.37 1593.58C1454.37 1592.86 1454.74 1591.77 1456.22 1591.05C1491.42 1572.58 1512.55 1553.76 1528.85 1530.23C1547.75 1501.99 1557.01 1475.93 1561.09 1439.36C1549.23 1441.54 1536.63 1444.07 1524.77 1446.97C1515.88 1449.14 1505.5 1452.03 1499.2 1455.65C1492.53 1459.63 1489.57 1461.81 1484.75 1461.81C1475.49 1461.81 1467.71 1456.37 1459.93 1449.5C1452.51 1442.98 1443.25 1433.2 1443.25 1426.69C1443.25 1424.16 1443.62 1420.9 1444.36 1418C1444.73 1415.83 1445.84 1415.11 1446.95 1415.11C1448.06 1415.11 1449.18 1415.83 1450.29 1416.56C1455.85 1420.54 1460.29 1422.71 1464 1424.16C1468.07 1425.97 1472.89 1427.05 1477.71 1427.05C1483.64 1427.05 1493.27 1425.61 1503.28 1424.16C1526.62 1420.18 1545.52 1416.92 1563.31 1414.39C1563.68 1407.87 1563.68 1400.99 1563.68 1394.11C1563.68 1384.34 1561.46 1379.63 1558.12 1375.29C1556.64 1373.48 1555.16 1372.03 1552.56 1370.58C1548.86 1371.67 1544.78 1372.39 1541.07 1373.48H1541.08Z" fill="#D01F27"/>
<path d="M1833.82 1459.64C1831.6 1460 1828.26 1460.36 1824.93 1461.09C1817.89 1462.53 1815.29 1462.9 1812.7 1462.9C1805.66 1462.9 1801.58 1461.09 1794.91 1453.85C1786.39 1444.79 1784.17 1441.54 1784.17 1436.11C1784.17 1431.04 1785.28 1429.59 1787.5 1429.59C1788.99 1429.59 1789.35 1429.95 1790.84 1431.04C1796.03 1434.66 1797.88 1435.75 1802.33 1437.2C1807.52 1439.01 1810.11 1439.37 1816.04 1439.37C1820.11 1439.37 1826.04 1439.01 1830.86 1438.28C1849.76 1436.11 1864.58 1432.85 1880.14 1429.23C1888.67 1427.42 1889.41 1427.06 1893.48 1423.08C1895.71 1420.9 1900.16 1419.45 1904.23 1419.45C1908.68 1419.45 1922.02 1421.63 1925.72 1422.71C1932.77 1425.25 1937.58 1431.4 1937.58 1437.92C1937.58 1445.88 1932.77 1448.41 1916.46 1449.5C1905.34 1450.23 1893.48 1450.95 1886.07 1452.04C1881.25 1452.76 1876.07 1453.85 1871.25 1454.57C1869.4 1454.93 1867.92 1454.93 1865.69 1455.3C1869.03 1456.74 1871.99 1458.19 1873.47 1458.91C1877.92 1461.81 1880.89 1465.07 1880.89 1469.05C1880.89 1471.95 1880.52 1474.12 1879.03 1478.1C1878.29 1480.27 1877.18 1483.89 1876.81 1487.51C1875.33 1498.37 1874.58 1504.53 1874.21 1511.04C1875.7 1511.04 1877.18 1510.68 1878.29 1510.68C1899.78 1508.15 1913.87 1507.06 1922.76 1507.06C1927.21 1507.06 1928.32 1505.98 1931.65 1503.8C1934.61 1501.63 1937.21 1500.91 1941.29 1500.91C1947.59 1500.91 1956.85 1503.8 1966.11 1508.15C1976.86 1513.22 1980.94 1517.56 1980.94 1524.8C1980.94 1533.13 1976.49 1537.11 1967.6 1537.11C1963.52 1537.11 1954.99 1536.03 1944.99 1533.85C1935.73 1532.04 1921.27 1530.96 1909.42 1530.96C1895.33 1530.96 1876.43 1532.04 1862.35 1533.85C1853.09 1534.94 1825.3 1539.65 1817.52 1541.46C1808.25 1543.62 1799.36 1545.8 1793.06 1549.78C1787.5 1553.04 1785.28 1553.76 1781.57 1553.76C1774.53 1553.76 1766.75 1550.15 1759.33 1542.54C1751.55 1535.3 1746.74 1527.7 1746.74 1522.63C1746.74 1520.82 1746.74 1517.92 1747.1 1516.84C1747.85 1514.3 1749.33 1512.85 1751.18 1512.85C1752.29 1512.85 1753.41 1513.94 1754.52 1514.66C1757.11 1516.47 1762.3 1519.73 1763.41 1520.46C1766.75 1522.27 1770.45 1522.99 1774.89 1522.99C1778.23 1522.99 1781.2 1522.63 1795.65 1520.82C1811.95 1518.65 1822.7 1517.2 1840.49 1515.03C1840.86 1502.36 1841.23 1487.88 1841.23 1473.76C1841.23 1466.88 1840.12 1462.53 1838.27 1460.36L1837.16 1459.28L1833.82 1459.64Z" fill="#D01F27"/>
<path d="M2227.72 1425.24C2241.06 1424.52 2250.69 1423.8 2262.92 1423.44C2270.33 1423.08 2287.01 1422.35 2300.72 1425.97C2315.54 1429.59 2322.21 1437.19 2322.21 1447.69C2322.21 1457.11 2315.17 1463.26 2297.38 1463.62C2277 1463.98 2258.47 1463.62 2231.42 1463.62C2213.64 1463.62 2188.44 1464.34 2169.17 1465.43C2149.53 1466.51 2121.37 1468.69 2098.76 1471.22C2092.46 1471.95 2081.71 1473.39 2074.68 1476.65C2067.64 1479.91 2064.3 1479.91 2060.59 1479.91C2050.96 1479.91 2042.06 1474.12 2032.43 1464.71C2022.8 1455.29 2014.27 1445.52 2014.27 1433.21C2014.27 1430.32 2014.27 1427.78 2015.38 1424.16C2016.13 1422.35 2017.24 1420.9 2018.35 1420.9C2019.09 1420.9 2019.83 1421.26 2021.31 1422.35C2026.87 1427.05 2033.17 1430.68 2037.99 1432.85C2043.55 1435.38 2050.96 1435.74 2056.52 1435.74C2062.08 1435.74 2075.04 1435.02 2083.94 1434.66C2117.66 1432.85 2143.6 1430.31 2167.69 1428.87C2188.07 1427.42 2208.08 1426.33 2227.72 1425.24L2227.72 1425.24Z" fill="#D01F27"/>
<path d="M2355.56 1364.43C2355.56 1362.98 2356.67 1362.26 2358.89 1361.9C2364.08 1361.17 2369.27 1360.81 2374.83 1360.81C2392.99 1360.81 2411.51 1365.15 2425.22 1372.03C2440.79 1380 2452.28 1392.31 2452.28 1407.51C2452.28 1425.25 2441.9 1434.3 2425.59 1434.3C2414.11 1434.3 2405.58 1426.7 2399.28 1412.22C2389.64 1390.86 2377.42 1377.46 2358.52 1367.69C2356.67 1366.97 2355.56 1365.88 2355.56 1364.43V1364.43ZM2439.31 1551.95C2432.27 1558.1 2428.93 1560.28 2423.74 1560.28C2414.11 1560.28 2400.03 1550.87 2390.02 1540.73C2380.01 1530.23 2372.23 1519.37 2372.23 1512.49C2372.23 1508.87 2373.72 1501.63 2376.31 1495.84C2377.42 1493.66 2378.16 1492.58 2379.27 1492.58C2380.39 1492.58 2381.5 1493.66 2382.61 1495.11C2385.94 1499.82 2388.91 1502.72 2391.5 1504.89C2395.2 1507.78 2399.28 1511.04 2404.84 1511.04C2411.14 1511.04 2430.04 1501.63 2442.27 1495.11C2479.7 1474.12 2514.9 1448.05 2547.88 1416.92C2577.15 1389.41 2605.69 1358.64 2633.11 1321.71C2633.85 1320.62 2634.96 1320.26 2635.7 1320.26C2636.81 1320.26 2637.55 1320.99 2637.55 1322.44C2637.55 1323.89 2637.19 1324.97 2636.81 1326.05C2622.73 1369.49 2599.75 1408.96 2570.11 1442.99C2535.65 1483.17 2498.22 1513.94 2463.02 1536.02C2452.28 1542.9 2445.23 1546.52 2439.31 1551.95Z" fill="#D01F27"/>
<path d="M2719.45 1357.91C2753.91 1325.69 2795.41 1309.04 2840.25 1309.04C2876.2 1309.04 2907.7 1319.54 2932.89 1339.09C2969.95 1368.05 2992.93 1415.11 2992.93 1465.06C2992.93 1502.35 2980.33 1532.76 2949.57 1554.48C2919.93 1575.12 2871.75 1588.51 2800.98 1591.41C2798.38 1591.41 2797.27 1590.32 2797.27 1589.23C2797.27 1588.14 2798.01 1586.7 2800.24 1586.34C2841.74 1576.93 2876.94 1561.72 2901.77 1541.45C2929.56 1519 2943.27 1487.15 2943.27 1449.5C2943.27 1411.84 2929.19 1375.64 2906.21 1352.47C2887.69 1334.01 2864.71 1323.51 2838.4 1323.51C2834.7 1323.51 2830.99 1323.88 2827.29 1324.24C2832.85 1328.94 2838.03 1335.1 2842.11 1341.25C2849.52 1352.11 2851.37 1362.61 2851.37 1373.83C2851.37 1381.07 2849.52 1393.74 2847.3 1404.96C2836.92 1456.01 2813.94 1503.43 2793.56 1528.05C2774.3 1551.22 2752.06 1564.25 2732.42 1564.25C2716.48 1564.25 2704.63 1560.26 2697.96 1538.55C2695.36 1530.58 2692.03 1521.17 2686.47 1512.12C2675.72 1495.1 2665.34 1482.43 2665.34 1462.52C2665.34 1423.06 2688.32 1386.86 2719.44 1357.9L2719.45 1357.91ZM2708.33 1504.53C2714.26 1512.49 2719.82 1515.39 2729.83 1515.39C2742.05 1515.39 2755.39 1506.7 2769.47 1489.33C2790.22 1464.35 2812.46 1420.18 2822.46 1378.55C2824.32 1370.22 2826.54 1359.73 2826.54 1352.85C2826.54 1347.78 2825.8 1341.26 2823.58 1335.47C2822.09 1331.85 2820.24 1328.59 2818.39 1325.69C2790.97 1331.49 2765.4 1349.22 2744.65 1374.2C2719.08 1404.98 2701.66 1441.17 2701.66 1477.74C2701.66 1491.13 2704.62 1499.1 2708.33 1504.53L2708.33 1504.53Z" fill="#D01F27"/>
<path d="M3082.96 1418.01C3092.23 1435.02 3098.53 1456.02 3098.53 1487.51C3098.53 1524.8 3082.22 1549.06 3058.14 1549.06C3042.2 1549.06 3033.68 1540.01 3033.68 1523.71C3033.68 1512.13 3041.83 1503.08 3052.58 1494.03C3072.58 1477.37 3082.22 1455.66 3079.63 1418.73L3082.96 1418.01ZM3128.91 1397.01C3128.91 1381.08 3127.8 1374.21 3124.47 1367.32L3127.06 1364.79C3182.27 1372.75 3189.32 1376.74 3189.32 1382.89C3189.32 1387.6 3185.98 1389.41 3175.23 1393.03V1533.49C3175.23 1549.42 3177.09 1552.31 3199.32 1552.31C3234.89 1552.31 3247.49 1549.42 3259.35 1534.93C3266.39 1526.25 3275.28 1510.68 3282.32 1485.34L3286.03 1485.7C3284.92 1509.59 3284.92 1522.26 3284.92 1527.33C3284.92 1533.48 3287.14 1538.19 3291.22 1542.17C3296.78 1547.61 3299.37 1553.4 3299.37 1561C3299.37 1570.77 3294.92 1578.37 3287.14 1583.08C3275.28 1589.96 3256.01 1596.84 3200.06 1596.84C3136.69 1596.84 3127.43 1584.89 3127.43 1538.92L3128.91 1472.31V1397.01ZM3159.67 1282.97C3208.95 1284.42 3252.31 1303.97 3252.31 1339.45C3252.31 1358.64 3237.86 1368.05 3223.04 1368.05C3209.33 1368.05 3201.92 1361.53 3198.58 1344.88C3193.02 1320.98 3181.9 1297.09 3158.19 1285.87L3159.67 1282.97ZM3276.4 1410.77C3343.84 1429.59 3372.37 1470.86 3372.37 1509.23C3372.37 1530.23 3358.29 1540.73 3343.1 1540.73C3329.39 1540.73 3321.24 1534.21 3319.38 1515.39C3314.57 1468.32 3301.97 1434.66 3274.54 1413.66L3276.4 1410.77Z" fill="#D01F27"/>
<path d="M3692.53 1394.11C3699.58 1383.98 3704.39 1377.82 3707.36 1373.84C3705.88 1371.31 3704.77 1368.05 3703.65 1363.71C3700.32 1351.04 3693.28 1339.45 3679.93 1331.12L3681.05 1328.95C3724.77 1331.85 3740.34 1344.88 3740.34 1360.81C3740.34 1369.49 3736.26 1374.57 3731.45 1377.46C3732.56 1378.55 3733.67 1379.27 3734.78 1380.36C3746.64 1391.22 3748.12 1393.02 3748.12 1395.92C3748.12 1399.55 3746.27 1400.63 3740.71 1400.63H3685.49C3685.49 1408.23 3685.49 1414.75 3685.86 1425.97C3686.23 1442.62 3687.72 1459.28 3690.31 1474.85C3692.91 1466.16 3695.5 1457.11 3697.72 1448.78C3701.06 1435.02 3701.43 1430.32 3700.69 1425.61L3703.65 1423.8C3743.67 1440.82 3746.26 1442.62 3746.26 1446.97C3746.26 1450.23 3744.04 1452.04 3732.92 1453.49C3724.03 1477.74 3714.02 1500.19 3701.8 1520.1C3702.91 1524.44 3704.76 1528.42 3706.24 1532.41C3711.06 1543.99 3715.51 1550.87 3719.21 1550.87C3722.17 1550.87 3725.88 1548.34 3729.96 1541.82C3734.78 1534.22 3739.96 1526.62 3746.26 1513.58L3749.6 1515.03C3739.96 1549.42 3737.74 1558.11 3737.74 1564.63C3737.74 1570.42 3738.85 1574.04 3741.81 1578.38C3744.78 1583.09 3747.37 1588.52 3747.37 1594.67C3747.37 1604.81 3742.93 1611.69 3729.22 1611.69C3713.28 1611.69 3692.9 1592.86 3678.45 1558.84C3677.71 1557.02 3676.97 1555.21 3675.86 1553.04C3651.77 1578.38 3618.42 1598.29 3570.61 1611.69L3568.39 1608.79C3601.37 1590.69 3622.87 1574.04 3639.17 1556.66H3588.78V1564.63C3588.78 1577.66 3580.62 1581.28 3569.13 1581.28C3561.72 1581.28 3560.61 1580.92 3560.61 1572.95L3562.84 1473.76V1445.53C3562.84 1431.77 3562.84 1425.98 3560.24 1420.18L3562.47 1417.65C3585.07 1425.25 3592.85 1428.51 3595.08 1431.41H3621.76C3633.24 1416.2 3635.1 1414.39 3637.69 1414.39C3639.17 1414.39 3641.77 1415.48 3648.07 1420.91C3649.18 1421.99 3649.92 1422.72 3651.03 1423.44C3650.66 1415.84 3650.66 1408.24 3650.29 1400.64H3564.32C3562.83 1402.81 3559.13 1404.98 3553.2 1406.79V1442.63C3553.2 1545.8 3537.26 1578.75 3494.65 1611.33L3492.06 1609.16C3514.66 1574.4 3519.11 1551.23 3519.11 1460.73V1409.69C3519.11 1394.12 3518 1385.8 3516.14 1380.73L3518.74 1378.19C3551.72 1387.24 3561.72 1390.86 3564.69 1394.12H3650.29V1381.45C3650.29 1372.04 3649.92 1365.52 3648.44 1360.09H3641.4C3633.62 1360.09 3632.13 1359.73 3632.13 1350.68L3632.87 1322.08H3600.26L3601.01 1348.51C3601.01 1361.18 3591 1365.16 3569.14 1365.16C3561.36 1365.16 3559.88 1364.8 3559.88 1355.75L3560.99 1322.44C3539.12 1322.8 3527.64 1323.53 3516.52 1324.98L3513.92 1315.2C3512.07 1316.65 3508.74 1318.1 3503.55 1320.63V1441.18L3504.66 1565.72C3504.66 1596.13 3476.87 1610.61 3463.16 1610.61C3457.6 1610.61 3456.49 1609.52 3455.37 1601.56C3454.26 1588.89 3447.23 1577.3 3426.1 1572.23V1568.25C3437.96 1568.61 3448.7 1567.89 3454.63 1566.8C3463.9 1565.35 3467.6 1562.46 3467.6 1549.79V1467.61H3441.66C3438.33 1509.61 3431.29 1536.03 3422.39 1558.11C3414.61 1577.66 3405.72 1591.42 3394.97 1605.9L3392.01 1603.73C3398.31 1583.09 3401.27 1567.17 3404.24 1544.72C3407.94 1517.21 3409.42 1484.63 3409.42 1415.12V1317.01C3409.42 1293.84 3408.68 1288.78 3405.35 1281.9L3407.94 1279.37C3435.36 1288.42 3447.59 1292.76 3451.3 1296.74H3462.79C3473.53 1282.98 3476.5 1279 3480.2 1279C3484.65 1279 3487.61 1280.45 3501.32 1292.4C3513.18 1302.89 3516.14 1306.88 3516.14 1310.14C3516.14 1311.22 3516.14 1311.95 3515.78 1313.03C3530.6 1314.48 3545.79 1314.84 3560.98 1315.2V1296.38C3560.98 1284.43 3560.61 1278.64 3558.39 1273.57L3560.61 1271.4C3601.38 1277.19 3610.27 1280.09 3610.27 1284.43C3610.27 1288.78 3608.42 1290.59 3599.89 1293.12V1315.57H3633.24V1296.38C3633.24 1284.43 3632.87 1278.64 3630.65 1273.57L3632.87 1271.4C3676.97 1277.56 3683.27 1280.45 3683.27 1284.79C3683.27 1289.14 3681.42 1290.95 3672.89 1293.48V1315.57H3685.12C3704.02 1289.86 3706.98 1287.33 3710.32 1287.33C3713.28 1287.33 3716.24 1289.14 3731.07 1301.45C3743.67 1311.94 3744.41 1314.48 3744.41 1317.37C3744.41 1320.99 3742.56 1322.08 3737 1322.08H3673.26L3674 1343.44C3674 1349.59 3671.41 1353.94 3665.85 1356.48C3694.76 1360.09 3698.46 1363.72 3698.46 1368.42C3698.46 1372.04 3694.76 1373.85 3686.23 1375.66C3685.86 1383.26 3685.86 1389.06 3685.86 1394.12H3692.53V1394.11ZM3467.61 1382.89H3443.52V1412.21C3443.52 1430.32 3443.15 1446.61 3442.04 1461.09H3467.6L3467.61 1382.89ZM3467.61 1303.25H3451.3C3450.19 1304.33 3447.97 1305.78 3443.52 1307.96V1376.38H3467.61L3467.61 1303.25ZM3595.08 1437.92C3593.97 1439.37 3592.12 1440.09 3588.78 1441.54V1470.14H3599.9V1437.92H3595.08L3595.08 1437.92ZM3628.06 1476.65H3588.78V1508.15H3628.06V1476.65ZM3599.9 1514.66H3588.78V1550.14H3599.9V1514.66ZM3654.74 1469.05C3653.26 1458.91 3652.14 1448.41 3651.78 1437.92H3628.43C3627.69 1441.18 3626.58 1442.62 3623.61 1444.43V1470.14H3626.95C3635.1 1459.28 3637.32 1457.11 3638.81 1457.11C3641.03 1457.11 3643.99 1458.91 3652.15 1466.52L3654.74 1469.05ZM3628.06 1550.14C3639.92 1534.94 3641.77 1533.13 3643.99 1533.13C3646.22 1533.13 3648.44 1533.85 3654.37 1539.28C3658.45 1533.85 3662.15 1528.42 3665.86 1522.99C3662.52 1510.32 3659.56 1497.65 3657.34 1484.62C3656.22 1485.34 3654.74 1486.43 3653.26 1487.51V1495.11L3654.74 1511.4C3654.74 1520.82 3646.96 1524.44 3637.7 1524.44C3629.17 1524.44 3628.06 1523.35 3628.06 1515.39C3627.32 1517.92 3626.21 1519.37 3623.61 1520.82V1550.14H3628.06L3628.06 1550.14Z" fill="#D01F27"/>
</svg>
