<svg width="4096" height="723" viewBox="0 0 4096 723" fill="none" xmlns="http://www.w3.org/2000/svg">
<g clip-path="url(#clip0_2_220)">
<path d="M729.57 305.192H605.115V426.776H729.57V305.192Z" fill="white"/>
<path d="M124.455 305.192H0V426.776H124.455V305.192Z" fill="white"/>
<path d="M302.589 426.776H427.044V305.192H302.523V426.776H302.589Z" fill="white"/>
<path d="M275.75 156.882H151.295V575.02H275.75V156.882Z" fill="white"/>
<path d="M453.82 305.192V575.02H578.341V156.882H453.82V305.192Z" fill="white"/>
<path d="M453.82 305.192V575.02H578.341V156.882H453.82V305.192Z" fill="white"/>
<path d="M427.045 452.934H302.59V722.826H427.045V452.934Z" fill="white"/>
<path d="M1469.34 722.823V156.882H1626.44V371.874H1834.83V156.882H1991.94V722.823H1834.83V493.459H1626.44V722.823H1469.34Z" fill="white"/>
<path d="M2358.98 722.823V156.882H2530.02L2668.02 379.061C2679.96 398.284 2691.12 417.571 2701.44 436.796C2711.83 456.019 2721.83 477.261 2731.57 500.394C2741.31 523.589 2751.19 550.565 2761.32 581.512H2747.7C2746.41 561.029 2744.8 537.266 2742.86 510.29C2740.93 483.314 2739.18 456.714 2737.64 430.558C2736.09 404.338 2735.31 382.278 2735.31 364.251V156.884H2897.06V722.825H2726.02L2597.31 516.214C2582.79 492.641 2570.02 470.707 2558.98 450.285C2547.95 429.928 2537.37 408.308 2527.11 385.553C2516.85 362.737 2505.18 336.453 2491.95 306.578H2508.27C2510.34 333.176 2512.34 359.649 2514.27 385.931C2516.21 412.277 2517.76 436.732 2518.92 459.235C2520.08 481.799 2520.66 500.77 2520.66 516.214V722.825H2358.91H2358.98L2358.98 722.823Z" fill="white"/>
<path d="M2254.01 156.882H2096.9V722.823H2254.01V156.882Z" fill="white"/>
<path d="M4000.9 0V88.1149H3668.5V0H4000.9Z" fill="white"/>
<path d="M4000.58 156.882H3573.47V722.825H4096V156.882H4000.58ZM3730.51 601.24V278.465H3938.9V601.24H3730.51Z" fill="white"/>
<path d="M1365.01 722.822H892.221V601.238H1056.29C1086.1 601.238 1115.97 601.49 1145.91 601.994C1175.84 602.499 1205.84 604.263 1235.91 607.288L1226.17 654.372C1203.91 631.303 1181.91 608.297 1160.29 585.228C1138.68 562.16 1119 539.153 1101.39 516.084L891.447 241.842V156.752H1364.24V278.462H1186.94C1159.2 278.462 1131.45 278.21 1103.71 277.706C1075.97 277.201 1048.23 275.437 1020.48 272.412L1030.23 225.202C1051.71 247.262 1072.94 269.322 1093.78 291.509C1114.68 313.695 1133.52 335.755 1150.36 357.815L1364.94 637.73V722.819H1365.01V722.822Z" fill="white"/>
<path d="M3002.1 722.82V637.73L3216.68 357.815C3233.52 335.755 3252.36 313.695 3273.27 291.509C3294.1 269.322 3315.33 247.262 3336.81 225.202L3346.56 272.412C3318.82 275.437 3291.07 277.201 3263.33 277.706C3235.59 278.21 3207.84 278.462 3180.1 278.462H3002.8V156.752H3475.59V241.842L3265.65 516.084C3248.04 539.153 3228.36 562.16 3206.75 585.228C3185.13 608.297 3163.13 631.303 3140.87 654.372L3131.13 607.288C3161.19 604.263 3191.2 602.499 3221.13 601.994C3251.07 601.49 3280.94 601.238 3310.75 601.238H3474.82V722.822H3002.03H3002.1V722.82Z" fill="white"/>
<path d="M1297.26 386.004C1297.26 383.74 1296.97 383.74 1295.23 383.74C1292.92 383.74 1285.67 385.44 1281.61 386.289C1268.56 389.124 1253.2 392.237 1241.02 395.92C1236.38 397.335 1228.55 399.6 1223.05 403.283C1218.12 406.398 1215.22 408.381 1210.29 408.381C1203.33 408.381 1195.8 403.567 1189.71 397.617C1183.04 391.102 1177.24 383.456 1177.24 377.507C1177.24 375.527 1177.53 373.262 1178.11 370.713C1178.69 368.73 1179.56 367.878 1180.72 367.878C1181.59 367.878 1182.75 368.444 1183.62 369.294C1187.67 372.409 1191.73 374.108 1194.34 375.527C1198.4 377.507 1202.46 378.076 1205.94 378.076C1209.13 378.076 1216.67 377.225 1224.2 376.093C1242.18 373.262 1262.76 369.578 1279.29 366.181C1291.17 363.912 1292.91 362.782 1297.26 358.25C1300.45 355.135 1302.48 354.285 1305.38 354.285C1310.02 354.285 1319.88 358.25 1329.15 365.049C1338.43 371.281 1346.84 378.36 1346.84 385.44C1346.84 388.555 1346.26 390.538 1341.91 393.937C1334.95 398.469 1334.66 400.166 1331.76 408.663C1315.24 455.112 1292.62 487.966 1261.89 513.172C1236.67 533.563 1203.62 547.445 1169.41 553.391C1167.67 553.673 1166.22 553.957 1165.06 553.957C1163.61 553.957 1163.03 553.391 1163.03 552.261C1163.03 551.692 1163.61 550.844 1164.77 550.278C1193.76 536.967 1219.85 517.706 1242.18 493.351C1265.08 467.575 1283.34 434.723 1293.78 401.302C1295.23 396.204 1297.26 389.408 1297.26 386.006L1297.26 386.004ZM1361.05 337.574C1367.71 341.54 1372.06 346.92 1372.06 353.434C1372.06 360.515 1366.84 366.181 1360.76 366.181C1356.7 366.181 1353.22 364.48 1349.74 358.532C1342.78 346.354 1335.53 339.557 1326.84 334.459C1325.39 333.891 1324.81 333.043 1324.81 332.19C1324.81 331.338 1325.68 330.494 1327.7 330.494C1341.91 330.212 1353.22 333.043 1361.05 337.574ZM1361.34 310.384C1372.06 310.384 1379.89 312.085 1385.98 314.916C1393.52 318.595 1398.16 324.546 1398.16 331.06C1398.16 337.857 1393.81 342.954 1388.01 342.954C1384.24 342.954 1381.34 341.822 1376.7 335.308C1368.58 324.261 1362.21 319.164 1352.64 314.632C1351.19 314.064 1350.61 313.215 1350.61 312.367C1350.61 311.519 1351.48 310.951 1353.22 310.666C1356.12 310.384 1358.73 310.384 1361.34 310.384Z" fill="#D01F27"/>
<path d="M1460.77 511.758C1460.77 521.954 1455.56 526.767 1448.6 526.767C1442.8 526.767 1436.13 524.503 1431.49 516.856C1428.59 511.192 1423.96 503.827 1423.96 495.33C1423.96 492.215 1423.67 489.383 1423.96 487.119C1424.24 484.57 1423.96 479.756 1423.67 476.639C1422.51 457.946 1420.48 433.022 1416.71 409.516C1414.97 399.318 1413.52 393.938 1410.33 391.103C1408.3 389.406 1405.98 387.706 1403.37 386.857C1401.93 386.289 1401.05 385.723 1401.05 384.874C1401.05 384.026 1401.64 382.892 1402.8 382.039C1405.69 379.491 1409.18 377.226 1413.52 377.226C1418.74 377.226 1432.08 381.475 1438.46 384.592C1441.64 386.289 1443.96 387.708 1445.7 389.406C1469.19 385.441 1494.7 380.909 1516.44 377.794C1523.69 376.944 1523.69 376.377 1528.91 370.997C1532.1 367.88 1535.58 367.314 1538.18 367.314C1542.82 367.314 1552.97 373.546 1561.67 380.343C1571.53 387.139 1579.93 394.22 1579.93 401.019C1579.93 405.832 1579.06 408.665 1573.56 412.347C1568.05 416.596 1568.05 418.293 1565.44 427.642C1561.96 440.669 1559.35 454.833 1555.58 472.959C1558.48 473.526 1561.38 474.092 1563.99 475.224C1572.11 478.621 1576.74 483.435 1576.74 489.101C1576.74 495.898 1574.43 499.297 1564.86 499.297C1559.06 499.297 1553.26 497.601 1546.59 497.032C1543.41 496.75 1539.64 496.466 1534.71 496.466C1530.07 496.466 1524.85 496.748 1518.47 497.032C1497.89 498.449 1480.79 500.998 1460.2 504.681C1460.49 507.512 1460.78 509.779 1460.78 511.762L1460.77 511.758ZM1516.44 475.788C1519.05 475.506 1521.66 474.94 1523.97 474.654C1525.42 453.412 1526.88 434.721 1527.74 415.46C1528.03 409.514 1528.03 404.696 1528.03 401.583C1528.03 397.051 1528.03 396.485 1523.39 396.485C1521.65 396.485 1517.6 396.767 1515.86 397.051C1497.01 399.034 1473.24 403.848 1450.04 408.097C1450.63 412.629 1451.21 417.161 1451.49 421.692C1452.07 427.072 1452.37 432.172 1452.94 437.552C1453.81 444.067 1454.39 450.581 1455.26 457.38C1456.13 466.161 1457.29 475.222 1458.16 484.003C1478.17 480.604 1496.72 477.771 1516.43 475.788H1516.44Z" fill="#D01F27"/>
<path d="M1638.2 453.133C1637.91 451.716 1637.62 450.584 1637.04 448.883C1634.14 438.687 1629.5 431.889 1621.97 425.094C1621.39 424.526 1620.52 423.96 1620.52 422.825C1620.52 421.691 1621.97 421.129 1623.41 421.129C1635.88 421.695 1648.64 426.509 1657.34 434.44C1663.72 440.386 1667.19 447.182 1667.19 454.263C1667.19 463.326 1661.97 468.708 1652.7 468.708C1644.29 468.708 1641.1 465.025 1638.2 453.131V453.133ZM1635.01 549.144C1652.12 540.647 1672.99 523.937 1687.77 506.663C1705.46 485.985 1717.35 462.76 1725.46 433.871C1727.2 427.925 1728.07 423.676 1728.07 420.562C1728.07 417.449 1727.78 416.879 1725.17 414.33C1723.72 412.914 1721.69 411.499 1719.08 410.081C1718.21 409.514 1717.34 408.664 1717.34 407.816C1717.34 406.681 1718.51 405.833 1719.66 405.267C1723.72 403.566 1728.36 402.718 1730.39 402.718C1735.03 402.718 1742.86 406.397 1750.1 412.063C1757.64 417.727 1762.57 423.676 1762.57 428.207C1762.57 430.756 1761.7 432.457 1758.51 435.57C1756.77 437.553 1755.61 439.536 1754.16 443.785C1743.72 474.088 1725.17 503.545 1705.46 521.106C1685.16 539.515 1659.94 552.262 1632.69 557.642C1630.95 557.924 1628.92 558.49 1627.18 558.49C1625.44 558.49 1624.57 557.357 1624.57 555.941C1624.57 554.808 1625.15 553.958 1626.31 553.392L1635.01 549.142L1635.01 549.144ZM1679.08 439.822C1678.79 438.121 1678.21 436.706 1677.92 435.856C1675.31 427.075 1669.22 417.729 1664 414.05C1662.84 413.2 1662.55 412.916 1662.55 411.785C1662.55 410.655 1663.42 409.802 1665.16 409.802C1675.89 410.085 1687.78 413.766 1696.18 419.998C1703.43 425.38 1707.49 432.461 1707.49 439.826C1707.49 449.455 1702.27 455.403 1692.99 455.403C1685.17 455.403 1682.27 452.288 1679.08 439.826V439.822Z" fill="#D01F27"/>
<path d="M1927.24 374.112C1932.75 373.264 1933.04 372.412 1936.52 367.316C1939.13 364.767 1941.74 363.633 1944.64 363.633C1948.41 363.633 1958.55 368.446 1966.96 374.679C1976.82 381.759 1982.91 387.99 1982.91 394.506C1982.91 398.472 1979.14 401.303 1975.95 402.721C1970.44 404.986 1969.28 407.253 1965.51 414.616C1944.93 457.383 1919.7 491.652 1889.55 514.311C1861.43 536.117 1830.12 551.695 1792.43 560.192C1791.27 560.474 1788.95 561.042 1788.09 561.042C1786.64 561.042 1785.77 560.192 1785.77 559.342C1785.77 558.491 1786.06 557.641 1787.22 557.077C1819.11 540.649 1847.23 520.823 1872.74 494.483C1896.51 469.276 1916.52 440.669 1930.14 406.116C1931.59 402.151 1933.62 395.352 1933.62 393.374C1933.62 391.957 1933.04 391.673 1931.3 391.673C1929.85 391.673 1924.64 392.805 1923.77 393.088C1920.87 394.222 1916.81 395.352 1913.91 396.205C1910.43 397.619 1907.24 398.754 1904.34 398.754C1900.86 398.754 1895.64 397.337 1890.72 394.504C1883.18 405.832 1874.19 417.445 1863.75 427.642C1846.94 444.917 1827.23 459.93 1806.35 467.575C1804.32 468.426 1802.87 467.293 1802.87 466.161C1802.87 465.31 1803.16 464.744 1804.03 463.896C1818.82 448.6 1832.15 431.606 1843.46 414.614C1854.48 397.335 1864.04 379.492 1871.87 359.951C1873.9 355.419 1876.22 348.339 1876.22 344.655C1876.22 341.824 1875.06 339.842 1872.45 338.141C1871 337.293 1869.56 336.44 1866.95 335.31C1865.5 334.744 1864.63 333.893 1864.63 333.045C1864.63 332.197 1865.5 331.344 1866.66 330.496C1871.01 327.947 1875.93 326.247 1879.41 326.247C1883.76 326.247 1894.2 330.778 1902.61 336.158C1911.3 341.824 1915.94 346.638 1915.94 354.001C1915.94 358.251 1914.2 359.667 1910.43 363.346C1907.54 366.181 1905.79 368.16 1901.74 376.093C1901.16 377.226 1900.29 378.642 1899.71 380.059C1906.67 379.208 1918.84 376.093 1927.25 374.11L1927.24 374.112Z" fill="#D01F27"/>
<path d="M2097.13 386.855C2074.52 392.519 2050.45 397.051 2025.81 396.767C2024.07 396.767 2023.2 395.918 2023.2 394.784C2023.2 393.936 2023.78 392.801 2025.23 392.519C2047.85 386.287 2072.49 377.224 2089.59 369.012C2102.06 363.346 2112.5 357.684 2122.64 351.452C2127.86 348.055 2132.5 344.937 2132.5 343.237C2132.5 340.688 2130.18 338.139 2128.74 336.722C2127.87 335.874 2126.71 334.742 2124.68 333.325C2123.51 332.477 2122.94 331.625 2122.94 330.776C2122.94 329.928 2123.52 329.36 2125.25 328.793C2129.02 327.945 2133.37 327.377 2135.98 327.377C2141.2 327.377 2151.05 330.776 2161.49 336.722C2172.51 342.955 2178.89 349.185 2178.89 355.699C2178.89 360.513 2177.15 362.496 2169.9 363.628C2165.26 364.479 2160.33 365.893 2157.72 367.028C2147.87 371.277 2137.43 375.243 2126.7 378.356C2131.34 380.057 2135.11 382.035 2138.01 384.02C2146.42 389.686 2151.05 391.951 2151.05 399.032C2151.05 400.732 2150.48 402.715 2149.61 404.98C2148.74 406.963 2148.16 409.225 2147.87 411.494C2147.87 412.627 2147.58 413.757 2147.58 414.892C2153.37 414.043 2159.75 413.191 2166.13 412.061C2173.67 410.926 2174.83 410.36 2179.18 407.247C2182.66 404.696 2187.87 402.997 2192.51 402.997C2198.02 402.997 2206.43 404.98 2215.41 408.377C2225.85 412.343 2231.94 417.158 2231.94 424.521C2231.94 431.884 2227.88 435.001 2219.19 435.001C2213.97 435.001 2208.46 433.867 2199.76 432.736C2190.48 431.602 2180.34 431.602 2165.84 432.17C2159.46 432.452 2152.79 433.018 2146.12 433.867C2142.36 470.404 2131.92 500.143 2108.15 523.65C2092.2 540.076 2068.14 553.105 2035.09 560.186C2033.64 560.468 2032.48 560.752 2031.32 560.752C2030.16 560.752 2029.29 559.904 2029.29 559.055C2029.29 558.487 2029.58 557.639 2030.74 557.073C2058.28 542.627 2074.81 527.9 2087.56 509.491C2102.35 487.399 2109.59 467.007 2112.79 438.4C2103.51 440.101 2093.65 442.084 2084.37 444.349C2077.42 446.049 2069.3 448.314 2064.37 451.145C2059.15 454.26 2056.83 455.959 2053.06 455.959C2045.81 455.959 2039.73 451.709 2033.64 446.329C2027.84 441.231 2020.59 433.583 2020.59 428.487C2020.59 426.504 2020.88 423.955 2021.46 421.69C2021.75 419.989 2022.62 419.425 2023.49 419.425C2024.36 419.425 2025.23 419.991 2026.1 420.56C2030.45 423.675 2033.93 425.373 2036.83 426.506C2040.01 427.922 2043.78 428.771 2047.55 428.771C2052.19 428.771 2059.73 427.638 2067.56 426.506C2085.82 423.391 2100.61 420.842 2114.52 418.859C2114.81 413.759 2114.81 408.379 2114.81 402.999C2114.81 395.35 2113.07 391.671 2110.46 388.27C2109.3 386.855 2108.14 385.721 2106.11 384.59C2103.22 385.439 2100.02 386.005 2097.12 386.855H2097.13Z" fill="#D01F27"/>
<path d="M2326.16 454.261C2324.42 454.544 2321.81 454.83 2319.2 455.396C2313.69 456.528 2311.66 456.812 2309.63 456.812C2304.13 456.812 2300.94 455.396 2295.72 449.73C2289.05 442.649 2287.31 440.1 2287.31 435.853C2287.31 431.887 2288.18 430.755 2289.92 430.755C2291.08 430.755 2291.37 431.037 2292.53 431.887C2296.59 434.722 2298.04 435.57 2301.52 436.705C2305.58 438.119 2307.61 438.402 2312.25 438.402C2315.44 438.402 2320.07 438.119 2323.84 437.553C2338.63 435.853 2350.23 433.304 2362.4 430.473C2369.07 429.056 2369.65 428.772 2372.84 425.659C2374.58 423.958 2378.06 422.824 2381.25 422.824C2384.73 422.824 2395.16 424.524 2398.06 425.375C2403.57 427.355 2407.34 432.171 2407.34 437.269C2407.34 443.501 2403.57 445.48 2390.81 446.332C2382.11 446.899 2372.84 447.465 2367.04 448.315C2363.27 448.881 2359.21 449.73 2355.44 450.298C2353.99 450.58 2352.83 450.58 2351.09 450.864C2353.7 451.997 2356.02 453.129 2357.18 453.695C2360.66 455.96 2362.98 458.509 2362.98 461.626C2362.98 463.891 2362.69 465.59 2361.53 468.707C2360.95 470.407 2360.08 473.239 2359.79 476.07C2358.63 484.567 2358.05 489.381 2357.76 494.478C2358.92 494.478 2360.08 494.196 2360.95 494.196C2377.77 492.214 2388.78 491.365 2395.74 491.365C2399.22 491.365 2400.09 490.515 2402.7 488.816C2405.02 487.116 2407.05 486.552 2410.24 486.552C2415.17 486.552 2422.41 488.816 2429.66 492.216C2438.07 496.181 2441.26 499.578 2441.26 505.244C2441.26 511.759 2437.78 514.874 2430.82 514.874C2427.63 514.874 2420.96 514.026 2413.13 512.325C2405.89 510.909 2394.58 510.06 2385.3 510.06C2374.28 510.06 2359.5 510.909 2348.48 512.325C2341.23 513.173 2319.49 516.857 2313.4 518.273C2306.15 519.97 2299.2 521.671 2294.27 524.788C2289.92 527.337 2288.18 527.903 2285.28 527.903C2279.77 527.903 2273.68 525.072 2267.88 519.122C2261.8 513.456 2258.03 507.509 2258.03 503.544C2258.03 502.129 2258.03 499.86 2258.32 499.012C2258.89 497.029 2260.06 495.897 2261.5 495.897C2262.37 495.897 2263.24 496.745 2264.12 497.311C2266.14 498.728 2270.2 501.277 2271.07 501.843C2273.68 503.26 2276.58 503.826 2280.06 503.826C2282.67 503.826 2284.99 503.544 2296.3 502.129C2309.05 500.429 2317.46 499.294 2331.38 497.598C2331.66 487.684 2331.96 476.354 2331.96 465.308C2331.96 459.928 2331.08 456.526 2329.64 454.83L2328.77 453.979L2326.16 454.261Z" fill="#D01F27"/>
<path d="M2634.33 427.354C2644.77 426.788 2652.3 426.221 2661.87 425.939C2667.67 425.657 2680.71 425.091 2691.44 427.922C2703.04 430.753 2708.26 436.703 2708.26 444.914C2708.26 452.281 2702.75 457.095 2688.83 457.377C2672.89 457.659 2658.39 457.377 2637.23 457.377C2623.31 457.377 2603.6 457.943 2588.52 458.792C2573.16 459.642 2551.12 461.342 2533.44 463.323C2528.51 463.891 2520.1 465.024 2514.59 467.573C2509.09 470.122 2506.48 470.122 2503.58 470.122C2496.04 470.122 2489.08 465.59 2481.54 458.227C2474.01 450.865 2467.34 443.218 2467.34 433.586C2467.34 431.321 2467.34 429.337 2468.21 426.505C2468.79 425.091 2469.66 423.957 2470.52 423.957C2471.1 423.957 2471.69 424.239 2472.84 425.091C2477.19 428.77 2482.12 431.603 2485.89 433.302C2490.24 435.285 2496.04 435.567 2500.39 435.567C2504.74 435.567 2514.88 435.001 2521.84 434.719C2548.22 433.302 2568.52 431.319 2587.36 430.187C2603.31 429.052 2618.96 428.204 2634.33 427.352L2634.33 427.354Z" fill="#D01F27"/>
<path d="M2734.35 379.777C2734.35 378.642 2735.22 378.076 2736.96 377.794C2741.02 377.226 2745.08 376.944 2749.42 376.944C2763.63 376.944 2778.13 380.343 2788.85 385.725C2801.03 391.957 2810.02 401.585 2810.02 413.481C2810.02 427.358 2801.9 434.441 2789.14 434.441C2780.16 434.441 2773.49 428.493 2768.56 417.163C2761.02 400.452 2751.45 389.972 2736.67 382.328C2735.22 381.759 2734.35 380.911 2734.35 379.779V379.777ZM2799.87 526.485C2794.36 531.299 2791.75 533 2787.7 533C2780.16 533 2769.14 525.637 2761.31 517.704C2753.48 509.493 2747.39 500.994 2747.39 495.614C2747.39 492.779 2748.56 487.117 2750.59 482.585C2751.45 480.884 2752.03 480.036 2752.9 480.036C2753.77 480.036 2754.64 480.884 2755.51 482.019C2758.12 485.698 2760.44 487.965 2762.47 489.666C2765.37 491.93 2768.56 494.479 2772.91 494.479C2777.84 494.479 2792.62 487.117 2802.19 482.019C2831.47 465.591 2859.01 445.197 2884.82 420.842C2907.72 399.316 2930.04 375.243 2951.49 346.354C2952.08 345.504 2952.94 345.22 2953.52 345.22C2954.39 345.22 2954.97 345.786 2954.97 346.92C2954.97 348.055 2954.68 348.903 2954.39 349.751C2943.38 383.738 2925.4 414.612 2902.21 441.236C2875.25 472.671 2845.97 496.746 2818.42 514.025C2810.02 519.405 2804.51 522.236 2799.87 526.485Z" fill="#D01F27"/>
<path d="M3019.04 374.676C3046 349.468 3078.47 336.439 3113.55 336.439C3141.68 336.439 3166.32 344.655 3186.03 359.948C3215.03 382.607 3233 419.424 3233 458.509C3233 487.682 3223.14 511.475 3199.08 528.465C3175.89 544.609 3138.2 555.089 3082.83 557.354C3080.8 557.354 3079.93 556.505 3079.93 555.653C3079.93 554.801 3080.51 553.67 3082.25 553.388C3114.72 546.026 3142.26 534.131 3161.68 518.269C3183.43 500.709 3194.15 475.785 3194.15 446.328C3194.15 416.871 3183.13 388.549 3165.16 370.422C3150.66 355.979 3132.69 347.764 3112.1 347.764C3109.21 347.764 3106.31 348.05 3103.41 348.332C3107.76 352.011 3111.81 356.827 3115 361.643C3120.8 370.138 3122.25 378.353 3122.25 387.132C3122.25 392.796 3120.8 402.71 3119.06 411.489C3110.94 451.422 3092.97 488.526 3077.02 507.785C3061.95 525.912 3044.55 536.106 3029.19 536.106C3016.72 536.106 3007.44 532.991 3002.22 515.998C3000.2 509.766 2997.59 502.403 2993.24 495.321C2984.83 482.012 2976.71 472.096 2976.71 456.518C2976.71 425.649 2994.69 397.324 3019.04 374.666L3019.04 374.676ZM3010.35 489.384C3014.98 495.617 3019.33 497.882 3027.16 497.882C3036.73 497.882 3047.16 491.085 3058.18 477.49C3074.41 457.947 3091.81 423.394 3099.64 390.822C3101.09 384.309 3102.82 376.096 3102.82 370.714C3102.82 366.749 3102.25 361.651 3100.51 357.119C3099.35 354.284 3097.9 351.737 3096.45 349.47C3074.99 354.002 3054.99 367.879 3038.75 387.422C3018.75 411.497 3005.12 439.818 3005.12 468.425C3005.12 478.903 3007.44 485.135 3010.34 489.382L3010.35 489.384Z" fill="#D01F27"/>
<path d="M3303.44 421.693C3310.69 435.004 3315.62 451.432 3315.62 476.073C3315.62 505.246 3302.86 524.221 3284.02 524.221C3271.55 524.221 3264.88 517.14 3264.88 504.394C3264.88 495.33 3271.26 488.25 3279.67 481.169C3295.32 468.14 3302.86 451.148 3300.83 422.259L3303.44 421.693ZM3339.39 405.267C3339.39 392.804 3338.52 387.424 3335.91 382.04L3337.94 380.059C3381.14 386.288 3386.65 389.405 3386.65 394.221C3386.65 397.904 3384.04 399.318 3375.63 402.149V512.042C3375.63 524.503 3377.08 526.768 3394.47 526.768C3422.31 526.768 3432.16 524.503 3441.44 513.173C3446.95 506.376 3453.91 494.198 3459.41 474.37L3462.31 474.653C3461.44 493.347 3461.44 503.259 3461.44 507.225C3461.44 512.038 3463.18 515.722 3466.37 518.837C3470.72 523.087 3472.75 527.618 3472.75 533.562C3472.75 541.211 3469.27 547.158 3463.18 550.841C3453.91 556.221 3438.83 561.605 3395.05 561.605C3345.48 561.605 3338.23 552.259 3338.23 516.288L3339.39 464.175V405.267ZM3363.46 316.047C3402.01 317.182 3435.93 332.475 3435.93 360.232C3435.93 375.243 3424.63 382.606 3413.03 382.606C3402.3 382.606 3396.51 377.506 3393.9 364.479C3389.55 345.784 3380.85 327.091 3362.29 318.312L3363.46 316.047ZM3454.78 416.029C3507.54 430.754 3529.87 463.042 3529.87 493.065C3529.87 509.491 3518.85 517.705 3506.96 517.705C3496.24 517.705 3489.86 512.607 3488.41 497.881C3484.64 461.059 3474.78 434.722 3453.33 418.291L3454.78 416.029Z" fill="#D01F27"/>
<path d="M3780.35 403C3785.86 395.069 3789.62 390.253 3791.95 387.14C3790.79 385.157 3789.92 382.608 3789.05 379.209C3786.44 369.297 3780.93 360.234 3770.49 353.72L3771.36 352.019C3805.57 354.284 3817.75 364.482 3817.75 376.942C3817.75 383.739 3814.56 387.706 3810.79 389.971C3811.66 390.819 3812.53 391.388 3813.4 392.236C3822.68 400.733 3823.84 402.148 3823.84 404.415C3823.84 407.25 3822.39 408.098 3818.04 408.098H3774.84C3774.84 414.046 3774.84 419.144 3775.13 427.925C3775.42 440.952 3776.58 453.981 3778.61 466.162C3780.64 459.365 3782.67 452.284 3784.41 445.77C3787.02 435.006 3787.31 431.325 3786.72 427.643L3789.04 426.227C3820.35 439.538 3822.38 440.952 3822.38 444.353C3822.38 446.902 3820.64 448.319 3811.95 449.451C3804.99 468.428 3797.16 485.987 3787.6 501.565C3788.46 504.964 3789.91 508.079 3791.07 511.196C3794.84 520.26 3798.32 525.64 3801.22 525.64C3803.54 525.64 3806.44 523.657 3809.63 518.559C3813.4 512.611 3817.45 506.665 3822.38 496.467L3824.99 497.601C3817.45 524.505 3815.71 531.304 3815.71 536.404C3815.71 540.935 3816.58 543.766 3818.9 547.164C3821.22 550.847 3823.25 555.095 3823.25 559.91C3823.25 567.839 3819.78 573.221 3809.05 573.221C3796.58 573.221 3780.64 558.492 3769.33 531.872C3768.75 530.456 3768.17 529.037 3767.3 527.34C3748.46 547.164 3722.36 562.742 3684.96 573.221L3683.23 570.957C3709.03 556.795 3725.84 543.766 3738.6 530.171H3699.17V536.404C3699.17 546.599 3692.79 549.431 3683.8 549.431C3678 549.431 3677.14 549.148 3677.14 542.918L3678.88 465.313V443.223C3678.88 432.459 3678.88 427.927 3676.85 423.396L3678.59 421.413C3696.27 427.359 3702.36 429.91 3704.1 432.177H3724.97C3733.96 420.28 3735.41 418.866 3737.44 418.866C3738.6 418.866 3740.63 419.714 3745.56 423.964C3746.43 424.812 3747.01 425.38 3747.87 425.947C3747.59 419.998 3747.59 414.052 3747.29 408.104H3680.03C3678.87 409.805 3675.98 411.503 3671.34 412.918V440.956C3671.34 521.676 3658.87 547.452 3625.53 572.941L3623.5 571.241C3641.18 544.051 3644.67 525.924 3644.67 455.119V415.185C3644.67 403.006 3643.8 396.492 3642.35 392.526L3644.38 390.543C3670.18 397.624 3678 400.457 3680.33 403.006H3747.3V393.092C3747.3 385.73 3747.01 380.632 3745.85 376.382H3740.34C3734.25 376.382 3733.09 376.1 3733.09 369.019L3733.67 346.645H3708.16L3708.74 367.321C3708.74 377.232 3700.91 380.35 3683.81 380.35C3677.72 380.35 3676.56 380.067 3676.56 372.983L3677.43 346.927C3660.32 347.209 3651.34 347.775 3642.64 348.91L3640.61 341.261C3639.16 342.395 3636.55 343.53 3632.49 345.511V439.826L3633.36 537.256C3633.36 561.049 3611.62 572.375 3600.89 572.375C3596.54 572.375 3595.67 571.527 3594.8 565.294C3593.93 555.383 3588.43 546.319 3571.9 542.354V539.239C3581.18 539.521 3589.58 538.957 3594.22 538.104C3601.47 536.972 3604.37 534.707 3604.37 524.795V460.501H3584.08C3581.47 493.358 3575.96 514.031 3569 531.308C3562.91 546.603 3555.95 557.366 3547.55 568.696L3545.23 566.995C3550.15 550.851 3552.47 538.39 3554.79 520.83C3557.69 499.304 3558.85 473.814 3558.85 419.434V342.68C3558.85 324.553 3558.27 320.587 3555.66 315.207L3557.69 313.225C3579.15 320.305 3588.71 323.704 3591.61 326.82H3600.6C3609.01 316.056 3611.33 312.942 3614.23 312.942C3617.7 312.942 3620.02 314.075 3630.75 323.422C3640.03 331.633 3642.35 334.751 3642.35 337.3C3642.35 338.148 3642.35 338.714 3642.06 339.564C3653.65 340.697 3665.54 340.979 3677.43 341.261V326.535C3677.43 317.19 3677.14 312.658 3675.4 308.693L3677.14 306.992C3709.03 311.524 3715.99 313.789 3715.99 317.19C3715.99 320.591 3714.54 322.004 3707.87 323.987V341.547H3733.96V326.535C3733.96 317.19 3733.67 312.658 3731.93 308.693L3733.67 306.992C3768.17 311.81 3773.1 314.073 3773.1 317.472C3773.1 320.871 3771.65 322.286 3764.98 324.269V341.547H3774.55C3789.33 321.438 3791.65 319.455 3794.26 319.455C3796.58 319.455 3798.9 320.871 3810.5 330.501C3820.35 338.712 3820.93 340.697 3820.93 342.962C3820.93 345.793 3819.48 346.645 3815.14 346.645H3765.27L3765.85 363.355C3765.85 368.169 3763.82 371.57 3759.47 373.553C3782.09 376.384 3784.98 379.217 3784.98 382.899C3784.98 385.73 3782.09 387.148 3775.42 388.563C3775.13 394.511 3775.13 399.043 3775.13 403.008H3780.35V403ZM3604.37 394.221H3585.53V417.161C3585.53 431.323 3585.24 444.067 3584.37 455.398H3604.37L3604.37 394.221ZM3604.37 331.909H3591.62C3590.75 332.76 3589.01 333.892 3585.53 335.593V389.123H3604.37L3604.37 331.909ZM3704.1 437.271C3703.23 438.403 3701.78 438.971 3699.17 440.102V462.476H3707.87V437.269H3704.1L3704.1 437.271ZM3729.91 467.574H3699.17V492.215H3729.91V467.574ZM3707.87 497.313H3699.17V525.071H3707.87V497.313ZM3750.78 461.628C3749.62 453.697 3748.75 445.482 3748.46 437.271H3730.2C3729.62 439.82 3728.75 440.95 3726.43 442.369V462.478H3729.03C3735.41 453.981 3737.15 452.282 3738.31 452.282C3740.05 452.282 3742.37 453.697 3748.75 459.645L3750.78 461.628ZM3729.91 525.071C3739.18 513.175 3740.63 511.761 3742.37 511.761C3744.11 511.761 3745.85 512.327 3750.49 516.574C3753.68 512.325 3756.58 508.077 3759.48 503.828C3756.87 493.916 3754.55 484.004 3752.81 473.806C3751.94 474.373 3750.78 475.223 3749.62 476.071V482.019L3750.78 494.762C3750.78 502.129 3744.69 504.96 3737.44 504.96C3730.78 504.96 3729.91 504.11 3729.91 497.879C3729.33 499.86 3728.46 500.994 3726.43 502.129V525.07H3729.91L3729.91 525.071Z" fill="#D01F27"/>
</g>
<defs>
<clipPath id="clip0_2_220">
<rect width="4096" height="722.824" fill="white"/>
</clipPath>
</defs>
</svg>
