<svg width="4096" height="1803" viewBox="0 0 4096 1803" fill="none" xmlns="http://www.w3.org/2000/svg">
<path d="M2514.26 193.473H2355.18V352.084H2514.26V193.473Z" fill="white"/>
<path d="M1740.82 193.473H1581.74V352.084H1740.82V193.473Z" fill="white"/>
<path d="M1968.5 352.084H2127.58V193.473H1968.42V352.084H1968.5Z" fill="white"/>
<path d="M1934.2 0H1775.12V545.472H1934.2V0Z" fill="white"/>
<path d="M2161.8 193.471V545.472H2320.96V0H2161.8V193.471Z" fill="white"/>
<path d="M2161.8 193.471V545.472H2320.96V0H2161.8V193.471Z" fill="white"/>
<path d="M2127.58 386.207H1968.5V738.289H2127.58V386.207Z" fill="white"/>
<path d="M738.646 1802.9V1079.53H939.45V1354.33H1205.81V1079.53H1406.62V1802.9H1205.81V1509.73H939.45V1802.9H738.646Z" fill="white"/>
<path d="M1875.76 1802.9V1079.53H2094.38L2270.77 1363.51C2286.03 1388.08 2300.3 1412.74 2313.49 1437.31C2326.77 1461.88 2339.55 1489.03 2352 1518.6C2364.46 1548.25 2377.07 1582.73 2390.02 1622.28H2372.62C2370.97 1596.1 2368.91 1565.73 2366.44 1531.25C2363.96 1496.77 2361.74 1462.77 2359.76 1429.34C2357.78 1395.82 2356.79 1367.63 2356.79 1344.58V1079.53H2563.53V1802.9H2344.91L2180.39 1538.82C2161.84 1508.69 2145.51 1480.65 2131.41 1454.55C2117.3 1428.53 2103.78 1400.9 2090.67 1371.81C2077.56 1342.65 2062.63 1309.05 2045.73 1270.87H2066.59C2069.23 1304.86 2071.78 1338.7 2074.26 1372.29C2076.73 1405.97 2078.71 1437.23 2080.2 1465.99C2081.68 1494.83 2082.42 1519.08 2082.42 1538.82V1802.9H1875.68H1875.77L1875.76 1802.9Z" fill="white"/>
<path d="M1741.59 1079.53H1540.79V1802.9H1741.59V1079.53Z" fill="white"/>
<path d="M3974.43 879.008V991.634H3549.57V879.008H3974.43Z" fill="white"/>
<path d="M3974.02 1079.53H3428.09V1802.9H4095.98V1079.53H3974.02ZM3628.82 1647.5V1234.93H3895.18V1647.5H3628.82Z" fill="white"/>
<path d="M605.297 1802.9H0.989469V1647.5H210.699C248.797 1647.5 286.979 1647.82 325.245 1648.46C363.508 1649.11 401.855 1651.36 440.285 1655.23L427.833 1715.41C399.381 1685.93 371.261 1656.52 343.634 1627.03C316.01 1597.55 290.856 1568.14 268.344 1538.65L0 1188.12V1079.36H604.308V1234.93H377.693C342.234 1234.93 306.772 1234.61 271.312 1233.96C235.853 1233.32 200.391 1231.06 164.931 1227.2L177.384 1166.86C204.846 1195.05 231.976 1223.25 258.611 1251.61C285.33 1279.97 309.41 1308.16 330.933 1336.36L605.214 1694.14V1802.9H605.297V1802.9Z" fill="white"/>
<path d="M2697.78 1802.9V1694.14L2972.07 1336.36C2993.59 1308.16 3017.67 1279.97 3044.39 1251.61C3071.02 1223.25 3098.16 1195.06 3125.62 1166.86L3138.07 1227.2C3102.61 1231.07 3067.15 1233.32 3031.69 1233.97C2996.23 1234.61 2960.76 1234.93 2925.31 1234.93H2698.69V1079.37H3303V1188.13L3034.66 1538.66C3012.14 1568.14 2986.99 1597.55 2959.36 1627.04C2931.74 1656.52 2903.62 1685.93 2875.17 1715.41L2862.71 1655.23C2901.14 1651.37 2939.49 1649.11 2977.75 1648.47C3016.02 1647.82 3054.2 1647.5 3092.3 1647.5H3302.01V1802.9H2697.7H2697.78V1802.9Z" fill="white"/>
</svg>
