<svg width="4096" height="723" viewBox="0 0 4096 723" fill="none" xmlns="http://www.w3.org/2000/svg">
<g clip-path="url(#clip0_2_219)">
<path d="M729.57 305.192H605.115V426.776H729.57V305.192Z" fill="white"/>
<path d="M124.455 305.192H0V426.776H124.455V305.192Z" fill="white"/>
<path d="M302.589 426.776H427.044V305.192H302.523V426.776H302.589Z" fill="white"/>
<path d="M275.75 156.882H151.295V575.02H275.75V156.882Z" fill="white"/>
<path d="M453.82 305.192V575.02H578.341V156.882H453.82V305.192Z" fill="white"/>
<path d="M453.82 305.192V575.02H578.341V156.882H453.82V305.192Z" fill="white"/>
<path d="M427.045 452.934H302.59V722.826H427.045V452.934Z" fill="white"/>
<path d="M1469.34 722.823V156.882H1626.44V371.874H1834.83V156.882H1991.94V722.823H1834.83V493.459H1626.44V722.823H1469.34Z" fill="white"/>
<path d="M2358.98 722.823V156.882H2530.02L2668.02 379.061C2679.96 398.284 2691.12 417.571 2701.44 436.796C2711.83 456.019 2721.83 477.261 2731.57 500.394C2741.31 523.589 2751.19 550.565 2761.32 581.512H2747.7C2746.41 561.029 2744.8 537.266 2742.86 510.29C2740.93 483.314 2739.18 456.714 2737.64 430.558C2736.09 404.338 2735.31 382.278 2735.31 364.251V156.884H2897.06V722.825H2726.02L2597.31 516.214C2582.79 492.641 2570.02 470.707 2558.98 450.285C2547.95 429.928 2537.37 408.308 2527.11 385.553C2516.85 362.737 2505.18 336.453 2491.95 306.578H2508.27C2510.34 333.176 2512.34 359.649 2514.27 385.931C2516.21 412.277 2517.76 436.732 2518.92 459.235C2520.08 481.799 2520.66 500.77 2520.66 516.214V722.825H2358.91H2358.98L2358.98 722.823Z" fill="white"/>
<path d="M2254.01 156.882H2096.9V722.823H2254.01V156.882Z" fill="white"/>
<path d="M4000.9 0V88.1149H3668.5V0H4000.9Z" fill="white"/>
<path d="M4000.58 156.882H3573.47V722.825H4096V156.882H4000.58ZM3730.51 601.24V278.465H3938.9V601.24H3730.51Z" fill="white"/>
<path d="M1365.01 722.822H892.221V601.238H1056.29C1086.1 601.238 1115.97 601.49 1145.91 601.994C1175.84 602.499 1205.84 604.263 1235.91 607.288L1226.17 654.372C1203.91 631.303 1181.91 608.297 1160.29 585.228C1138.68 562.16 1119 539.153 1101.39 516.084L891.447 241.842V156.752H1364.24V278.462H1186.94C1159.2 278.462 1131.45 278.21 1103.71 277.706C1075.97 277.201 1048.23 275.437 1020.48 272.412L1030.23 225.202C1051.71 247.262 1072.94 269.322 1093.78 291.509C1114.68 313.695 1133.52 335.755 1150.36 357.815L1364.94 637.73V722.819H1365.01V722.822Z" fill="white"/>
<path d="M3002.1 722.82V637.73L3216.68 357.815C3233.52 335.755 3252.36 313.695 3273.27 291.509C3294.1 269.322 3315.33 247.262 3336.81 225.202L3346.56 272.412C3318.82 275.437 3291.07 277.201 3263.33 277.706C3235.59 278.21 3207.84 278.462 3180.1 278.462H3002.8V156.752H3475.59V241.842L3265.65 516.084C3248.04 539.153 3228.36 562.16 3206.75 585.228C3185.13 608.297 3163.13 631.303 3140.87 654.372L3131.13 607.288C3161.19 604.263 3191.2 602.499 3221.13 601.994C3251.07 601.49 3280.94 601.238 3310.75 601.238H3474.82V722.822H3002.03H3002.1V722.82Z" fill="white"/>
</g>
<defs>
<clipPath id="clip0_2_219">
<rect width="4096" height="722.824" fill="white"/>
</clipPath>
</defs>
</svg>
