<svg width="1103" height="486" viewBox="0 0 1103 486" fill="none" xmlns="http://www.w3.org/2000/svg">
<g clip-path="url(#clip0_1_144)">
<path d="M676.931 52.0901H634.102V94.7939H676.931V52.0901Z" fill="black"/>
<path d="M468.692 52.0901H425.863V94.7939H468.692V52.0901Z" fill="black"/>
<path d="M529.993 94.7939H572.822V52.0901H529.971V94.7939H529.993Z" fill="black"/>
<path d="M520.757 3.8147e-05H477.928V146.861H520.757V3.8147e-05Z" fill="black"/>
<path d="M582.037 52.0895V146.861H624.888V3.8147e-05H582.037V52.0895Z" fill="black"/>
<path d="M582.037 52.0895V146.861H624.888V3.8147e-05H582.037V52.0895Z" fill="black"/>
<path d="M572.822 103.981H529.993V198.774H572.822V103.981Z" fill="black"/>
</g>
<path d="M198.871 485.407V290.649H252.934V364.635H324.65V290.649H378.714V485.407H324.65V406.476H252.934V485.407H198.871Z" fill="black"/>
<path d="M505.024 485.407V290.649H563.884L611.376 367.108C615.484 373.723 619.325 380.36 622.877 386.976C626.452 393.592 629.894 400.902 633.246 408.862C636.599 416.845 639.996 426.128 643.482 436.778H638.797C638.353 429.729 637.798 421.551 637.132 412.268C636.466 402.985 635.866 393.831 635.333 384.83C634.8 375.807 634.534 368.215 634.534 362.011V290.65H690.196V485.408H631.336L587.041 414.307C582.046 406.194 577.65 398.646 573.853 391.618C570.056 384.613 566.415 377.173 562.885 369.342C559.355 361.49 555.336 352.445 550.785 342.164H556.402C557.112 351.317 557.801 360.428 558.467 369.472C559.133 378.539 559.666 386.954 560.065 394.698C560.465 402.463 560.665 408.992 560.665 414.307V485.408H505.003H505.025L505.024 485.407Z" fill="black"/>
<path d="M468.901 290.649H414.838V485.407H468.901V290.649Z" fill="black"/>
<path d="M1070.06 236.661V266.984H955.674V236.661H1070.06Z" fill="black"/>
<path d="M1069.95 290.649H922.969V485.408H1102.79V290.649H1069.95ZM977.011 443.567V332.49H1048.73V443.567H977.011Z" fill="black"/>
<path d="M162.968 485.407H0.266401V443.567H56.728C66.9854 443.567 77.2654 443.653 87.5679 443.827C97.8697 444 108.194 444.608 118.541 445.649L115.188 461.852C107.528 453.913 99.9572 445.996 92.5189 438.057C85.0814 430.118 78.3091 422.201 72.248 414.263L0 319.887V290.605H162.702V332.489H101.689C92.1419 332.489 82.5942 332.402 73.0472 332.229C63.5002 332.055 53.9525 331.448 44.4055 330.407L47.7582 314.161C55.1521 321.752 62.4564 329.344 69.6276 336.979C76.8213 344.614 83.3046 352.205 89.0993 359.797L162.946 456.125V485.407H162.968V485.407Z" fill="black"/>
<path d="M726.343 485.407V456.125L800.189 359.798C805.984 352.206 812.467 344.614 819.661 336.979C826.832 329.344 834.137 321.753 841.53 314.161L844.883 330.408C835.336 331.449 825.788 332.056 816.241 332.229C806.694 332.403 797.147 332.49 787.6 332.49H726.587V290.606H889.289V319.888L817.041 414.263C810.98 422.202 804.207 430.119 796.77 438.058C789.331 445.996 781.761 453.914 774.1 461.852L770.748 445.649C781.094 444.608 791.418 444.001 801.721 443.828C812.023 443.654 822.303 443.567 832.561 443.567H889.022V485.408H726.32H726.343V485.407Z" fill="black"/>
<path d="M139.656 369.498C139.656 368.719 139.556 368.719 138.957 368.719C138.16 368.719 135.665 369.304 134.269 369.596C129.779 370.572 124.491 371.643 120.301 372.911C118.704 373.397 116.011 374.177 114.115 375.444C112.419 376.516 111.421 377.199 109.726 377.199C107.331 377.199 104.737 375.542 102.642 373.495C100.347 371.253 98.3517 368.621 98.3517 366.574C98.3517 365.893 98.4511 365.113 98.6506 364.236C98.85 363.554 99.1495 363.26 99.5485 363.26C99.848 363.26 100.247 363.455 100.546 363.748C101.943 364.82 103.339 365.404 104.237 365.893C105.634 366.574 107.03 366.77 108.228 366.77C109.325 366.77 111.919 366.477 114.513 366.087C120.699 365.113 127.782 363.846 133.47 362.677C137.56 361.896 138.159 361.507 139.655 359.947C140.753 358.875 141.451 358.583 142.449 358.583C144.045 358.583 147.437 359.947 150.63 362.287C153.822 364.432 156.716 366.868 156.716 369.304C156.716 370.376 156.516 371.059 155.021 372.228C152.626 373.788 152.526 374.372 151.528 377.296C145.841 393.281 138.059 404.587 127.484 413.261C118.804 420.278 107.431 425.055 95.6573 427.101C95.0597 427.199 94.56 427.296 94.1604 427.296C93.6621 427.296 93.4626 427.101 93.4626 426.712C93.4626 426.517 93.6621 426.225 94.0603 426.03C104.038 421.449 113.017 414.821 120.699 406.44C128.581 397.569 134.866 386.264 138.457 374.763C138.956 373.008 139.654 370.67 139.654 369.499L139.656 369.498ZM161.605 352.832C163.9 354.197 165.397 356.048 165.397 358.29C165.397 360.727 163.601 362.677 161.506 362.677C160.109 362.677 158.912 362.091 157.714 360.044C155.32 355.853 152.826 353.514 149.833 351.76C149.334 351.564 149.134 351.273 149.134 350.979C149.134 350.686 149.434 350.395 150.131 350.395C155.021 350.298 158.912 351.273 161.605 352.832ZM161.705 343.475C165.397 343.475 168.091 344.06 170.186 345.035C172.78 346.301 174.376 348.348 174.376 350.59C174.376 352.929 172.879 354.683 170.884 354.683C169.588 354.683 168.59 354.294 166.993 352.052C164.2 348.251 162.004 346.496 158.712 344.937C158.214 344.741 158.014 344.449 158.014 344.157C158.014 343.865 158.313 343.67 158.912 343.572C159.91 343.475 160.807 343.475 161.705 343.475Z" fill="#D01F27"/>
<path d="M195.925 412.774C195.925 416.283 194.129 417.939 191.735 417.939C189.739 417.939 187.445 417.16 185.848 414.528C184.851 412.579 183.255 410.045 183.255 407.121C183.255 406.049 183.155 405.074 183.255 404.295C183.354 403.418 183.255 401.761 183.155 400.688C182.756 394.256 182.058 385.679 180.761 377.589C180.162 374.08 179.664 372.228 178.566 371.253C177.867 370.669 177.07 370.084 176.172 369.792C175.673 369.596 175.374 369.401 175.374 369.109C175.374 368.818 175.574 368.427 175.973 368.134C176.97 367.257 178.168 366.477 179.665 366.477C181.46 366.477 186.05 367.94 188.245 369.012C189.342 369.596 190.14 370.084 190.739 370.669C198.82 369.304 207.599 367.745 215.082 366.673C217.576 366.38 217.576 366.185 219.372 364.334C220.47 363.261 221.667 363.066 222.565 363.066C224.161 363.066 227.653 365.211 230.646 367.55C234.038 369.889 236.931 372.326 236.931 374.665C236.931 376.322 236.632 377.297 234.737 378.564C232.841 380.026 232.841 380.61 231.943 383.827C230.746 388.31 229.849 393.184 228.551 399.422C229.548 399.617 230.546 399.812 231.445 400.202C234.238 401.371 235.834 403.027 235.834 404.977C235.834 407.316 235.036 408.486 231.744 408.486C229.748 408.486 227.753 407.902 225.458 407.707C224.361 407.609 223.064 407.512 221.368 407.512C219.772 407.512 217.976 407.609 215.781 407.707C208.697 408.194 202.812 409.071 195.728 410.339C195.827 411.313 195.927 412.093 195.927 412.775L195.925 412.774ZM215.081 400.396C215.978 400.299 216.876 400.104 217.674 400.005C218.173 392.695 218.673 386.263 218.972 379.635C219.071 377.589 219.071 375.931 219.071 374.859C219.071 373.3 219.071 373.105 217.475 373.105C216.876 373.105 215.479 373.202 214.881 373.3C208.396 373.982 200.215 375.639 192.233 377.101C192.433 378.661 192.633 380.22 192.732 381.78C192.931 383.631 193.031 385.386 193.231 387.238C193.53 389.479 193.729 391.721 194.029 394.061C194.328 397.083 194.727 400.201 195.026 403.223C201.91 402.053 208.296 401.078 215.079 400.396H215.081Z" fill="#D01F27"/>
<path d="M256.982 392.598C256.883 392.111 256.783 391.721 256.583 391.136C255.586 387.627 253.989 385.288 251.396 382.949C251.196 382.754 250.897 382.559 250.897 382.169C250.897 381.778 251.396 381.585 251.894 381.585C256.185 381.78 260.574 383.436 263.567 386.165C265.763 388.212 266.959 390.551 266.959 392.987C266.959 396.106 265.164 397.958 261.971 397.958C259.078 397.958 257.98 396.691 256.982 392.598V392.598ZM255.885 425.639C261.771 422.715 268.955 416.964 274.042 411.02C280.129 403.904 284.219 395.911 287.012 385.97C287.611 383.924 287.91 382.461 287.91 381.39C287.91 380.318 287.811 380.122 286.912 379.245C286.413 378.758 285.715 378.271 284.817 377.783C284.518 377.588 284.218 377.295 284.218 377.003C284.218 376.613 284.618 376.321 285.016 376.126C286.413 375.541 288.009 375.249 288.708 375.249C290.304 375.249 292.998 376.515 295.491 378.465C298.085 380.414 299.781 382.461 299.781 384.021C299.781 384.898 299.482 385.483 298.385 386.554C297.786 387.237 297.388 387.919 296.888 389.381C293.296 399.81 286.91 409.947 280.127 415.99C273.142 422.325 264.463 426.712 255.084 428.563C254.487 428.66 253.788 428.855 253.189 428.855C252.59 428.855 252.291 428.465 252.291 427.978C252.291 427.588 252.491 427.296 252.89 427.101L255.884 425.638L255.885 425.639ZM271.049 388.018C270.95 387.432 270.75 386.945 270.65 386.653C269.752 383.631 267.657 380.415 265.861 379.149C265.462 378.856 265.362 378.758 265.362 378.369C265.362 377.98 265.662 377.687 266.26 377.687C269.952 377.784 274.042 379.051 276.936 381.196C279.43 383.048 280.827 385.484 280.827 388.019C280.827 391.333 279.031 393.38 275.838 393.38C273.145 393.38 272.147 392.308 271.049 388.019V388.018Z" fill="#D01F27"/>
<path d="M356.451 365.405C358.346 365.113 358.447 364.82 359.644 363.066C360.542 362.189 361.44 361.799 362.437 361.799C363.735 361.799 367.226 363.455 370.12 365.6C373.512 368.037 375.607 370.181 375.607 372.423C375.607 373.788 374.31 374.762 373.213 375.25C371.317 376.03 370.918 376.81 369.621 379.344C362.537 394.061 353.857 405.854 343.481 413.652C333.804 421.156 323.029 426.517 310.058 429.441C309.659 429.538 308.862 429.734 308.563 429.734C308.064 429.734 307.765 429.441 307.765 429.148C307.765 428.856 307.864 428.563 308.263 428.369C319.238 422.716 328.915 415.893 337.695 406.829C345.876 398.154 352.76 388.309 357.449 376.419C357.948 375.054 358.646 372.714 358.646 372.034C358.646 371.546 358.447 371.448 357.848 371.448C357.35 371.448 355.554 371.838 355.255 371.935C354.257 372.325 352.86 372.714 351.862 373.008C350.665 373.495 349.568 373.885 348.57 373.885C347.373 373.885 345.577 373.397 343.882 372.423C341.288 376.321 338.195 380.317 334.602 383.826C328.816 389.771 322.032 394.938 314.848 397.569C314.15 397.861 313.651 397.472 313.651 397.082C313.651 396.789 313.751 396.594 314.051 396.302C319.139 391.039 323.728 385.19 327.619 379.343C331.41 373.397 334.702 367.257 337.397 360.532C338.095 358.972 338.894 356.536 338.894 355.268C338.894 354.294 338.494 353.611 337.596 353.026C337.097 352.734 336.599 352.441 335.701 352.052C335.202 351.857 334.903 351.564 334.903 351.273C334.903 350.981 335.202 350.687 335.601 350.395C337.098 349.518 338.794 348.933 339.991 348.933C341.488 348.933 345.079 350.492 347.973 352.344C350.966 354.294 352.562 355.95 352.562 358.484C352.562 359.947 351.963 360.434 350.666 361.7C349.669 362.676 349.07 363.357 347.674 366.087C347.474 366.476 347.175 366.964 346.975 367.451C349.37 367.159 353.56 366.087 356.453 365.404L356.451 365.405Z" fill="#D01F27"/>
<path d="M414.915 369.791C407.133 371.74 398.852 373.3 390.372 373.202C389.774 373.202 389.474 372.91 389.474 372.52C389.474 372.228 389.674 371.837 390.172 371.74C397.955 369.596 406.435 366.477 412.322 363.651C416.612 361.701 420.203 359.752 423.695 357.608C425.491 356.439 427.087 355.366 427.087 354.781C427.087 353.903 426.29 353.026 425.791 352.539C425.492 352.247 425.093 351.857 424.394 351.37C423.995 351.078 423.795 350.784 423.795 350.493C423.795 350.201 423.995 350.005 424.593 349.81C425.891 349.518 427.387 349.323 428.285 349.323C430.081 349.323 433.472 350.493 437.064 352.539C440.856 354.684 443.05 356.828 443.05 359.069C443.05 360.726 442.452 361.408 439.957 361.798C438.36 362.091 436.665 362.577 435.767 362.968C432.375 364.43 428.783 365.795 425.092 366.866C426.689 367.451 427.986 368.132 428.983 368.815C431.876 370.765 433.472 371.545 433.472 373.981C433.472 374.567 433.273 375.249 432.974 376.028C432.674 376.711 432.475 377.489 432.375 378.27C432.375 378.66 432.275 379.049 432.275 379.439C434.271 379.147 436.465 378.854 438.661 378.465C441.254 378.075 441.654 377.88 443.149 376.808C444.347 375.931 446.143 375.346 447.739 375.346C449.635 375.346 452.528 376.028 455.621 377.198C459.213 378.562 461.307 380.219 461.307 382.753C461.307 385.287 459.911 386.36 456.918 386.36C455.122 386.36 453.226 385.969 450.233 385.58C447.041 385.19 443.549 385.19 438.561 385.385C436.365 385.482 434.07 385.677 431.776 385.969C430.48 398.543 426.887 408.777 418.706 416.867C413.219 422.519 404.938 427.003 393.564 429.44C393.065 429.537 392.666 429.635 392.268 429.635C391.869 429.635 391.569 429.343 391.569 429.051C391.569 428.855 391.669 428.563 392.068 428.368C401.545 423.397 407.233 418.329 411.622 411.994C416.71 404.391 419.204 397.374 420.303 387.529C417.11 388.115 413.718 388.797 410.525 389.576C408.131 390.162 405.336 390.941 403.641 391.915C401.845 392.987 401.047 393.572 399.75 393.572C397.255 393.572 395.16 392.109 393.065 390.258C391.07 388.504 388.575 385.871 388.575 384.118C388.575 383.436 388.675 382.558 388.874 381.779C388.975 381.194 389.274 381 389.573 381C389.871 381 390.172 381.194 390.47 381.39C391.967 382.462 393.165 383.046 394.162 383.436C395.259 383.924 396.556 384.216 397.854 384.216C399.45 384.216 402.044 383.826 404.737 383.436C411.023 382.364 416.112 381.487 420.901 380.805C421 379.05 421 377.198 421 375.347C421 372.715 420.401 371.448 419.503 370.278C419.104 369.791 418.705 369.401 418.006 369.012C417.009 369.304 415.911 369.498 414.913 369.791H414.915Z" fill="#D01F27"/>
<path d="M493.731 392.988C493.133 393.085 492.234 393.184 491.336 393.378C489.441 393.768 488.743 393.866 488.044 393.866C486.149 393.866 485.052 393.378 483.255 391.429C480.961 388.992 480.363 388.115 480.363 386.653C480.363 385.288 480.662 384.899 481.261 384.899C481.66 384.899 481.759 384.996 482.159 385.288C483.556 386.264 484.054 386.556 485.252 386.946C486.649 387.433 487.347 387.53 488.943 387.53C490.041 387.53 491.637 387.433 492.933 387.238C498.022 386.653 502.013 385.776 506.203 384.802C508.498 384.314 508.697 384.216 509.795 383.145C510.394 382.56 511.591 382.169 512.689 382.169C513.886 382.169 517.477 382.755 518.475 383.047C520.371 383.729 521.667 385.386 521.667 387.14C521.667 389.285 520.371 389.966 515.981 390.259C512.987 390.454 509.795 390.649 507.799 390.942C506.502 391.137 505.106 391.429 503.809 391.624C503.31 391.721 502.911 391.721 502.312 391.819C503.21 392.209 504.008 392.598 504.407 392.793C505.604 393.573 506.403 394.45 506.403 395.522C506.403 396.302 506.303 396.886 505.904 397.959C505.704 398.544 505.405 399.519 505.305 400.493C504.906 403.417 504.706 405.074 504.607 406.828C505.006 406.828 505.405 406.731 505.704 406.731C511.491 406.049 515.282 405.757 517.676 405.757C518.874 405.757 519.173 405.464 520.07 404.879C520.868 404.294 521.567 404.1 522.665 404.1C524.361 404.1 526.855 404.88 529.35 406.049C532.243 407.414 533.34 408.583 533.34 410.533C533.34 412.775 532.143 413.847 529.749 413.847C528.65 413.847 526.356 413.555 523.662 412.97C521.168 412.482 517.277 412.19 514.084 412.19C510.292 412.19 505.204 412.482 501.413 412.97C498.919 413.262 491.437 414.529 489.341 415.017C486.847 415.6 484.453 416.186 482.756 417.258C481.259 418.136 480.661 418.33 479.663 418.33C477.767 418.33 475.673 417.356 473.677 415.309C471.582 413.359 470.285 411.312 470.285 409.948C470.285 409.461 470.285 408.68 470.384 408.388C470.583 407.706 470.983 407.316 471.481 407.316C471.781 407.316 472.08 407.608 472.38 407.803C473.078 408.29 474.474 409.168 474.774 409.362C475.672 409.85 476.669 410.045 477.866 410.045C478.765 410.045 479.563 409.948 483.454 409.461C487.844 408.876 490.737 408.485 495.526 407.901C495.626 404.49 495.726 400.591 495.726 396.789C495.726 394.938 495.426 393.767 494.928 393.184L494.629 392.891L493.731 392.988Z" fill="#D01F27"/>
<path d="M599.783 383.728C603.375 383.533 605.969 383.338 609.261 383.241C611.256 383.144 615.746 382.949 619.437 383.924C623.427 384.898 625.224 386.946 625.224 389.771C625.224 392.306 623.328 393.963 618.539 394.06C613.052 394.157 608.063 394.06 600.781 394.06C595.992 394.06 589.207 394.255 584.019 394.547C578.731 394.839 571.149 395.425 565.063 396.106C563.367 396.302 560.473 396.692 558.578 397.569C556.683 398.446 555.785 398.446 554.786 398.446C552.193 398.446 549.798 396.886 547.204 394.353C544.611 391.819 542.316 389.187 542.316 385.873C542.316 385.093 542.316 384.41 542.615 383.436C542.814 382.949 543.114 382.559 543.413 382.559C543.612 382.559 543.812 382.656 544.21 382.949C545.707 384.216 547.403 385.191 548.701 385.775C550.198 386.457 552.192 386.555 553.689 386.555C555.186 386.555 558.678 386.36 561.072 386.263C570.151 385.775 577.134 385.093 583.621 384.703C589.107 384.313 594.495 384.021 599.783 383.727L599.783 383.728Z" fill="#D01F27"/>
<path d="M634.202 367.355C634.202 366.965 634.501 366.77 635.1 366.673C636.497 366.477 637.894 366.38 639.39 366.38C644.28 366.38 649.267 367.55 652.958 369.402C657.149 371.547 660.242 374.86 660.242 378.954C660.242 383.73 657.449 386.167 653.058 386.167C649.966 386.167 647.671 384.12 645.975 380.221C643.38 374.47 640.088 370.864 635 368.233C634.501 368.037 634.202 367.745 634.202 367.356V367.355ZM656.75 417.842C654.855 419.499 653.957 420.084 652.56 420.084C649.967 420.084 646.175 417.55 643.481 414.82C640.787 411.995 638.691 409.07 638.691 407.218C638.691 406.243 639.091 404.294 639.79 402.735C640.088 402.15 640.288 401.858 640.587 401.858C640.887 401.858 641.186 402.15 641.485 402.54C642.383 403.806 643.181 404.586 643.879 405.171C644.877 405.951 645.975 406.828 647.472 406.828C649.167 406.828 654.255 404.294 657.548 402.54C667.625 396.886 677.103 389.868 685.982 381.487C693.864 374.079 701.546 365.795 708.929 355.853C709.129 355.561 709.428 355.463 709.627 355.463C709.927 355.463 710.126 355.658 710.126 356.048C710.126 356.439 710.027 356.731 709.927 357.022C706.135 368.718 699.949 379.343 691.968 388.505C682.69 399.323 672.613 407.608 663.135 413.554C660.242 415.406 658.347 416.38 656.75 417.842Z" fill="#D01F27"/>
<path d="M732.175 365.599C741.454 356.925 752.628 352.441 764.7 352.441C774.377 352.441 782.858 355.268 789.642 360.531C799.62 368.329 805.806 380.999 805.806 394.449C805.806 404.488 802.413 412.676 794.132 418.523C786.151 424.079 773.181 427.685 754.125 428.465C753.427 428.465 753.128 428.173 753.128 427.88C753.128 427.586 753.328 427.197 753.926 427.1C765.1 424.566 774.578 420.473 781.262 415.015C788.745 408.971 792.437 400.395 792.437 390.257C792.437 380.12 788.645 370.374 782.459 364.136C777.471 359.165 771.285 356.338 764.201 356.338C763.204 356.338 762.206 356.437 761.208 356.534C762.705 357.8 764.101 359.457 765.199 361.114C767.194 364.038 767.693 366.865 767.693 369.886C767.693 371.835 767.194 375.247 766.596 378.268C763.802 392.01 757.616 404.779 752.129 411.407C746.942 417.645 740.954 421.153 735.667 421.153C731.376 421.153 728.184 420.081 726.388 414.233C725.69 412.088 724.792 409.555 723.295 407.117C720.402 402.537 717.608 399.125 717.608 393.764C717.608 383.141 723.794 373.393 732.174 365.596L732.175 365.599ZM729.182 405.074C730.779 407.219 732.274 407.999 734.969 407.999C738.261 407.999 741.852 405.66 745.643 400.981C751.23 394.256 757.217 382.365 759.91 371.156C760.409 368.915 761.008 366.088 761.008 364.236C761.008 362.871 760.808 361.117 760.21 359.558C759.811 358.582 759.312 357.706 758.814 356.925C751.43 358.485 744.547 363.261 738.959 369.986C732.075 378.271 727.385 388.017 727.385 397.861C727.385 401.467 728.183 403.612 729.182 405.074L729.182 405.074Z" fill="#D01F27"/>
<path d="M830.047 381.78C832.541 386.36 834.237 392.014 834.237 400.494C834.237 410.533 829.847 417.063 823.363 417.063C819.072 417.063 816.777 414.626 816.777 410.24C816.777 407.121 818.972 404.684 821.866 402.247C827.252 397.764 829.847 391.916 829.149 381.974L830.047 381.78ZM842.418 376.127C842.418 371.838 842.119 369.987 841.221 368.134L841.919 367.452C856.785 369.595 858.681 370.668 858.681 372.325C858.681 373.593 857.783 374.08 854.889 375.054V412.872C854.889 417.16 855.388 417.939 861.374 417.939C870.952 417.939 874.343 417.16 877.536 413.261C879.432 410.922 881.826 406.731 883.722 399.908L884.719 400.005C884.42 406.438 884.42 409.849 884.42 411.214C884.42 412.87 885.019 414.138 886.116 415.21C887.613 416.672 888.311 418.232 888.311 420.278C888.311 422.91 887.114 424.956 885.019 426.224C881.826 428.075 876.638 429.928 861.573 429.928C844.513 429.928 842.019 426.712 842.019 414.333L842.418 396.399V376.127ZM850.699 345.424C863.968 345.814 875.641 351.077 875.641 360.629C875.641 365.795 871.75 368.329 867.76 368.329C864.068 368.329 862.073 366.574 861.175 362.091C859.678 355.657 856.685 349.224 850.299 346.203L850.699 345.424ZM882.126 379.83C900.284 384.898 907.967 396.009 907.967 406.341C907.967 411.994 904.175 414.82 900.085 414.82C896.394 414.82 894.198 413.066 893.7 407.998C892.402 395.327 889.011 386.263 881.627 380.609L882.126 379.83Z" fill="#D01F27"/>
<path d="M994.165 375.347C996.061 372.617 997.358 370.96 998.157 369.889C997.758 369.207 997.459 368.329 997.158 367.16C996.261 363.749 994.365 360.63 990.773 358.388L991.073 357.803C1002.84 358.582 1007.04 362.091 1007.04 366.379C1007.04 368.718 1005.94 370.084 1004.64 370.863C1004.94 371.155 1005.24 371.351 1005.54 371.643C1008.73 374.567 1009.13 375.053 1009.13 375.834C1009.13 376.809 1008.63 377.101 1007.14 377.101H992.27C992.27 379.148 992.27 380.902 992.37 383.924C992.469 388.407 992.869 392.891 993.567 397.083C994.265 394.744 994.964 392.307 995.562 390.065C996.46 386.361 996.561 385.094 996.36 383.827L997.158 383.34C1007.93 387.921 1008.63 388.407 1008.63 389.578C1008.63 390.455 1008.03 390.942 1005.04 391.332C1002.65 397.863 999.952 403.905 996.659 409.266C996.958 410.436 997.457 411.508 997.856 412.581C999.154 415.7 1000.35 417.551 1001.35 417.551C1002.15 417.551 1003.14 416.869 1004.24 415.114C1005.54 413.067 1006.93 411.021 1008.63 407.512L1009.53 407.902C1006.93 417.161 1006.34 419.5 1006.34 421.255C1006.34 422.815 1006.63 423.789 1007.43 424.958C1008.23 426.226 1008.93 427.687 1008.93 429.345C1008.93 432.073 1007.73 433.925 1004.04 433.925C999.752 433.925 994.265 428.857 990.374 419.696C990.174 419.208 989.974 418.72 989.675 418.136C983.19 424.958 974.211 430.319 961.34 433.925L960.742 433.146C969.622 428.273 975.408 423.789 979.798 419.111H966.23V421.255C966.23 424.764 964.034 425.738 960.942 425.738C958.946 425.738 958.647 425.641 958.647 423.497L959.246 396.791V389.189C959.246 385.485 959.246 383.925 958.548 382.366L959.147 381.683C965.232 383.73 967.328 384.607 967.926 385.387H975.109C978.201 381.294 978.701 380.807 979.399 380.807C979.798 380.807 980.497 381.099 982.193 382.561C982.492 382.853 982.691 383.049 982.99 383.243C982.891 381.196 982.891 379.15 982.791 377.103H959.644C959.245 377.688 958.248 378.273 956.652 378.76V388.409C956.652 416.187 952.361 425.057 940.888 433.829L940.189 433.244C946.275 423.887 947.473 417.649 947.473 393.283V379.54C947.473 375.349 947.174 373.107 946.675 371.742L947.373 371.06C956.253 373.497 958.946 374.472 959.744 375.349H982.791V371.937C982.791 369.403 982.692 367.649 982.293 366.187H980.397C978.303 366.187 977.903 366.09 977.903 363.653L978.103 355.953H969.323L969.523 363.068C969.523 366.479 966.829 367.552 960.943 367.552C958.848 367.552 958.449 367.455 958.449 365.017L958.748 356.05C952.861 356.147 949.769 356.342 946.776 356.733L946.077 354.1C945.579 354.491 944.68 354.881 943.284 355.563V388.02L943.583 421.549C943.583 429.736 936.1 433.634 932.409 433.634C930.912 433.634 930.613 433.342 930.313 431.198C930.015 427.787 928.119 424.668 922.432 423.303V422.231C925.625 422.328 928.518 422.134 930.114 421.841C932.608 421.451 933.606 420.671 933.606 417.26V395.135H926.622C925.724 406.442 923.828 413.556 921.433 419.502C919.339 424.765 916.944 428.469 914.051 432.368L913.253 431.783C914.948 426.227 915.747 421.939 916.545 415.896C917.542 408.488 917.942 399.716 917.942 381.002V354.589C917.942 348.351 917.742 346.986 916.844 345.134L917.542 344.452C924.925 346.889 928.218 348.059 929.215 349.131H932.309C935.202 345.426 936 344.355 936.998 344.355C938.194 344.355 938.993 344.745 942.684 347.962C945.877 350.787 946.675 351.86 946.675 352.737C946.675 353.029 946.675 353.224 946.576 353.517C950.566 353.906 954.657 354.003 958.747 354.1V349.033C958.747 345.817 958.648 344.257 958.049 342.893L958.648 342.307C969.623 343.867 972.017 344.646 972.017 345.817C972.017 346.987 971.518 347.473 969.223 348.156V354.199H978.202V349.033C978.202 345.817 978.103 344.257 977.504 342.893L978.102 342.307C989.975 343.965 991.67 344.744 991.67 345.914C991.67 347.084 991.172 347.57 988.877 348.253V354.199H992.169C997.257 347.279 998.056 346.596 998.953 346.596C999.752 346.596 1000.55 347.084 1004.54 350.398C1007.93 353.223 1008.13 353.906 1008.13 354.686C1008.13 355.66 1007.63 355.953 1006.14 355.953H988.977L989.176 361.704C989.176 363.36 988.478 364.531 986.982 365.213C994.764 366.187 995.761 367.162 995.761 368.429C995.761 369.403 994.764 369.892 992.469 370.378C992.37 372.425 992.37 373.985 992.37 375.35H994.165V375.347ZM933.607 372.326H927.121V380.22C927.121 385.093 927.021 389.479 926.722 393.378H933.606L933.607 372.326ZM933.607 350.882H929.217C928.918 351.175 928.319 351.565 927.121 352.15V370.571H933.608L933.607 350.882ZM967.927 387.14C967.627 387.53 967.129 387.726 966.231 388.115V395.814H969.224V387.14H967.928L967.927 387.14ZM976.807 397.569H966.231V406.049H976.807V397.569ZM969.224 407.803H966.231V417.355H969.224V407.803ZM983.99 395.522C983.59 392.793 983.291 389.966 983.192 387.14H976.907C976.707 388.018 976.408 388.407 975.609 388.895V395.815H976.507C978.702 392.891 979.301 392.306 979.7 392.306C980.299 392.306 981.097 392.793 983.292 394.84L983.99 395.522ZM976.807 417.355C979.999 413.262 980.497 412.775 981.097 412.775C981.696 412.775 982.294 412.97 983.89 414.431C984.988 412.969 985.985 411.507 986.984 410.045C986.085 406.634 985.286 403.223 984.689 399.714C984.389 399.908 983.99 400.201 983.591 400.493V402.54L983.99 406.925C983.99 409.46 981.895 410.434 979.401 410.434C977.106 410.434 976.807 410.142 976.807 407.998C976.607 408.679 976.308 409.07 975.61 409.46V417.355H976.807L976.807 417.355Z" fill="#D01F27"/>
<defs>
<clipPath id="clip0_1_144">
<rect width="1102.79" height="485.408" fill="white"/>
</clipPath>
</defs>
</svg>
