<svg width="1103" height="486" viewBox="0 0 1103 486" fill="none" xmlns="http://www.w3.org/2000/svg">
<g clip-path="url(#clip0_1_320)">
<path d="M676.931 52.0901H634.102V94.7938H676.931V52.0901Z" fill="black"/>
<path d="M468.692 52.0901H425.863V94.7938H468.692V52.0901Z" fill="black"/>
<path d="M529.993 94.7938H572.822V52.0901H529.971V94.7938H529.993Z" fill="black"/>
<path d="M520.757 0H477.928V146.861H520.757V0Z" fill="black"/>
<path d="M582.037 52.0894V146.861H624.888V0H582.037V52.0894Z" fill="black"/>
<path d="M582.037 52.0894V146.861H624.888V0H582.037V52.0894Z" fill="black"/>
<path d="M572.822 103.981H529.993V198.774H572.822V103.981Z" fill="black"/>
</g>
<path d="M198.871 485.407V290.649H252.934V364.635H324.65V290.649H378.714V485.407H324.65V406.476H252.934V485.407H198.871Z" fill="black"/>
<path d="M505.024 485.407V290.649H563.884L611.376 367.108C615.484 373.723 619.325 380.36 622.877 386.976C626.452 393.592 629.894 400.902 633.246 408.862C636.599 416.844 639.996 426.128 643.482 436.778H638.797C638.353 429.729 637.798 421.551 637.132 412.268C636.466 402.985 635.866 393.831 635.333 384.83C634.8 375.807 634.534 368.215 634.534 362.011V290.65H690.196V485.408H631.336L587.041 414.307C582.046 406.194 577.65 398.646 573.853 391.618C570.056 384.613 566.415 377.173 562.885 369.342C559.355 361.49 555.336 352.445 550.785 342.164H556.402C557.112 351.317 557.801 360.428 558.467 369.472C559.133 378.539 559.666 386.954 560.065 394.698C560.465 402.463 560.665 408.992 560.665 414.307V485.408H505.003H505.025L505.024 485.407Z" fill="black"/>
<path d="M468.901 290.649H414.838V485.407H468.901V290.649Z" fill="black"/>
<path d="M1070.06 236.661V266.984H955.674V236.661H1070.06Z" fill="black"/>
<path d="M1069.95 290.649H922.969V485.408H1102.79V290.649H1069.95ZM977.011 443.567V332.49H1048.73V443.567H977.011Z" fill="black"/>
<path d="M162.968 485.407H0.266401V443.567H56.728C66.9854 443.567 77.2654 443.653 87.5679 443.827C97.8697 444 108.194 444.608 118.541 445.649L115.188 461.852C107.528 453.913 99.9572 445.996 92.5189 438.057C85.0814 430.118 78.3091 422.201 72.248 414.263L0 319.887V290.605H162.702V332.489H101.689C92.1419 332.489 82.5942 332.402 73.0472 332.229C63.5002 332.055 53.9525 331.448 44.4055 330.407L47.7582 314.16C55.1521 321.752 62.4564 329.344 69.6276 336.979C76.8213 344.614 83.3046 352.205 89.0993 359.797L162.946 456.125V485.407H162.968V485.407Z" fill="black"/>
<path d="M726.343 485.407V456.125L800.189 359.798C805.984 352.206 812.467 344.614 819.661 336.979C826.832 329.344 834.137 321.753 841.53 314.161L844.883 330.408C835.336 331.449 825.788 332.056 816.241 332.229C806.694 332.403 797.147 332.49 787.6 332.49H726.587V290.605H889.289V319.888L817.041 414.263C810.98 422.202 804.207 430.119 796.77 438.058C789.331 445.996 781.761 453.914 774.1 461.852L770.748 445.649C781.094 444.608 791.418 444.001 801.721 443.828C812.023 443.654 822.303 443.567 832.561 443.567H889.022V485.408H726.32H726.343V485.407Z" fill="black"/>
<defs>
<clipPath id="clip0_1_320">
<rect width="1102.79" height="485.408" fill="white"/>
</clipPath>
</defs>
</svg>
